<svg width="100" height="92" viewBox="0 0 100 92" fill="none" xmlns="http://www.w3.org/2000/svg">
<mask id="mask0_1_611" style="mask-type:alpha" maskUnits="userSpaceOnUse" x="0" y="0" width="100" height="92">
<path d="M94.7098 51.7367C88.1579 61.9725 88 75 80.5 81.5C73 88 61 91.1593 50 91C39 90.8407 27 88 20.5 83.5C14 79 10.7097 67 8.00003 51.7367C7.99998 41.5 -1.20737 34.6156 0.92498 25.8068C5.48091 5.74112 14.0792 1.46484 36.0351 0H61.5402C88.4765 2.44141 94.5191 5.74112 99.075 25.8068C101.207 34.6156 99.6123 44.0897 94.7098 51.7367Z" fill="#C4C4C4"/>
</mask>
<g mask="url(#mask0_1_611)">
<path d="M74.5118 30.836C74.5118 17.9608 64.0371 7.09649 50.0977 6.51955C44.2746 6.27854 39.7267 7.83787 36.0352 10.4258C30.8898 14.0329 28.4729 15.8945 25.8789 20.7774C22.5586 27.0274 21.2891 37.7695 21.2891 42.6524L21.2891 46.2976L21.2891 51.3438C20.7504 60.5746 18.4571 68.4336 23.6329 72.3399C28.8086 76.2461 71.4844 79.0781 75.6836 72.3399C79.8828 65.6016 75.6836 56.9102 75.6836 48.8047C75.6836 40.9641 74.5118 37.9649 74.5118 30.836Z" fill="#5F090D"/>
<path d="M42.858 62.7541H56.9778C56.9134 64.4627 56.8231 68.286 56.9778 69.9108C57.1713 71.9417 58.7187 74.8431 62.3937 76.6806C63.9442 77.4558 65.2709 77.9384 66.6715 78.4479C68.5908 79.1461 70.649 79.8948 73.6122 81.5161C77.7128 83.7599 85.1209 92.0577 88.3124 95.9262H11.5235C14.7149 92.0577 22.123 83.7599 26.2236 81.5161C29.1868 79.8948 31.245 79.1461 33.1643 78.4479C34.565 77.9384 35.8917 77.4558 37.4421 76.6806C41.1172 74.8431 42.6646 71.9417 42.858 69.9108C43.0127 68.286 42.9224 64.4627 42.858 62.7541Z" fill="#F7B1A8"/>
<mask id="mask1_1_611" style="mask-type:alpha" maskUnits="userSpaceOnUse" x="11" y="64" width="78" height="34">
<path d="M42.858 64.7072H56.9778C56.9134 66.4158 56.8231 70.2391 56.9778 71.8639C57.1713 73.8948 58.7187 76.7962 62.3937 78.6337C63.9442 79.4089 65.2709 79.8915 66.6715 80.401C68.5908 81.0992 70.649 81.8479 73.6122 83.4693C77.7128 85.713 85.1209 94.0108 88.3124 97.8793H11.5235C14.7149 94.0108 22.123 85.713 26.2236 83.4693C29.1868 81.8479 31.245 81.0992 33.1643 80.401C34.565 79.8915 35.8917 79.4089 37.4421 78.6337C41.1172 76.7962 42.6646 73.8948 42.858 71.8639C43.0127 70.2391 42.9224 66.4158 42.858 64.7072Z" fill="#FFA39C"/>
</mask>
<g mask="url(#mask1_1_611)">
<path d="M34.557 17.6669C33.5872 21.0389 31.4381 28.511 31.2606 40.3509C30.9882 58.5148 36.0272 62.9376 40.8421 67.1636C41.1636 67.4458 41.4842 67.7272 41.8021 68.0117C45.0789 70.9443 48.3129 71.6054 49.7042 71.7539C51.0956 71.6054 54.3296 70.9443 57.6064 68.0117C57.9243 67.7272 58.2448 67.4458 58.5664 67.1636C63.3812 62.9376 68.4202 58.5148 68.1479 40.3509C67.9703 28.511 65.8212 21.0389 64.8514 17.6669C64.5485 16.6139 64.3607 15.9607 64.3838 15.6992H35.0247C35.0478 15.9607 34.8599 16.6139 34.557 17.6669Z" fill="#E7ABA4"/>
</g>
<path d="M34.5571 19.6201C33.5872 22.9921 31.4382 24.6048 31.2606 36.4447C30.9883 54.6086 36.0273 59.0313 40.8421 63.2574C41.1637 63.5396 41.4842 63.821 41.8021 64.1055C45.0789 67.0381 48.3129 67.6992 49.7043 67.8477C51.0956 67.6992 54.3296 67.0381 57.6064 64.1055C57.9243 63.821 58.2449 63.5396 58.5664 63.2574C63.3813 59.0313 68.4202 54.6086 68.1479 36.4447C67.9703 24.6047 65.8213 22.9921 64.8514 19.6201C64.5486 18.567 64.3607 17.9138 64.3838 17.6524H35.0247C35.0478 17.9138 34.8599 18.567 34.5571 19.6201Z" fill="#FFBBB2"/>
<path fill-rule="evenodd" clip-rule="evenodd" d="M48.0787 53.3945C47.7072 53.3945 47.4018 53.5198 47.1258 53.7058C46.8579 53.8863 46.604 54.1338 46.3362 54.3949L46.3277 54.4032C46.109 54.6164 45.876 54.8433 45.6052 55.0698C45.1887 55.418 44.5407 55.8112 44.0053 56.1356C44.0053 56.1356 43.1641 56.4506 43.1641 56.5502C43.1641 56.6498 43.6082 56.8384 43.6082 56.8384C43.7331 56.9041 43.8744 56.9937 44.022 57.0991C44.3173 57.3098 44.6259 57.5744 44.8626 57.8119C44.9738 57.9235 45.0827 58.0665 45.2028 58.233C45.2308 58.2718 45.2595 58.312 45.2888 58.353C45.3825 58.4844 45.4829 58.6252 45.5916 58.7635C45.8776 59.1274 46.2414 59.5022 46.7743 59.725C47.7823 60.1464 48.4956 60.2305 49.5866 60.2305C49.6286 60.2305 49.6693 60.2279 49.7086 60.2227C49.7479 60.2279 49.7886 60.2305 49.8306 60.2305C50.9216 60.2305 51.635 60.1464 52.6429 59.725C53.1758 59.5022 53.5396 59.1274 53.8256 58.7635C53.9343 58.6252 54.0348 58.4843 54.1285 58.353C54.1577 58.3119 54.1864 58.2718 54.2144 58.233C54.3345 58.0665 54.4434 57.9235 54.5546 57.8119C54.7913 57.5744 55.1 57.3098 55.3952 57.0991C55.5429 56.9937 55.6841 56.9041 55.809 56.8384C55.809 56.8384 56.2501 56.7311 56.2501 56.6024C56.2501 56.4736 55.5668 56.138 55.5668 56.138L55.5628 56.1356C55.0274 55.8112 54.3794 55.418 53.9629 55.0698C53.6921 54.8433 53.4592 54.6164 53.2405 54.4032L53.232 54.3949C52.9641 54.1338 52.7102 53.8863 52.4424 53.7058C52.1663 53.5198 51.8609 53.3945 51.4894 53.3945C51.0176 53.3945 50.7023 53.5721 50.4429 53.7181L50.4334 53.7235C50.1997 53.855 50.021 53.9517 49.7841 53.9631C49.5471 53.9517 49.3684 53.855 49.1347 53.7235L49.1253 53.7181C48.8658 53.5721 48.5505 53.3945 48.0787 53.3945ZM48.4383 57.1789C48.0463 57.056 47.6196 56.9255 47.2107 56.8147C47.2224 56.8127 47.2339 56.8107 47.245 56.8086C47.6173 56.7395 48.003 56.6149 48.3681 56.4969L48.3759 56.4944C48.9018 56.3245 49.3765 56.1733 49.7841 56.1621C50.1916 56.1733 50.6663 56.3245 51.1923 56.4944L51.2 56.4969C51.5472 56.6091 51.913 56.7273 52.2683 56.7981C51.8408 56.9123 51.3907 57.0498 50.9789 57.1789C50.85 57.2193 50.7253 57.2588 50.6062 57.2965C50.6062 57.2965 49.928 57.5743 49.7086 57.5743C49.4893 57.5743 48.811 57.2964 48.811 57.2964C48.6919 57.2588 48.5672 57.2193 48.4383 57.1789Z" fill="#88090F"/>
<path d="M47.2107 56.8147C47.6196 56.9255 48.0463 57.056 48.4383 57.1789C48.5672 57.2193 48.6919 57.2588 48.811 57.2964C48.811 57.2964 49.4893 57.5743 49.7086 57.5743C49.928 57.5743 50.6062 57.2965 50.6062 57.2965C50.7253 57.2588 50.85 57.2193 50.9789 57.1789C51.3907 57.0498 51.8408 56.9123 52.2683 56.7981C51.913 56.7273 51.5472 56.6091 51.2 56.4969L51.1923 56.4944C50.6663 56.3245 50.1916 56.1733 49.7841 56.1621C49.3765 56.1733 48.9018 56.3245 48.3759 56.4944L48.3681 56.4969C48.003 56.6149 47.6173 56.7395 47.245 56.8086C47.2339 56.8107 47.2224 56.8127 47.2107 56.8147Z" fill="#88090F"/>
<path d="M48.1539 46.5109C48.5041 46.194 48.8821 45.8115 49.8805 45.7774C50.8789 45.7432 51.6072 46.5109 51.6072 46.5109C52.2324 47.0767 52.3802 48.3669 52.1732 48.3669C52.053 48.3669 51.8354 48.1569 51.6221 47.9511C51.4685 47.8029 51.3171 47.6568 51.2061 47.5932C50.8801 47.4062 50.4508 47.0531 49.8805 47.0469C49.3102 47.0531 48.881 47.4062 48.555 47.5932C48.444 47.6568 48.2926 47.8029 48.1389 47.9511L48.1389 47.9511C47.9257 48.1569 47.7081 48.3669 47.5878 48.3669C47.3809 48.3669 47.5287 47.0767 48.1539 46.5109Z" fill="#E3A39B"/>
<circle cx="41.6547" cy="40.3672" r="1.75781" fill="#451F21"/>
<path d="M39.101 37.8655C39.6994 37.768 40.1236 37.6989 41.19 37.8299C42.2236 37.9568 42.5405 38.0588 43.2294 38.3174C43.5778 38.4482 44.3425 38.8694 44.5723 39.1347L44.5739 39.1365C44.7863 39.3818 45.032 39.6654 45.0131 39.8193C44.6371 39.6758 44.6812 39.5746 44.1587 39.2979C43.6659 39.0369 42.3894 38.7478 41.4846 38.6367C40.8796 38.5624 40.1291 38.6068 39.6979 38.6771C39.6214 38.6895 39.5389 38.7041 39.45 38.7197C39.0222 38.7952 38.8278 38.9032 37.7794 38.8931C37.4435 38.8898 36.7382 38.8245 36.0991 38.6868C35.46 38.549 34.6849 38.31 34.5738 38.2983C34.6272 38.304 36.3302 38.4137 36.9292 38.3371C37.729 38.2348 38.5777 37.9624 39.0861 37.8679L39.101 37.8655Z" fill="#451F21"/>
<circle r="1.75781" transform="matrix(-1 0 0 1 58.1409 40.3672)" fill="#451F21"/>
<path d="M60.7039 37.8667C60.1054 37.7685 59.6812 37.6989 58.6148 37.8299C57.5812 37.9568 57.2643 38.059 56.5755 38.3184C56.2271 38.4495 55.4626 38.8721 55.2329 39.1384L55.2314 39.1401C55.019 39.3863 54.7735 39.671 54.7925 39.8255C55.1684 39.6816 55.1243 39.58 55.6467 39.3024C56.1393 39.0406 57.4158 38.7509 58.3206 38.6398C58.9256 38.5655 59.6762 38.6105 60.1074 38.6813C60.1839 38.6938 60.2664 38.7085 60.3553 38.7243L60.3554 38.7243C60.7832 38.8002 60.9777 38.9088 62.0261 38.8991C62.3621 38.896 63.0674 38.8308 63.7065 38.6928C64.3455 38.5548 65.1205 38.3153 65.2317 38.3036C65.1782 38.3092 63.4752 38.4186 62.8761 38.3413C62.0762 38.2382 61.2273 37.9643 60.7188 37.8691L60.7039 37.8667Z" fill="#451F21"/>
<path d="M60.0587 33.2121C58.9506 33.2121 58.4278 33.1511 57.8485 33.2121C56.893 33.3127 56.3525 33.347 55.7618 33.4727C55.466 33.5356 54.8732 33.5889 54.7081 33.6306C54.2458 33.7626 53.9782 34.4397 54.1103 34.9019C54.2423 35.364 54.7238 35.4363 55.1859 35.3045L55.1861 35.3044L55.1863 35.3044L55.1872 35.3041C56.1077 35.1012 56.4396 35.006 57.5196 34.9529C58.5569 34.9019 58.9812 34.9019 59.7657 34.9019C60.3346 34.9019 60.9376 34.9019 61.7188 34.9529C62.357 34.9946 63.2416 35.0027 63.6512 35.1328C64.0608 35.263 64.2315 35.3322 65.0052 35.6223C64.6183 35.0421 64.5216 35.1407 63.6512 34.316C63.1676 33.9801 63.0916 33.8245 62.4024 33.5938C61.704 33.36 60.9192 33.2121 60.0587 33.2121Z" fill="#4E0609"/>
<path d="M39.6871 33.2121C40.7951 33.2121 41.3179 33.1511 41.8972 33.2121C42.8528 33.3127 43.3932 33.347 43.984 33.4727C44.2798 33.5356 44.8726 33.5889 45.0377 33.6305C45.4999 33.7626 45.7676 34.4397 45.6355 34.9019C45.5035 35.364 45.022 35.4363 44.5599 35.3045L44.5597 35.3044L44.5595 35.3044L44.5585 35.3041C43.6381 35.1012 43.3061 35.006 42.2262 34.9529C41.1888 34.9019 40.7646 34.9019 39.9801 34.9019C39.4112 34.9019 38.8082 34.9019 38.0269 34.9529C37.3887 34.9946 36.5042 35.0027 36.0946 35.1328C35.685 35.263 35.5143 35.3322 34.7406 35.6223C35.1274 35.0421 35.2242 35.1407 36.0946 34.316C36.5781 33.9801 36.6541 33.8245 37.3433 33.5938C38.0418 33.36 38.8266 33.2121 39.6871 33.2121Z" fill="#4E0609"/>
<path d="M35.3516 37.2813C42.2852 33.2774 51.6602 18.6289 56.4453 21.9492C61.2305 25.2696 59.4727 25.5625 62.8907 32.3985C65.5452 37.7075 69.336 45.5821 72.8516 45.5821C72.297 39.5886 68.8421 17.0384 64.9276 13.554C60.0345 9.19845 49.9546 7.96997 39.8748 11.097C31.8109 13.5986 26.4356 34.7468 24.9024 41.9688C29.4922 42.3594 28.418 41.2852 35.3516 37.2813Z" fill="#5F090D"/>
</g>
</svg>
