<svg width="100" height="92" viewBox="0 0 100 92" fill="none" xmlns="http://www.w3.org/2000/svg">
<mask id="mask0_1_816" style="mask-type:alpha" maskUnits="userSpaceOnUse" x="0" y="0" width="100" height="92">
<path d="M94.7099 51.7367C88.1579 61.9725 88.0001 75 80.5001 81.5C73.0001 88 61.0001 91.1593 50.0001 91C39 90.8407 27.0001 88 20.5001 83.5C14.0001 79 10.7098 67 8.00006 51.7367C8.00001 41.5 -1.20734 34.6156 0.925011 25.8068C5.48094 5.74112 14.0793 1.46484 36.0352 0H61.5402C88.4766 2.44141 94.5192 5.74112 99.0751 25.8068C101.207 34.6156 99.6123 44.0897 94.7099 51.7367Z" fill="#C4C4C4"/>
</mask>
<g mask="url(#mask0_1_816)">
<path d="M9.00018 89L33.715 40.7266L74.8283 48.6367L85.0002 85.5L9.00018 89Z" fill="#985262"/>
<path d="M43.8581 59.7541H57.978C57.9135 61.4627 57.8233 65.286 57.978 66.9108C58.1714 68.9417 59.7188 71.8431 63.3938 73.6806C64.9443 74.4558 66.271 74.9384 67.6717 75.4479C69.591 76.1461 71.6492 76.8948 74.6124 78.5162C78.7129 80.7599 86.121 89.0577 89.3125 92.9262H12.5236C15.7151 89.0577 23.1232 80.7599 27.2238 78.5162C30.187 76.8948 32.2452 76.1461 34.1645 75.4479C35.5651 74.9384 36.8918 74.4558 38.4423 73.6806C42.1173 71.8431 43.6647 68.9417 43.8581 66.9108C44.0129 65.286 43.9226 61.4627 43.8581 59.7541Z" fill="#FFA39C"/>
<mask id="mask1_1_816" style="mask-type:alpha" maskUnits="userSpaceOnUse" x="12" y="61" width="78" height="34">
<path d="M43.8581 61.7072H57.978C57.9135 63.4158 57.8233 67.2391 57.978 68.8639C58.1714 70.8948 59.7188 73.7962 63.3938 75.6337C64.9443 76.4089 66.271 76.8915 67.6717 77.401C69.591 78.0992 71.6492 78.8479 74.6124 80.4693C78.7129 82.713 86.121 91.0108 89.3125 94.8793H12.5236C15.7151 91.0108 23.1232 82.713 27.2238 80.4693C30.187 78.8479 32.2452 78.0992 34.1645 77.401C35.5651 76.8915 36.8918 76.4089 38.4423 75.6337C42.1173 73.7962 43.6647 70.8948 43.8581 68.8639C44.0129 67.2391 43.9226 63.4158 43.8581 61.7072Z" fill="#FFA39C"/>
</mask>
<g mask="url(#mask1_1_816)">
<path d="M35.5572 14.6669C34.5874 18.0389 32.4383 25.511 32.2608 37.3509C31.9884 55.5148 37.0274 59.9376 41.8422 64.1636C42.1638 64.4458 42.4843 64.7272 42.8022 65.0117C46.079 67.9443 49.313 68.6054 50.7044 68.7539C52.0957 68.6054 55.3297 67.9443 58.6065 65.0117C58.9244 64.7272 59.245 64.4458 59.5665 64.1636C64.3814 59.9376 69.4204 55.5148 69.148 37.3509C68.9705 25.511 66.8214 18.0389 65.8516 14.6669C65.5487 13.6139 65.3608 12.9607 65.3839 12.6992H36.0248C36.0479 12.9607 35.8601 13.6139 35.5572 14.6669Z" fill="#F29891"/>
</g>
<path d="M35.5572 10.7607C34.5874 14.1327 32.4383 21.6047 32.2608 33.4446C31.9884 51.6085 37.0274 56.0313 41.8422 60.2574C42.1638 60.5396 42.4843 60.821 42.8022 61.1055C46.079 64.038 49.313 64.6992 50.7044 64.8477C52.0957 64.6992 55.3297 64.038 58.6065 61.1055C58.9244 60.821 59.245 60.5396 59.5665 60.2574C64.3814 56.0313 69.4204 51.6085 69.148 33.4446C68.9705 21.6047 66.8214 14.1327 65.8516 10.7607C65.5487 9.70763 65.3608 9.05445 65.3839 8.79297H36.0248C36.0479 9.05445 35.8601 9.70763 35.5572 10.7607Z" fill="#FFB3A9"/>
<path fill-rule="evenodd" clip-rule="evenodd" d="M49.0788 50.3945C48.7073 50.3945 48.4019 50.5198 48.1259 50.7058C47.858 50.8863 47.6042 51.1338 47.3363 51.3949L47.3278 51.4032C47.1091 51.6164 46.8762 51.8433 46.6053 52.0698C46.1889 52.418 45.5408 52.8112 45.0054 53.1355C45.0054 53.1355 44.1642 53.4506 44.1642 53.5502C44.1642 53.6497 44.6084 53.8384 44.6084 53.8384C44.7332 53.904 44.8745 53.9937 45.0221 54.0991C45.3174 54.3097 45.626 54.5744 45.8627 54.8119C45.9739 54.9235 46.0829 55.0665 46.203 55.233C46.2309 55.2718 46.2596 55.312 46.2889 55.353C46.3826 55.4843 46.483 55.6252 46.5917 55.7635C46.8777 56.1273 47.2416 56.5022 47.7745 56.725C48.7824 57.1464 49.4957 57.2305 50.5867 57.2305C50.6287 57.2305 50.6694 57.2279 50.7087 57.2227C50.748 57.2279 50.7887 57.2305 50.8308 57.2305C51.9217 57.2305 52.6351 57.1464 53.643 56.725C54.1759 56.5022 54.5397 56.1273 54.8257 55.7635C54.9344 55.6252 55.0349 55.4843 55.1286 55.353C55.1579 55.3119 55.1865 55.2718 55.2145 55.233C55.3346 55.0665 55.4435 54.9235 55.5547 54.8119C55.7915 54.5744 56.1001 54.3097 56.3953 54.0991C56.543 53.9937 56.6843 53.904 56.8091 53.8384C56.8091 53.8384 57.2502 53.7311 57.2502 53.6023C57.2502 53.4736 56.567 53.138 56.567 53.138L56.563 53.1355C56.0275 52.8112 55.3795 52.418 54.9631 52.0698C54.6922 51.8433 54.4593 51.6164 54.2406 51.4032L54.2321 51.3949C53.9642 51.1338 53.7103 50.8863 53.4425 50.7058C53.1665 50.5198 52.8611 50.3945 52.4895 50.3945C52.0177 50.3945 51.7024 50.5721 51.443 50.7181L51.4335 50.7234C51.1998 50.855 51.0212 50.9517 50.7842 50.9631C50.5472 50.9517 50.3685 50.855 50.1348 50.7234L50.1254 50.7181C49.8659 50.5721 49.5506 50.3945 49.0788 50.3945ZM49.4384 54.1789C49.0464 54.056 48.6197 53.9255 48.2109 53.8147C48.2226 53.8127 48.234 53.8107 48.2451 53.8086C48.6175 53.7394 49.0031 53.6149 49.3682 53.4969L49.376 53.4944C49.9019 53.3245 50.3766 53.1733 50.7842 53.1621C51.1918 53.1733 51.6665 53.3245 52.1924 53.4944L52.2001 53.4969C52.5474 53.6091 52.9131 53.7272 53.2684 53.7981C52.8409 53.9123 52.3909 54.0498 51.979 54.1789C51.8502 54.2193 51.7254 54.2588 51.6063 54.2964C51.6063 54.2964 50.9281 54.5743 50.7087 54.5743C50.4894 54.5743 49.8111 54.2964 49.8111 54.2964C49.692 54.2588 49.5673 54.2193 49.4384 54.1789Z" fill="#FF6C73"/>
<path d="M52.6073 43.5109C52.2571 43.194 51.8791 42.8115 50.8806 42.7773C49.8822 42.7432 49.154 43.5109 49.154 43.5109C48.5288 44.0767 48.381 45.3668 48.588 45.3668C48.7082 45.3668 48.9258 45.1569 49.139 44.9511C49.2927 44.8029 49.4441 44.6568 49.5551 44.5931C49.8811 44.4061 50.3104 44.0531 50.8806 44.0469C51.4509 44.0531 51.8802 44.4061 52.2062 44.5931C52.3172 44.6568 52.4686 44.8029 52.6222 44.9511C52.8355 45.1569 53.0531 45.3668 53.1733 45.3668C53.3803 45.3668 53.2325 44.0767 52.6073 43.5109Z" fill="#FF6C73"/>
<circle cx="42.826" cy="37.3431" r="1.73373" fill="#451F21"/>
<path d="M40.0113 34.942C40.5933 34.6124 41.0059 34.3789 42.0804 34.3789C43.1217 34.3789 43.4487 34.5005 44.164 34.8359C44.5257 35.0056 45.336 35.6365 45.5965 36.0935L45.5982 36.0965C45.839 36.5191 46.1174 37.0076 46.1174 37.3086C45.7267 37.1211 45.7581 36.9156 45.2058 36.5059C44.6849 36.1195 43.3826 35.8643 42.471 35.8643C41.8615 35.8643 41.122 36.1275 40.7026 36.365C40.6282 36.4071 40.5481 36.4546 40.4617 36.5059L40.4617 36.5059C40.0464 36.7526 39.8665 37.0069 38.8247 37.2354C38.4909 37.3086 37.7829 37.3496 37.1318 37.2354C36.4806 37.1211 35.6822 36.8439 35.5705 36.8477C35.6243 36.8459 37.3279 36.6544 37.9131 36.365C38.6945 35.9785 39.5037 35.2526 39.9967 34.9502L40.0113 34.942Z" fill="#451F21"/>
<ellipse rx="1.73372" ry="1.73373" transform="matrix(-1 0 0 1 58.9698 37.3431)" fill="#451F21"/>
<path d="M61.7938 34.942C61.2117 34.6125 60.7992 34.3789 59.7247 34.3789C58.6834 34.3789 58.3564 34.5005 57.6411 34.8359C57.2794 35.0056 56.469 35.6365 56.2086 36.0935L56.2069 36.0966C55.9661 36.5191 55.6877 37.0076 55.6877 37.3086C56.0784 37.1211 56.047 36.9156 56.5993 36.5059C57.1202 36.1195 58.4224 35.8643 59.334 35.8643C59.9436 35.8643 60.683 36.1275 61.1025 36.365C61.1769 36.4071 61.257 36.4546 61.3433 36.5059L61.3433 36.5059C61.7587 36.7526 61.9385 37.0069 62.9803 37.2354C63.3141 37.3086 64.0222 37.3496 64.6733 37.2354C65.3244 37.1211 66.1228 36.8439 66.2346 36.8477C66.1808 36.8459 64.4772 36.6544 63.8919 36.365C63.1106 35.9785 62.3014 35.2527 61.8083 34.9502L61.7938 34.942Z" fill="#451F21"/>
<path d="M40.7447 29.3624C41.7305 29.1734 42.3117 29.1746 42.891 29.2355C43.8465 29.3361 44.4761 29.4916 45.0668 29.6173C45.3566 29.6789 45.8458 29.8024 46.0209 29.8466L46.0315 29.8493C46.4937 29.9814 46.7613 30.4631 46.6293 30.9253C46.4973 31.3874 46.0157 31.655 45.5536 31.5232L45.5535 31.5232L45.5532 31.5231L45.5523 31.5229C44.6318 31.32 44.0516 31.1698 42.9877 30.9763C42.0497 30.8058 41.7305 30.7955 40.9568 30.9253C40.3452 31.028 39.7963 31.1136 39.0226 31.32C38.4046 31.4847 37.7881 31.7166 37.3785 31.8467C36.9689 31.9769 36.5081 32.1369 35.7344 32.427C36.1212 31.8467 36.2179 31.75 37.0883 30.9253C37.5719 30.5895 37.8938 30.3272 38.6357 30.0092C39.3127 29.7191 39.893 29.5257 40.7447 29.3624Z" fill="#814654"/>
<path d="M60.9949 29.3624C60.0091 29.1734 59.4279 29.1745 58.8486 29.2355C57.8931 29.3361 57.2635 29.4916 56.6728 29.6172C56.3831 29.6789 55.8939 29.8024 55.7188 29.8466L55.7081 29.8493C55.2459 29.9813 54.9783 30.4631 55.1104 30.9253C55.2424 31.3874 55.7239 31.655 56.186 31.5232L56.1862 31.5232L56.1864 31.5231L56.1873 31.5228C57.1078 31.3199 57.6881 31.1698 58.7519 30.9763C59.6899 30.8058 60.0091 30.7955 60.7828 30.9253C61.3944 31.028 61.9434 31.1136 62.7171 31.3199C63.335 31.4847 63.9516 31.7166 64.3612 31.8467C64.7708 31.9769 65.2316 32.1369 66.0052 32.427C65.6184 31.8467 65.5217 31.75 64.6513 30.9253C64.1677 30.5895 63.8458 30.3272 63.1039 30.0092C62.4269 29.7191 61.8467 29.5257 60.9949 29.3624Z" fill="#814654"/>
<path d="M36.3618 42.6551C32.8802 51.1657 34.8144 54.9595 36.3618 62.4063C37.1538 66.2178 26.4372 72.823 25.6095 75.8828C24.8202 78.8012 17.1975 77.6201 18.0001 80.5C18.434 82.0571 16.154 86.0078 16.5275 87C17.5691 89.7671 36.0246 90.1005 34.8144 95.653C33.1703 103.197 16.6327 100.585 13.4412 92.2681C10.4866 84.5682 9.26922 80.4926 13.5978 69.6328C15.217 65.5706 12.9454 58.4584 16.5275 54.2031C20.1096 49.9478 22.4973 46.4745 22.2892 40.3359C22.2892 40.3359 21.2607 30.3614 22.2892 25.4786C23.5451 19.5166 28.6249 10.8371 36.3618 7.16202C44.0987 3.48698 55.8008 0.779063 64.8917 7.16202C70.3925 11.0243 74.4416 18.9233 76.3531 27.688C77.6007 33.4081 83.307 38.4709 82.5431 44.0469C80.6089 58.1668 79.2644 60.0357 83.5197 67.2891C87.2614 73.6669 84.9004 79.0703 82.6322 85.8704C82.8399 90.1361 80.5036 92.8899 81.7195 88.7558C82.0113 87.7636 82.3209 86.8038 82.6322 85.8704C82.5096 83.3504 81.4991 80.3028 78.3439 77.836C69.8478 71.1935 66.1369 75.5899 63.5002 68.7539C60.8634 61.918 63.5002 59.9649 66.1369 56.6445C68.7736 53.3242 67.9924 46.9766 67.9924 42.6551C67.9924 38.3337 67.9924 30.4727 66.1369 27.688C64.2814 24.9033 60.9611 24.0273 58.715 21.572C56.4689 19.1167 54.1567 13.2548 50.4817 13.545C50.1784 13.5689 49.8884 13.5867 49.6089 13.6038L49.6088 13.6038C46.5005 13.7941 44.6765 13.9057 40.1336 21.572C36.6473 27.4551 36.9963 30.6995 37.344 33.9321C37.6136 36.4387 37.8824 38.9381 36.3618 42.6551Z" fill="#985262"/>
</g>
</svg>
