<svg width="100" height="100" viewBox="0 0 100 100" fill="none" xmlns="http://www.w3.org/2000/svg">
<mask id="mask0_1_845" style="mask-type:alpha" maskUnits="userSpaceOnUse" x="0" y="0" width="100" height="92">
<path d="M94.7099 51.7367C88.1579 61.9725 88.0001 75 80.5001 81.5C73.0001 88 61.0001 91.1593 50.0001 91C39 90.8407 27.0001 88 20.5001 83.5C14.0001 79 10.7098 67 8.00006 51.7367C8.00001 41.5 -1.20734 34.6156 0.925011 25.8068C5.48094 5.74112 14.0793 1.46484 36.0352 0H61.5402C88.4766 2.44141 94.5192 5.74112 99.0751 25.8068C101.207 34.6156 99.6123 44.0897 94.7099 51.7367Z" fill="#C4C4C4"/>
</mask>
<g mask="url(#mask0_1_845)">
<path d="M22.5485 87.1338L28.3728 47.4821L48.6606 55.2136L43.6129 85.477L22.5485 87.1338Z" fill="#E4C1BE"/>
<path d="M74.5298 66.8904C70.2745 59.637 74.2397 58.6699 76.1739 44.5501C76.9377 38.974 76.6006 32.9159 75.353 27.1958L67.8711 35.4492L52.5763 58.6699L49.4815 71.4358L57.5086 95.1301C64.4396 95.5815 78.7851 94.84 80.7193 88.2636C83.1371 80.0432 78.7851 74.1438 74.5298 66.8904Z" fill="#FCD7D4"/>
<path d="M42.8579 59.2619H56.9778C56.9133 60.9705 56.8231 64.7938 56.9778 66.4186C57.1712 68.4495 58.7186 71.3509 62.3937 73.1884C63.9441 73.9636 65.2708 74.4462 66.6715 74.9557C68.5908 75.6539 70.649 76.4026 73.6122 78.024C77.7128 80.2677 85.1208 88.5655 88.3123 92.434H11.5234C14.7149 88.5655 22.123 80.2677 26.2236 78.024C29.1868 76.4026 31.245 75.6539 33.1643 74.9557C34.5649 74.4462 35.8916 73.9636 37.4421 73.1884C41.1171 71.3509 42.6645 68.4495 42.8579 66.4186C43.0127 64.7938 42.9224 60.9705 42.8579 59.2619Z" fill="#FFA39C"/>
<mask id="mask1_1_845" style="mask-type:alpha" maskUnits="userSpaceOnUse" x="11" y="61" width="78" height="34">
<path d="M42.8579 61.2151H56.9778C56.9133 62.9236 56.8231 66.747 56.9778 68.3717C57.1712 70.4026 58.7186 73.304 62.3937 75.1415C63.9441 75.9167 65.2708 76.3993 66.6715 76.9089C68.5908 77.607 70.649 78.3557 73.6122 79.9771C77.7128 82.2208 85.1208 90.5186 88.3123 94.3871H11.5234C14.7149 90.5186 22.123 82.2208 26.2236 79.9771C29.1868 78.3557 31.245 77.607 33.1643 76.9089C34.5649 76.3993 35.8916 75.9167 37.4421 75.1415C41.1171 73.304 42.6645 70.4026 42.8579 68.3717C43.0127 66.747 42.9224 62.9236 42.8579 61.2151Z" fill="#FFA39C"/>
</mask>
<g mask="url(#mask1_1_845)">
<path d="M34.557 14.1747C33.5872 17.5467 31.4381 25.0188 31.2606 36.8587C30.9882 55.0226 36.0272 59.4454 40.8421 63.6714C41.1636 63.9537 41.4841 64.235 41.802 64.5195C45.0788 67.4521 48.3128 68.1132 49.7042 68.2617C51.0956 68.1132 54.3296 67.4521 57.6064 64.5195C57.9243 64.235 58.2448 63.9537 58.5663 63.6714C63.3812 59.4454 68.4202 55.0226 68.1478 36.8587C67.9703 25.0188 65.8212 17.5467 64.8514 14.1747C64.5485 13.1217 64.3606 12.4685 64.3837 12.207H35.0246C35.0477 12.4685 34.8599 13.1217 34.557 14.1747Z" fill="#F29891"/>
</g>
<path d="M66.1346 48.4196C67.7304 47.2435 70.0432 45.3904 71.0559 43.8548C71.8136 42.7076 72.1298 41.2464 71.9214 39.8556C71.4885 36.6902 68.0641 35.1886 65.7459 37.1427C65.6155 37.2518 65.494 37.3743 65.3692 37.5C65.3183 37.5513 65.2669 37.6032 65.214 37.6549C65.1682 37.5968 65.1238 37.5388 65.0798 37.4814C64.9721 37.3408 64.8672 37.2039 64.7519 37.079C62.7021 34.845 59.114 35.8971 58.2806 38.9814C57.8963 40.3342 58.0234 41.8238 58.6285 43.0583C59.4369 44.7107 61.4943 46.8439 62.9269 48.214C63.326 48.5959 64.4487 49.5958 64.4487 49.5958C64.4487 49.5958 65.6899 48.7474 66.1346 48.4196Z" fill="#FFA39C"/>
<path d="M34.557 10.2685C33.5872 13.6405 31.4381 21.1125 31.2606 32.9524C30.9882 51.1163 36.0272 55.5391 40.8421 59.7652C41.1636 60.0474 41.4841 60.3288 41.802 60.6133C45.0788 63.5458 48.3128 64.207 49.7042 64.3555C51.0956 64.207 54.3296 63.5458 57.6064 60.6133C57.9243 60.3288 58.2448 60.0474 58.5663 59.7652C63.3812 55.5391 68.4202 51.1163 68.1478 32.9524C67.9703 21.1125 65.8212 13.6405 64.8514 10.2685C64.5485 9.21544 64.3606 8.56226 64.3837 8.30078H35.0246C35.0477 8.56226 34.8599 9.21545 34.557 10.2685Z" fill="#FFB3A9"/>
<path fill-rule="evenodd" clip-rule="evenodd" d="M48.0787 49.9023C47.7071 49.9023 47.4017 50.0276 47.1257 50.2136C46.8579 50.3941 46.604 50.6416 46.3361 50.9027L46.3276 50.911C46.1089 51.1242 45.876 51.3511 45.6051 51.5776C45.1887 51.9258 44.5406 52.319 44.0052 52.6434C44.0052 52.6434 43.1641 52.9584 43.1641 53.058C43.1641 53.1576 43.6082 53.3462 43.6082 53.3462C43.733 53.4119 43.8743 53.5015 44.0219 53.6069C44.3172 53.8175 44.6258 54.0822 44.8625 54.3197C44.9738 54.4313 45.0827 54.5743 45.2028 54.7408C45.2308 54.7796 45.2594 54.8198 45.2887 54.8608C45.3824 54.9922 45.4828 55.133 45.5915 55.2713C45.8775 55.6352 46.2414 56.01 46.7743 56.2328C47.7822 56.6542 48.4955 56.7383 49.5865 56.7383C49.6285 56.7383 49.6692 56.7357 49.7085 56.7305C49.7479 56.7357 49.7885 56.7383 49.8306 56.7383C50.9216 56.7383 51.6349 56.6542 52.6428 56.2328C53.1757 56.01 53.5396 55.6352 53.8256 55.2713C53.9342 55.133 54.0347 54.9921 54.1284 54.8608C54.1577 54.8197 54.1863 54.7796 54.2143 54.7408C54.3344 54.5743 54.4433 54.4313 54.5545 54.3197C54.7913 54.0822 55.0999 53.8175 55.3951 53.6069C55.5428 53.5015 55.6841 53.4119 55.8089 53.3462C55.8089 53.3462 56.25 53.2389 56.25 53.1102C56.25 52.9814 55.5668 52.6458 55.5668 52.6458L55.5628 52.6434C55.0274 52.319 54.3793 51.9258 53.9629 51.5776C53.692 51.3511 53.4591 51.1242 53.2404 50.911L53.2319 50.9027C52.964 50.6416 52.7101 50.3941 52.4423 50.2136C52.1663 50.0276 51.8609 49.9023 51.4893 49.9023C51.0176 49.9023 50.7022 50.0799 50.4428 50.2259L50.4334 50.2313C50.1997 50.3628 50.021 50.4595 49.784 50.4709C49.547 50.4595 49.3683 50.3628 49.1346 50.2313L49.1252 50.2259C48.8658 50.0799 48.5504 49.9023 48.0787 49.9023ZM48.4383 53.6867C48.0462 53.5638 47.6195 53.4333 47.2107 53.3225C47.2224 53.3205 47.2338 53.3185 47.2449 53.3164C47.6173 53.2473 48.0029 53.1227 48.368 53.0047L48.3758 53.0022C48.9017 52.8323 49.3764 52.6811 49.784 52.6699C50.1916 52.6811 50.6663 52.8323 51.1922 53.0022L51.1999 53.0047C51.5472 53.1169 51.9129 53.235 52.2682 53.3059C51.8407 53.4201 51.3907 53.5576 50.9788 53.6867C50.85 53.7271 50.7252 53.7666 50.6061 53.8043C50.6061 53.8043 49.9279 54.0821 49.7085 54.0821C49.4892 54.0821 48.8109 53.8042 48.8109 53.8042C48.6918 53.7666 48.5671 53.7271 48.4383 53.6867Z" fill="#FF6C73"/>
<path d="M51.6072 43.0187C51.257 42.7018 50.8789 42.3193 49.8805 42.2851C48.8821 42.251 48.1539 43.0187 48.1539 43.0187C47.5287 43.5845 47.3809 44.8746 47.5878 44.8746C47.7081 44.8746 47.9257 44.6647 48.1389 44.4589C48.2926 44.3107 48.4439 44.1646 48.5549 44.1009C48.8809 43.9139 49.3102 43.5609 49.8805 43.5547C50.4508 43.5609 50.8801 43.9139 51.2061 44.1009C51.3171 44.1646 51.4685 44.3107 51.6221 44.4589C51.8353 44.6647 52.053 44.8746 52.1732 44.8746C52.3802 44.8746 52.2324 43.5845 51.6072 43.0187Z" fill="#FF6C73"/>
<ellipse cx="41.8258" cy="36.8509" rx="1.73373" ry="1.73373" fill="#451F21"/>
<path d="M39.0111 34.4498C39.5932 34.1203 40.0057 33.8867 41.0802 33.8867C42.1215 33.8867 42.4485 34.0083 43.1638 34.3438C43.5255 34.5134 44.3358 35.1443 44.5963 35.6013L44.598 35.6044C44.8388 36.0269 45.1172 36.5154 45.1172 36.8164C44.7265 36.6289 44.7579 36.4234 44.2056 36.0137C43.6847 35.6273 42.3824 35.3721 41.4709 35.3721C40.8613 35.3721 40.1218 35.6353 39.7024 35.8728C39.628 35.9149 39.5479 35.9624 39.4616 36.0137L39.4616 36.0137C39.0462 36.2604 38.8663 36.5147 37.8245 36.7432C37.4907 36.8164 36.7827 36.8575 36.1316 36.7432C35.4805 36.6289 34.6821 36.3517 34.5703 36.3555C34.6241 36.3537 36.3277 36.1622 36.9129 35.8728C37.6943 35.4863 38.5035 34.7605 38.9966 34.458L39.0111 34.4498Z" fill="#451F21"/>
<ellipse rx="1.73372" ry="1.73372" transform="matrix(-1 0 0 1 57.9696 36.8509)" fill="#451F21"/>
<path d="M60.7936 34.4498C60.2115 34.1203 59.799 33.8867 58.7245 33.8867C57.6832 33.8867 57.3562 34.0083 56.6409 34.3438C56.2792 34.5134 55.4689 35.1443 55.2084 35.6013L55.2067 35.6044C54.9659 36.0269 54.6875 36.5154 54.6875 36.8164C55.0782 36.6289 55.0468 36.4234 55.5991 36.0137C56.12 35.6273 57.4222 35.3721 58.3338 35.3721C58.9434 35.3721 59.6829 35.6353 60.1023 35.8728C60.1767 35.9149 60.2568 35.9624 60.3431 36.0137L60.3431 36.0137C60.7585 36.2604 60.9384 36.5147 61.9802 36.7432C62.3139 36.8164 63.022 36.8575 63.6731 36.7432C64.3242 36.6289 65.1226 36.3517 65.2344 36.3555C65.1806 36.3537 63.477 36.1622 62.8917 35.8728C62.1104 35.4863 61.3012 34.7605 60.8081 34.458L60.7936 34.4498Z" fill="#451F21"/>
<path d="M39.7445 28.8702C40.7303 28.6812 41.3115 28.6824 41.8908 28.7433C42.8464 28.8439 43.4759 28.9994 44.0667 29.1251C44.3564 29.1867 44.8456 29.3102 45.0207 29.3544L45.0313 29.3571C45.4935 29.4892 45.7612 29.9709 45.6291 30.4331C45.4971 30.8952 45.0156 31.1628 44.5535 31.0311L44.5533 31.031L44.5531 31.0309L44.5521 31.0307C43.6316 30.8278 43.0514 30.6776 41.9876 30.4842C41.0496 30.3136 40.7303 30.3033 39.9566 30.4331C39.3451 30.5358 38.7961 30.6214 38.0224 30.8278C37.4044 30.9926 36.7879 31.2244 36.3783 31.3546C35.9687 31.4847 35.5079 31.6447 34.7342 31.9348C35.121 31.3546 35.2177 31.2578 36.0882 30.4331C36.5717 30.0973 36.8936 29.835 37.6355 29.517C38.3125 29.2269 38.8928 29.0335 39.7445 28.8702Z" fill="#C9817B"/>
<path d="M59.9948 28.8702C59.009 28.6812 58.4278 28.6823 57.8485 28.7433C56.893 28.8439 56.2634 28.9994 55.6727 29.1251C55.3829 29.1867 54.8938 29.3102 54.7186 29.3544L54.708 29.3571C54.2458 29.4891 53.9782 29.9709 54.1102 30.4331C54.2423 30.8952 54.7238 31.1628 55.1859 31.031L55.186 31.031L55.1863 31.0309L55.1872 31.0306C56.1077 30.8277 56.6879 30.6775 57.7518 30.4841C58.6898 30.3136 59.009 30.3033 59.7827 30.4331C60.3943 30.5358 60.9432 30.6214 61.7169 30.8277C62.3349 30.9925 62.9514 31.2244 63.361 31.3545C63.7706 31.4847 64.2314 31.6447 65.0051 31.9348C64.6183 31.3545 64.5216 31.2578 63.6512 30.4331C63.1676 30.0973 62.8457 29.835 62.1038 29.517C61.4268 29.2269 60.8465 29.0335 59.9948 28.8702Z" fill="#C9817B"/>
<path fill-rule="evenodd" clip-rule="evenodd" d="M48.6087 13.1116C48.8882 13.0945 49.1782 13.0767 49.4815 13.0528C53.1566 12.7627 60.7968 17.5015 62.9244 20.1127C63.9886 21.4187 64.1334 23.0635 64.3027 24.9864C64.4719 26.9081 64.6656 29.1077 65.8258 31.5247C67.6826 35.3931 68.1963 35.9734 68.6799 36.6504L75.353 27.1958C73.4414 18.4311 69.3924 10.5321 63.8915 6.66983C54.8007 0.286876 43.0986 2.9948 35.3617 6.66983C27.6247 10.3449 22.7892 24.8516 22.7892 30.9444C22.7892 31.9792 22.8282 33.1311 22.8708 34.3869C23.0789 40.5254 23.3712 49.1464 19.5977 58.7006C19.2604 59.5547 18.9161 60.4183 18.5691 61.2888C14.2405 72.1486 9.4864 84.0759 12.441 91.7759C15.6325 100.093 32.1702 102.704 33.8143 95.1608C35.0244 89.6083 34.4531 88.0904 33.4115 85.3233C33.038 84.3311 32.6041 83.1783 32.1702 81.6212C31.3676 78.7413 32.1091 75.9997 32.8985 73.0814C33.7261 70.0216 34.6063 66.7674 33.8143 62.9559C32.2669 55.5091 31.88 50.6735 35.3617 42.1629C36.8822 38.4459 36.6134 35.9465 36.3438 33.4399C35.9961 30.2073 35.6471 26.9629 39.1334 21.0798C43.6764 13.4136 45.5004 13.3019 48.6087 13.1116Z" fill="#FCD7D4"/>
</g>
</svg>
