<svg width="18" height="18" viewBox="0 0 18 18" fill="none" xmlns="http://www.w3.org/2000/svg">
<path fill-rule="evenodd" clip-rule="evenodd" d="M1.12497 9.00022C1.12497 8.85104 1.18423 8.70796 1.28972 8.60248C1.39521 8.49699 1.53829 8.43772 1.68747 8.43772H14.9546L11.4142 4.89847C11.3619 4.84617 11.3204 4.78409 11.2921 4.71575C11.2638 4.64742 11.2493 4.57418 11.2493 4.50022C11.2493 4.42626 11.2638 4.35302 11.2921 4.28469C11.3204 4.21636 11.3619 4.15427 11.4142 4.10197C11.4665 4.04967 11.5286 4.00819 11.5969 3.97988C11.6653 3.95158 11.7385 3.93701 11.8125 3.93701C11.8864 3.93701 11.9597 3.95158 12.028 3.97988C12.0963 4.00819 12.1584 4.04967 12.2107 4.10197L16.7107 8.60197C16.7631 8.65422 16.8047 8.7163 16.833 8.78463C16.8614 8.85297 16.876 8.92623 16.876 9.00022C16.876 9.07421 16.8614 9.14747 16.833 9.21581C16.8047 9.28415 16.7631 9.34622 16.7107 9.39847L12.2107 13.8985C12.1584 13.9508 12.0963 13.9923 12.028 14.0206C11.9597 14.0489 11.8864 14.0634 11.8125 14.0634C11.7385 14.0634 11.6653 14.0489 11.5969 14.0206C11.5286 13.9923 11.4665 13.9508 11.4142 13.8985C11.3619 13.8462 11.3204 13.7841 11.2921 13.7158C11.2638 13.6474 11.2493 13.5742 11.2493 13.5002C11.2493 13.4263 11.2638 13.353 11.2921 13.2847C11.3204 13.2164 11.3619 13.1543 11.4142 13.102L14.9546 9.56272H1.68747C1.53829 9.56272 1.39521 9.50346 1.28972 9.39797C1.18423 9.29248 1.12497 9.14941 1.12497 9.00022Z" fill="white" stroke="white" stroke-width="0.5"/>
</svg>
