<svg width="26" height="23" viewBox="0 0 26 23" fill="none" xmlns="http://www.w3.org/2000/svg">
<g filter="url(#filter0_d_78_2203)">
<path fill-rule="evenodd" clip-rule="evenodd" d="M5.12497 8.99999C5.12497 8.85081 5.18423 8.70774 5.28972 8.60225C5.39521 8.49676 5.53829 8.43749 5.68747 8.43749H18.9546L15.4142 4.89824C15.3619 4.84594 15.3204 4.78386 15.2921 4.71552C15.2638 4.64719 15.2493 4.57396 15.2493 4.49999C15.2493 4.42603 15.2638 4.35279 15.2921 4.28446C15.3204 4.21613 15.3619 4.15404 15.4142 4.10174C15.4665 4.04944 15.5286 4.00796 15.5969 3.97965C15.6653 3.95135 15.7385 3.93678 15.8125 3.93678C15.8864 3.93678 15.9597 3.95135 16.028 3.97965C16.0963 4.00796 16.1584 4.04944 16.2107 4.10174L20.7107 8.60174C20.7631 8.65399 20.8047 8.71607 20.833 8.78441C20.8614 8.85274 20.876 8.926 20.876 8.99999C20.876 9.07398 20.8614 9.14724 20.833 9.21558C20.8047 9.28392 20.7631 9.34599 20.7107 9.39824L16.2107 13.8982C16.1584 13.9505 16.0963 13.992 16.028 14.0203C15.9597 14.0486 15.8864 14.0632 15.8125 14.0632C15.7385 14.0632 15.6653 14.0486 15.5969 14.0203C15.5286 13.992 15.4665 13.9505 15.4142 13.8982C15.3619 13.8459 15.3204 13.7839 15.2921 13.7155C15.2638 13.6472 15.2493 13.574 15.2493 13.5C15.2493 13.426 15.2638 13.3528 15.2921 13.2845C15.3204 13.2161 15.3619 13.154 15.4142 13.1017L18.9546 9.56249H5.68747C5.53829 9.56249 5.39521 9.50323 5.28972 9.39774C5.18423 9.29225 5.12497 9.14918 5.12497 8.99999Z" fill="#961A20" stroke="#961A20" stroke-width="0.5"/>
</g>
<defs>
<filter id="filter0_d_78_2203" x="0" y="0" width="26" height="26" filterUnits="userSpaceOnUse" color-interpolation-filters="sRGB">
<feFlood flood-opacity="0" result="BackgroundImageFix"/>
<feColorMatrix in="SourceAlpha" type="matrix" values="0 0 0 0 0 0 0 0 0 0 0 0 0 0 0 0 0 0 127 0" result="hardAlpha"/>
<feOffset dy="4"/>
<feGaussianBlur stdDeviation="2"/>
<feComposite in2="hardAlpha" operator="out"/>
<feColorMatrix type="matrix" values="0 0 0 0 0 0 0 0 0 0 0 0 0 0 0 0 0 0 0.25 0"/>
<feBlend mode="normal" in2="BackgroundImageFix" result="effect1_dropShadow_78_2203"/>
<feBlend mode="normal" in="SourceGraphic" in2="effect1_dropShadow_78_2203" result="shape"/>
</filter>
</defs>
</svg>
