<svg width="26" height="13" viewBox="0 0 26 13" fill="none" xmlns="http://www.w3.org/2000/svg">
<path d="M26 6.21863V10.9137C25.9537 11.4474 25.7247 11.9447 25.3421 12.3288C25.1308 12.5414 24.8796 12.71 24.6031 12.8249C24.3267 12.9397 24.0303 12.9986 23.7311 12.998L19.1836 12.994C18.5765 12.994 18.0031 12.757 17.5726 12.3248C17.3613 12.1128 17.1938 11.8609 17.0797 11.5837C16.9657 11.3065 16.9073 11.0094 16.908 10.7095V7.37138C15.6585 6.90316 14.3351 6.66499 13.0014 6.6683C11.6692 6.66669 10.3478 6.9069 9.10077 7.37736L9.10077 10.7155C9.10077 11.325 8.86467 11.9006 8.43414 12.3328C8.22293 12.5449 7.97206 12.713 7.69592 12.8275C7.41979 12.942 7.12384 13.0007 6.82508 13H2.27767C1.67056 13 1.09717 12.763 0.666636 12.3308C0.455329 12.1188 0.287832 11.8669 0.17377 11.5897C0.0597083 11.3125 0.00132885 11.0154 0.00198387 10.7155L0 6.4751C0.00396839 5.28405 0.575371 4.1647 1.52969 3.47756C4.65852 1.23288 8.72976 -0.00198913 13.0054 2.40513e-06C17.2849 0.00199379 21.3601 1.23686 24.4751 3.47955C24.6358 3.59307 24.7866 3.72055 24.9314 3.86594C25.557 4.49394 25.9387 5.33695 26 6.21863Z" fill="#E11014"/>
</svg>
