<svg width="31" height="27" viewBox="0 0 31 27" fill="none" xmlns="http://www.w3.org/2000/svg">
<path d="M11.9445 0.375C10.1047 0.374446 8.2945 0.838001 6.6814 1.72276C5.0683 2.60752 3.70445 3.8849 2.71607 5.43668C1.72769 6.98845 1.14672 8.76448 1.02694 10.6004C0.90715 12.4363 1.25241 14.2727 2.03078 15.9398L0.974943 20.0844C0.897339 20.3888 0.899736 20.7081 0.9819 21.0114C1.06406 21.3146 1.22321 21.5915 1.44389 21.8151C1.66458 22.0387 1.93931 22.2015 2.24144 22.2877C2.54357 22.3738 2.86284 22.3805 3.16828 22.3069C4.26203 22.0444 5.94348 21.6404 7.44119 21.2831C8.92828 21.9537 10.5465 22.2832 12.1774 22.2474C13.8083 22.2116 15.4106 21.8114 16.8668 21.0762C18.323 20.341 19.5964 19.2893 20.5935 17.9983C21.5907 16.7073 22.2864 15.2095 22.6298 13.6148C22.9732 12.02 22.9555 10.3687 22.578 8.78164C22.2005 7.19462 21.4729 5.71213 20.4483 4.44275C19.4237 3.17338 18.1281 2.14927 16.6564 1.44543C15.1848 0.74159 13.5744 0.375852 11.9431 0.375H11.9445ZM3.19453 11.3125C3.1951 9.40981 3.81586 7.55916 4.96273 6.04097C6.1096 4.52277 7.72008 3.41978 9.55015 2.89913C11.3802 2.37847 13.3301 2.46852 15.1044 3.15564C16.8787 3.84276 18.3807 5.08949 19.3827 6.70693C20.3848 8.32436 20.8323 10.2244 20.6575 12.119C20.4827 14.0136 19.6951 15.7997 18.4141 17.2065C17.133 18.6133 15.4283 19.5642 13.5582 19.9151C11.6882 20.266 9.75469 19.9977 8.05078 19.151L7.69494 18.9746L7.30994 19.0665C5.9639 19.3873 4.40786 19.7592 3.24411 20.0392L4.25036 16.09L4.35244 15.6875L4.16286 15.3185C3.52416 14.0799 3.19209 12.7061 3.19453 11.3125V11.3125ZM19.2362 26.625C16.3633 26.625 13.7499 25.5181 11.7987 23.7083H11.9445C12.9916 23.7083 14.0081 23.5785 14.9779 23.3335C16.2393 24.0365 17.6904 24.4375 19.2362 24.4375C20.6362 24.4375 21.9574 24.1094 23.1299 23.526L23.4843 23.3496L23.8693 23.4415C25.2139 23.7623 26.7364 24.0904 27.8652 24.331C27.6099 23.2358 27.2614 21.7702 26.9289 20.465L26.8268 20.0625L27.0164 19.6935C27.6556 18.455 27.9882 17.0812 27.9862 15.6875C27.9869 14.2246 27.6206 12.7849 26.9207 11.5003C26.2208 10.2156 25.2098 9.12717 23.9802 8.33458C23.723 7.29292 23.3308 6.28934 22.8135 5.34938C24.2612 5.85068 25.5875 6.65043 26.7066 7.69684C27.8256 8.74326 28.7124 10.013 29.3096 11.4239C29.9068 12.8348 30.2011 14.3554 30.1733 15.8872C30.1455 17.419 29.7964 18.9279 29.1485 20.3163C29.5174 21.7863 29.8908 23.3787 30.127 24.404C30.1963 24.701 30.1896 25.0107 30.1074 25.3044C30.0253 25.5981 29.8705 25.8664 29.6573 26.0844C29.444 26.3025 29.1792 26.4632 28.8874 26.5519C28.5956 26.6405 28.2861 26.6541 27.9876 26.5915C26.5682 26.2963 25.152 25.9851 23.7395 25.6581C22.3244 26.2974 20.789 26.6271 19.2362 26.625V26.625Z"/>
</svg>
