<svg width="72" height="63" viewBox="0 0 72 63" fill="none" xmlns="http://www.w3.org/2000/svg">
<path d="M44.309 57.0364C52.1534 51.1005 63.4737 41.8074 68.1911 34.3752C71.7208 28.8227 72.8693 21.9436 71.334 15.5475C68.0538 0.977756 49.8893 -4.97578 38.5747 4.78797C37.9384 5.33347 37.3518 5.9382 36.7497 6.55916C36.504 6.81259 36.2555 7.06868 36 7.32456C35.7445 7.06868 35.496 6.81255 35.2504 6.55913C34.6482 5.9382 34.0617 5.33347 33.4253 4.78797C22.1107 -4.97578 3.94626 0.977756 0.665993 15.5475C-0.869302 21.9436 0.279062 28.8227 3.80897 34.3752C8.52631 41.8074 19.8466 51.1005 27.6911 57.0364C29.8768 58.6907 36 63 36 63C36 63 42.1232 58.6907 44.309 57.0364Z" fill="#961A20"/>
</svg>
