<svg width="17" height="26" viewBox="0 0 17 26" fill="none" xmlns="http://www.w3.org/2000/svg">
<path fill-rule="evenodd" clip-rule="evenodd" d="M11.8391 17.2116C10.9535 18.0823 9.75241 18.5714 8.5 18.5714C7.24759 18.5714 6.04647 18.0823 5.16088 17.2116C4.2753 16.3409 3.77778 15.1599 3.77778 13.9286V4.64286C3.77778 3.41149 4.2753 2.23057 5.16088 1.35986C6.04647 0.489157 7.24759 0 8.5 0C9.75241 0 10.9535 0.489157 11.8391 1.35986C12.7247 2.23057 13.2222 3.41149 13.2222 4.64286V13.9286C13.2222 15.1599 12.7247 16.3409 11.8391 17.2116ZM6.49653 2.67306C5.96518 3.19548 5.66667 3.90404 5.66667 4.64286V13.9286C5.66667 14.6674 5.96518 15.3759 6.49653 15.8984C7.02788 16.4208 7.74855 16.7143 8.5 16.7143C9.25145 16.7143 9.97212 16.4208 10.5035 15.8984C11.0348 15.3759 11.3333 14.6674 11.3333 13.9286V4.64286C11.3333 3.90404 11.0348 3.19548 10.5035 2.67306C9.97212 2.15064 9.25145 1.85714 8.5 1.85714C7.74855 1.85714 7.02788 2.15064 6.49653 2.67306Z" fill="white"/>
<path d="M15.1111 13.9286V11.1429H17V13.9286C16.999 15.9836 16.228 17.9661 14.8342 19.4975C13.4404 21.0289 11.5216 22.0017 9.44444 22.23V24.1429H13.2222V26H3.77778V24.1429H7.55556V22.23C5.47838 22.0017 3.5596 21.0289 2.16582 19.4975C0.77204 17.9661 0.000992112 15.9836 0 13.9286V11.1429H1.88889V13.9286C1.88889 15.6525 2.58541 17.3058 3.82524 18.5248C5.06506 19.7438 6.74662 20.4286 8.5 20.4286C10.2534 20.4286 11.9349 19.7438 13.1748 18.5248C14.4146 17.3058 15.1111 15.6525 15.1111 13.9286Z" fill="white"/>
</svg>
