<svg width="30" height="30" viewBox="0 0 30 30" fill="none" xmlns="http://www.w3.org/2000/svg">
<path d="M4.91817 2.96998L27.4932 13.7678C27.7211 13.8769 27.9134 14.0482 28.0481 14.262C28.1828 14.4757 28.2542 14.7232 28.2542 14.9759C28.2542 15.2285 28.1828 15.476 28.0481 15.6898C27.9134 15.9035 27.7211 16.0748 27.4932 16.1839L4.91817 26.9818C4.68665 27.0927 4.42811 27.1348 4.17334 27.103C3.91858 27.0712 3.67833 26.9668 3.4812 26.8023C3.28408 26.6378 3.13839 26.4202 3.06149 26.1752C2.98459 25.9302 2.97972 25.6683 3.04745 25.4207L5.30603 17.1407C5.33367 17.0392 5.39058 16.9481 5.46965 16.8788C5.54872 16.8094 5.64645 16.7649 5.75067 16.7507L16.69 15.2646C16.7356 15.2582 16.7788 15.2402 16.8154 15.2122C16.852 15.1842 16.8807 15.1473 16.8989 15.105L16.9182 15.0375C16.9266 14.9777 16.9146 14.9167 16.8841 14.8646C16.8535 14.8125 16.8063 14.7722 16.75 14.7503L16.691 14.7343L5.76246 13.2493C5.65843 13.2349 5.56093 13.1903 5.48207 13.1209C5.4032 13.0516 5.34646 12.9606 5.31888 12.8593L3.04745 4.53105C2.97972 4.2834 2.98459 4.02151 3.06149 3.77655C3.13839 3.53159 3.28408 3.3139 3.4812 3.14941C3.67833 2.98491 3.91858 2.88054 4.17334 2.84873C4.42811 2.81692 4.68665 2.85901 4.91817 2.96998Z" fill="#FF6C73"/>
</svg>
