<svg width="29" height="27" viewBox="0 0 29 27" fill="none" xmlns="http://www.w3.org/2000/svg">
<path d="M13.0734 1.39057C13.5224 0.00860524 15.4776 0.00860977 15.9266 1.39058L18.0922 8.05573C18.293 8.67376 18.869 9.0922 19.5188 9.0922L26.527 9.0922C27.9801 9.0922 28.5842 10.9516 27.4086 11.8057L21.7389 15.925C21.2132 16.307 20.9932 16.984 21.194 17.6021L23.3597 24.2672C23.8087 25.6492 22.227 26.7984 21.0514 25.9443L15.3817 21.825C14.8559 21.443 14.1441 21.443 13.6183 21.825L7.9486 25.9443C6.77303 26.7984 5.19131 25.6492 5.64034 24.2672L7.80598 17.6021C8.00679 16.984 7.78681 16.307 7.26108 15.925L1.59135 11.8057C0.415783 10.9516 1.01995 9.0922 2.47304 9.0922L9.48119 9.0922C10.131 9.0922 10.707 8.67376 10.9078 8.05573L13.0734 1.39057Z" fill="#961A20"/>
</svg>
