<svg width="28" height="18" viewBox="0 0 28 18" fill="none" xmlns="http://www.w3.org/2000/svg">
<path fill-rule="evenodd" clip-rule="evenodd" d="M1 4.2C1 3.35131 1.34241 2.53737 1.9519 1.93726C2.5614 1.33714 3.38805 1 4.25 1H16.4375C17.2258 0.999909 17.9872 1.28191 18.58 1.79348C19.1728 2.30506 19.5566 3.01134 19.6599 3.7808L24.7136 1.5696C24.961 1.46107 25.232 1.41514 25.502 1.43598C25.772 1.45681 26.0324 1.54375 26.2595 1.6889C26.4867 1.83405 26.6735 2.03279 26.8028 2.26708C26.9321 2.50136 26.9999 2.76375 27 3.0304V14.9696C26.9998 15.236 26.932 15.4982 26.8027 15.7323C26.6735 15.9664 26.4869 16.165 26.26 16.3101C26.033 16.4552 25.7729 16.5422 25.5031 16.5632C25.2334 16.5842 24.9625 16.5386 24.7152 16.4304L19.6599 14.2192C19.5566 14.9887 19.1728 15.6949 18.58 16.2065C17.9872 16.7181 17.2258 17.0001 16.4375 17H4.25C3.38805 17 2.5614 16.6629 1.9519 16.0627C1.34241 15.4626 1 14.6487 1 13.8V4.2ZM19.6875 12.48L25.375 14.9696V3.0304L19.6875 5.52V12.48ZM4.25 2.6C3.81902 2.6 3.4057 2.76857 3.10095 3.06863C2.7962 3.36869 2.625 3.77565 2.625 4.2V13.8C2.625 14.2243 2.7962 14.6313 3.10095 14.9314C3.4057 15.2314 3.81902 15.4 4.25 15.4H16.4375C16.8685 15.4 17.2818 15.2314 17.5865 14.9314C17.8913 14.6313 18.0625 14.2243 18.0625 13.8V4.2C18.0625 3.77565 17.8913 3.36869 17.5865 3.06863C17.2818 2.76857 16.8685 2.6 16.4375 2.6H4.25Z" stroke-width="0.5"/>
</svg>
