<svg width="26" height="24" viewBox="0 0 26 24" fill="none" xmlns="http://www.w3.org/2000/svg">
<path fill-rule="evenodd" clip-rule="evenodd" d="M17.8116 19.1852C18.2751 18.6849 18.5718 18.0498 18.6599 17.3695L23.7136 19.6444C23.961 19.7561 24.232 19.8034 24.502 19.7819C24.772 19.7605 25.0324 19.671 25.2596 19.5217C25.4867 19.3724 25.6735 19.1679 25.8028 18.9269C25.9321 18.6858 25.9999 18.4159 26 18.1416V5.85844C25.9998 5.58432 25.932 5.31461 25.8027 5.07377C25.6735 4.83293 25.4869 4.6286 25.26 4.47932C25.033 4.33003 24.7729 4.24052 24.5031 4.21891C24.2334 4.19729 23.9625 4.24427 23.7153 4.35556L18.6599 6.63045C18.5566 5.83883 18.1728 5.1122 17.58 4.58589C16.9872 4.05958 16.2258 3.76945 15.4375 3.76955H6.942L8.10225 5.41564H15.4375C15.8685 5.41564 16.2818 5.58907 16.5865 5.89777C16.8913 6.20647 17.0625 6.62516 17.0625 7.06173V16.9383C17.0628 17.2388 16.9819 17.5337 16.8285 17.7909L17.8116 19.1852ZM2.3205 5.71193C2.10574 5.86347 1.93034 6.06535 1.80924 6.30038C1.68814 6.53541 1.62493 6.79661 1.625 7.06173V16.9383C1.625 17.3748 1.7962 17.7935 2.10095 18.1022C2.4057 18.4109 2.81902 18.5844 3.25 18.5844H11.3977L12.558 20.2305H3.25C2.38805 20.2305 1.5614 19.8836 0.951903 19.2662C0.34241 18.6488 0 17.8114 0 16.9383V7.06173C0 5.95062 0.54275 4.9679 1.37637 4.37202L2.31888 5.71193H2.3205ZM24.375 18.1399L18.6875 15.5802V8.41975L24.375 5.85844V18.1416V18.1399ZM17.2136 24L0.963625 0.954732L2.28637 0L18.5364 23.0453L17.2136 24Z" fill="white"/>
</svg>
