<svg width="100" height="92" viewBox="0 0 100 92" fill="none" xmlns="http://www.w3.org/2000/svg">
<mask id="mask0_78_1942" style="mask-type:alpha" maskUnits="userSpaceOnUse" x="0" y="0" width="100" height="92">
<path d="M94.7098 51.7367C88.1578 61.9725 88 75 80.5 81.5C73 88 61 91.1593 50 91C39 90.8407 27 88 20.5 83.5C14 79 10.7097 67 8 51.7367C7.99995 41.5 -1.2074 34.6156 0.92495 25.8068C5.48088 5.74112 14.0792 1.46484 36.0351 0H61.5402C88.4765 2.44141 94.5191 5.74112 99.075 25.8068C101.207 34.6156 99.6123 44.0897 94.7098 51.7367Z" fill="#C4C4C4"/>
</mask>
<g mask="url(#mask0_78_1942)">
<path d="M74.5116 30.836C74.5116 17.9608 64.0369 7.09649 50.0975 6.51955C44.2745 6.27854 39.7266 7.83787 36.035 10.4258C30.8897 14.0329 28.4728 15.8945 25.8788 20.7774C22.5585 27.0274 21.2889 37.7695 21.2889 42.6524L21.2889 46.2976L21.2889 51.3438C20.7503 60.5746 18.4569 68.4336 23.6327 72.3399C28.8085 76.2461 71.4843 79.0781 75.6835 72.3399C79.8827 65.6016 75.6835 56.9102 75.6835 48.8047C75.6835 40.9641 74.5116 37.9649 74.5116 30.836Z" fill="#5F090D"/>
<path d="M42.8579 62.7541H56.9778C56.9133 64.4627 56.8231 68.286 56.9778 69.9108C57.1712 71.9417 58.7186 74.8431 62.3937 76.6806C63.9441 77.4558 65.2708 77.9384 66.6715 78.4479C68.5908 79.1461 70.649 79.8948 73.6122 81.5161C77.7128 83.7599 85.1208 92.0577 88.3123 95.9262H11.5234C14.7149 92.0577 22.123 83.7599 26.2236 81.5161C29.1868 79.8948 31.245 79.1461 33.1643 78.4479C34.5649 77.9384 35.8916 77.4558 37.4421 76.6806C41.1171 74.8431 42.6645 71.9417 42.8579 69.9108C43.0127 68.286 42.9224 64.4627 42.8579 62.7541Z" fill="#F7B1A8"/>
<mask id="mask1_78_1942" style="mask-type:alpha" maskUnits="userSpaceOnUse" x="11" y="64" width="78" height="34">
<path d="M42.8579 64.7072H56.9778C56.9133 66.4158 56.8231 70.2391 56.9778 71.8639C57.1712 73.8948 58.7186 76.7962 62.3937 78.6337C63.9441 79.4089 65.2708 79.8915 66.6715 80.401C68.5908 81.0992 70.649 81.8479 73.6122 83.4693C77.7128 85.713 85.1208 94.0108 88.3123 97.8793H11.5234C14.7149 94.0108 22.123 85.713 26.2236 83.4693C29.1868 81.8479 31.245 81.0992 33.1643 80.401C34.5649 79.8915 35.8916 79.4089 37.4421 78.6337C41.1171 76.7962 42.6645 73.8948 42.8579 71.8639C43.0127 70.2391 42.9224 66.4158 42.8579 64.7072Z" fill="#FFA39C"/>
</mask>
<g mask="url(#mask1_78_1942)">
<path d="M34.557 17.6669C33.5872 21.0389 31.4381 28.511 31.2606 40.3509C30.9882 58.5148 36.0272 62.9376 40.8421 67.1636C41.1636 67.4458 41.4841 67.7272 41.802 68.0117C45.0788 70.9443 48.3128 71.6054 49.7042 71.7539C51.0956 71.6054 54.3296 70.9443 57.6064 68.0117C57.9243 67.7272 58.2448 67.4458 58.5663 67.1636C63.3812 62.9376 68.4202 58.5148 68.1478 40.3509C67.9703 28.511 65.8212 21.0389 64.8514 17.6669C64.5485 16.6139 64.3606 15.9607 64.3837 15.6992H35.0246C35.0477 15.9607 34.8599 16.6139 34.557 17.6669Z" fill="#E7ABA4"/>
</g>
<path d="M34.557 19.6201C33.5872 22.9921 31.4381 24.6048 31.2606 36.4447C30.9882 54.6086 36.0272 59.0313 40.8421 63.2574C41.1636 63.5396 41.4841 63.821 41.802 64.1055C45.0788 67.038 48.3128 67.6992 49.7042 67.8477C51.0956 67.6992 54.3296 67.038 57.6064 64.1055C57.9243 63.821 58.2448 63.5396 58.5663 63.2574C63.3812 59.0313 68.4202 54.6086 68.1478 36.4447C67.9703 24.6047 65.8212 22.9921 64.8514 19.6201C64.5485 18.567 64.3606 17.9138 64.3837 17.6524H35.0246C35.0477 17.9138 34.8599 18.567 34.557 19.6201Z" fill="#FFBBB2"/>
<path fill-rule="evenodd" clip-rule="evenodd" d="M48.0787 53.3945C47.7071 53.3945 47.4017 53.5198 47.1257 53.7058C46.8579 53.8863 46.604 54.1338 46.3361 54.3949L46.3276 54.4032C46.1089 54.6164 45.876 54.8433 45.6051 55.0698C45.1887 55.418 44.5406 55.8112 44.0052 56.1356C44.0052 56.1356 43.1641 56.4506 43.1641 56.5502C43.1641 56.6498 43.6082 56.8384 43.6082 56.8384C43.733 56.9041 43.8743 56.9937 44.0219 57.0991C44.3172 57.3098 44.6258 57.5744 44.8625 57.8119C44.9738 57.9235 45.0827 58.0665 45.2028 58.233C45.2308 58.2718 45.2594 58.312 45.2887 58.353C45.3824 58.4844 45.4828 58.6252 45.5915 58.7635C45.8775 59.1274 46.2414 59.5022 46.7743 59.725C47.7822 60.1464 48.4955 60.2305 49.5865 60.2305C49.6285 60.2305 49.6692 60.2279 49.7085 60.2227C49.7479 60.2279 49.7885 60.2305 49.8306 60.2305C50.9216 60.2305 51.6349 60.1464 52.6428 59.725C53.1757 59.5022 53.5396 59.1274 53.8256 58.7635C53.9342 58.6252 54.0347 58.4843 54.1284 58.353C54.1577 58.3119 54.1863 58.2718 54.2143 58.233C54.3344 58.0665 54.4433 57.9235 54.5545 57.8119C54.7913 57.5744 55.0999 57.3098 55.3952 57.0991C55.5428 56.9937 55.6841 56.9041 55.8089 56.8384C55.8089 56.8384 56.25 56.7311 56.25 56.6024C56.25 56.4736 55.5668 56.138 55.5668 56.138L55.5628 56.1356C55.0274 55.8112 54.3793 55.418 53.9629 55.0698C53.692 54.8433 53.4591 54.6164 53.2404 54.4032L53.2319 54.3949C52.964 54.1338 52.7101 53.8863 52.4423 53.7058C52.1663 53.5198 51.8609 53.3945 51.4894 53.3945C51.0176 53.3945 50.7022 53.5721 50.4428 53.7181L50.4334 53.7235C50.1997 53.855 50.021 53.9517 49.784 53.9631C49.547 53.9517 49.3683 53.855 49.1346 53.7235L49.1252 53.7181C48.8658 53.5721 48.5504 53.3945 48.0787 53.3945ZM48.4383 57.1789C48.0462 57.056 47.6195 56.9255 47.2107 56.8147C47.2224 56.8127 47.2338 56.8107 47.2449 56.8086C47.6173 56.7395 48.0029 56.6149 48.368 56.4969L48.3758 56.4944C48.9017 56.3245 49.3764 56.1733 49.784 56.1621C50.1916 56.1733 50.6663 56.3245 51.1922 56.4944L51.1999 56.4969C51.5472 56.6091 51.9129 56.7273 52.2682 56.7981C51.8407 56.9123 51.3907 57.0498 50.9788 57.1789C50.85 57.2193 50.7252 57.2588 50.6061 57.2965C50.6061 57.2965 49.9279 57.5743 49.7085 57.5743C49.4892 57.5743 48.8109 57.2964 48.8109 57.2964C48.6918 57.2588 48.5671 57.2193 48.4383 57.1789Z" fill="#88090F"/>
<path d="M47.2107 56.8147C47.6195 56.9255 48.0462 57.056 48.4383 57.1789C48.5671 57.2193 48.6918 57.2588 48.8109 57.2964C48.8109 57.2964 49.4892 57.5743 49.7085 57.5743C49.9279 57.5743 50.6061 57.2965 50.6061 57.2965C50.7252 57.2588 50.85 57.2193 50.9788 57.1789C51.3907 57.0498 51.8407 56.9123 52.2682 56.7981C51.9129 56.7273 51.5472 56.6091 51.1999 56.4969L51.1922 56.4944C50.6663 56.3245 50.1916 56.1733 49.784 56.1621C49.3764 56.1733 48.9017 56.3245 48.3758 56.4944L48.368 56.4969C48.0029 56.6149 47.6173 56.7395 47.2449 56.8086C47.2338 56.8107 47.2224 56.8127 47.2107 56.8147Z" fill="#88090F"/>
<path d="M48.1539 46.5109C48.5041 46.194 48.8822 45.8115 49.8806 45.7774C50.879 45.7432 51.6072 46.5109 51.6072 46.5109C52.2324 47.0767 52.3802 48.3669 52.1733 48.3669C52.053 48.3669 51.8354 48.1569 51.6222 47.9511C51.4685 47.8029 51.3172 47.6568 51.2062 47.5932C50.8802 47.4062 50.4509 47.0531 49.8806 47.0469C49.3103 47.0531 48.881 47.4062 48.555 47.5932C48.444 47.6568 48.2926 47.8029 48.139 47.9511L48.139 47.9511C47.9258 48.1569 47.7081 48.3669 47.5879 48.3669C47.3809 48.3669 47.5287 47.0767 48.1539 46.5109Z" fill="#E3A39B"/>
<circle cx="41.6545" cy="40.3672" r="1.75781" fill="#451F21"/>
<path d="M39.1008 37.8655C39.6993 37.768 40.1234 37.6989 41.1899 37.8299C42.2234 37.9568 42.5403 38.0588 43.2293 38.3174C43.5776 38.4482 44.3423 38.8694 44.5722 39.1347L44.5737 39.1365C44.7862 39.3818 45.0318 39.6654 45.0129 39.8192C44.6369 39.6758 44.681 39.5746 44.1585 39.2979C43.6657 39.0369 42.3892 38.7477 41.4844 38.6367C40.8794 38.5624 40.1289 38.6068 39.6977 38.677C39.6212 38.6895 39.5387 38.704 39.4498 38.7197C39.0221 38.7952 38.8276 38.9032 37.7792 38.8931C37.4433 38.8898 36.738 38.8245 36.0989 38.6868C35.4598 38.549 34.6847 38.31 34.5736 38.2983C34.6271 38.304 36.33 38.4137 36.929 38.3371C37.7288 38.2348 38.5775 37.9624 39.0859 37.8679L39.1008 37.8655Z" fill="#451F21"/>
<circle r="1.75781" transform="matrix(-1 0 0 1 58.1406 40.3672)" fill="#451F21"/>
<path d="M60.7038 37.8667C60.1052 37.7685 59.6811 37.6989 58.6146 37.8299C57.581 37.9568 57.2641 38.059 56.5753 38.3183C56.227 38.4495 55.4625 38.872 55.2327 39.1384L55.2312 39.1401C55.0189 39.3863 54.7733 39.671 54.7923 39.8255C55.1682 39.6816 55.1241 39.58 55.6465 39.3024C56.1392 39.0406 57.4156 38.7509 58.3204 38.6398C58.9254 38.5655 59.676 38.6105 60.1073 38.6813C60.1838 38.6938 60.2663 38.7085 60.3552 38.7242L60.3552 38.7242C60.783 38.8002 60.9775 38.9088 62.026 38.8991C62.3619 38.896 63.0672 38.8308 63.7063 38.6928C64.3454 38.5548 65.1204 38.3153 65.2315 38.3036C65.178 38.3092 63.475 38.4185 62.8759 38.3413C62.076 38.2382 61.2271 37.9643 60.7187 37.8691L60.7038 37.8667Z" fill="#451F21"/>
<path d="M60.0586 33.2121C58.9506 33.2121 58.4278 33.1511 57.8485 33.2121C56.893 33.3127 56.3525 33.347 55.7618 33.4727C55.466 33.5356 54.8732 33.5889 54.708 33.6306C54.2458 33.7626 53.9782 34.4397 54.1102 34.9019C54.2423 35.364 54.7238 35.4363 55.1859 35.3045L55.186 35.3044L55.1863 35.3044L55.1872 35.3041C56.1077 35.1012 56.4396 35.006 57.5196 34.9529C58.5569 34.9019 58.9812 34.9019 59.7657 34.9019C60.3346 34.9019 60.9375 34.9019 61.7188 34.9529C62.357 34.9946 63.2416 35.0027 63.6512 35.1328C64.0608 35.263 64.2314 35.3322 65.0051 35.6223C64.6183 35.0421 64.5216 35.1407 63.6512 34.316C63.1676 33.9801 63.0916 33.8245 62.4024 33.5938C61.7039 33.36 60.9191 33.2121 60.0586 33.2121Z" fill="#4E0609"/>
<path d="M39.687 33.2121C40.795 33.2121 41.3178 33.1511 41.8971 33.2121C42.8526 33.3127 43.3931 33.347 43.9838 33.4727C44.2797 33.5356 44.8724 33.5889 45.0376 33.6305C45.4998 33.7626 45.7674 34.4397 45.6354 34.9019C45.5034 35.364 45.0218 35.4363 44.5598 35.3045L44.5596 35.3044L44.5594 35.3044L44.5584 35.3041C43.6379 35.1012 43.306 35.006 42.226 34.9529C41.1887 34.9019 40.7645 34.9019 39.9799 34.9019C39.411 34.9019 38.8081 34.9019 38.0268 34.9529C37.3886 34.9946 36.504 35.0027 36.0944 35.1328C35.6848 35.263 35.5142 35.3322 34.7405 35.6223C35.1273 35.042 35.224 35.1406 36.0944 34.3159C36.578 33.9801 36.654 33.8245 37.3432 33.5938C38.0417 33.36 38.8265 33.2121 39.687 33.2121Z" fill="#4E0609"/>
<path d="M35.3516 37.2813C42.2852 33.2774 51.6602 18.6289 56.4453 21.9492C61.2305 25.2695 59.4727 25.5625 62.8906 32.3985C65.5452 37.7075 69.3359 45.582 72.8516 45.582C72.297 39.5886 68.8421 17.0384 64.9276 13.554C60.0344 9.19845 49.9546 7.96997 39.8747 11.097C31.8108 13.5986 26.4355 34.7468 24.9023 41.9688C29.4922 42.3594 28.418 41.2852 35.3516 37.2813Z" fill="#5F090D"/>
</g>
</svg>
