<svg width="150" height="150" viewBox="0 0 150 150" fill="none" version="1.1" xmlns="http://www.w3.org/2000/svg" xlink = "http://www.w3.org/2000/xlink" >
<path d="M92.3103 131.157C108.653 118.895 132.237 99.697 142.065 84.3434C149.418 72.8728 151.811 58.6617 148.613 45.4485C141.779 15.35 103.936 3.05098 80.364 23.2212C79.0383 24.3481 77.8162 25.5974 76.5618 26.8802C76.05 27.4037 75.5324 27.9327 75 28.4614C74.4677 27.9327 73.95 27.4036 73.4383 26.8801C72.1838 25.5974 70.9618 24.3481 69.636 23.2212C46.064 3.05098 8.22138 15.35 1.38748 45.4485C-1.81105 58.6617 0.58138 72.8728 7.93535 84.3434C17.7632 99.697 41.3471 118.895 57.6897 131.157C62.2434 134.575 75 143.477 75 143.477C75 143.477 87.7566 134.575 92.3103 131.157Z" fill="#FF6C73"/>
<mask id="mask0_32_1847" style="mask-type:alpha" maskUnits="userSpaceOnUse" x="0" y="6" width="150" height="138">
<path d="M142.065 84.3434C132.237 99.6971 108.653 118.895 92.3103 131.157C87.7566 134.575 75 143.477 75 143.477C75 143.477 62.2434 134.575 57.6897 131.157C41.3471 118.895 17.7632 99.6971 7.93535 84.3434C0.58138 72.8728 -1.81105 58.6617 1.38748 45.4485C8.22138 15.35 21.1189 8.93555 54.0527 6.73828H92.3103C132.715 10.4004 141.779 15.35 148.613 45.4485C151.811 58.6617 149.418 72.8728 142.065 84.3434Z" fill="#C4C4C4"/>
</mask>
<g mask="url(#mask0_32_1847)">
<path d="M33.8232 137.439L42.5596 77.9614L72.9914 89.5587L65.4198 134.954L33.8232 137.439Z" fill="#E4C1BE"/>
<path d="M111.795 107.074C105.412 96.1938 111.359 94.7432 114.261 73.5634C115.407 65.1993 114.901 56.1121 113.029 47.532L101.807 59.9121L78.8644 94.7432L74.2223 113.892L86.2629 149.433C96.6593 150.11 118.178 148.998 121.079 139.134C124.706 126.803 118.178 117.954 111.795 107.074Z" fill="#FCD7D4"/>
<path d="M64.2869 95.6312H85.4667C85.37 98.194 85.2346 103.929 85.4667 106.366C85.7569 109.413 88.0779 113.765 93.5905 116.521C95.9162 117.684 97.9062 118.408 100.007 119.172C102.886 120.219 105.973 121.342 110.418 123.774C116.569 127.14 127.681 139.587 132.468 145.389H17.2852C22.0724 139.587 33.1845 127.14 39.3354 123.774C43.7802 121.342 46.8675 120.219 49.7464 119.172C51.8474 118.408 53.8374 117.684 56.1632 116.521C61.6757 113.765 63.9968 109.413 64.2869 106.366C64.519 103.929 64.3836 98.194 64.2869 95.6312Z" fill="#FFA39C"/>
<mask id="mask1_32_1847" style="mask-type:alpha" maskUnits="userSpaceOnUse" x="17" y="98" width="116" height="51">
<path d="M64.2869 98.5609H85.4667C85.37 101.124 85.2346 106.859 85.4667 109.296C85.7569 112.342 88.0779 116.694 93.5905 119.451C95.9162 120.613 97.9062 121.337 100.007 122.102C102.886 123.149 105.973 124.272 110.418 126.704C116.569 130.069 127.681 142.516 132.468 148.319H17.2852C22.0724 142.516 33.1845 130.069 39.3354 126.704C43.7802 124.272 46.8675 123.149 49.7464 122.102C51.8474 121.337 53.8374 120.613 56.1632 119.451C61.6757 116.694 63.9968 112.342 64.2869 109.296C64.519 106.859 64.3836 101.124 64.2869 98.5609Z" fill="#FFA39C"/>
</mask>
<g mask="url(#mask1_32_1847)">
<path d="M51.8355 28.0004C50.3808 33.0584 47.1572 44.2665 46.8909 62.0263C46.4823 89.2722 54.0408 95.9064 61.2631 102.245C61.7454 102.669 62.2262 103.091 62.703 103.518C67.6182 107.916 72.4692 108.908 74.5563 109.131C76.6433 108.908 81.4943 107.916 86.4095 103.518C86.8864 103.091 87.3672 102.669 87.8495 102.245C95.0718 95.9064 102.63 89.2722 102.222 62.0263C101.955 44.2665 98.7318 33.0584 97.2771 28.0004C96.8228 26.4208 96.541 25.441 96.5756 25.0488H52.537C52.5716 25.441 52.2898 26.4208 51.8355 28.0004Z" fill="#F29891"/>
</g>
<path d="M99.2021 79.3677C101.596 77.6036 105.065 74.824 106.584 72.5205C107.721 70.7997 108.195 68.6079 107.882 66.5217C107.233 61.7736 102.096 59.5212 98.619 62.4524C98.4235 62.616 98.2412 62.7997 98.0541 62.9883C97.9777 63.0653 97.9005 63.143 97.8213 63.2206C97.7526 63.1336 97.6859 63.0466 97.62 62.9605C97.4585 62.7495 97.3011 62.5441 97.1281 62.3568C94.0534 59.0057 88.6713 60.584 87.4211 65.2104C86.8447 67.2396 87.0354 69.474 87.9429 71.3258C89.1556 73.8044 92.2416 77.0041 94.3905 79.0593C94.9893 79.6321 96.6734 81.132 96.6734 81.132C96.6734 81.132 98.5351 79.8593 99.2021 79.3677Z" fill="#FFA39C"/>
<path d="M51.8355 22.141C50.3808 27.199 47.1572 38.4071 46.8909 56.167C46.4823 83.4128 54.0408 90.047 61.2631 96.3861C61.7454 96.8094 62.2262 97.2314 62.703 97.6582C67.6182 102.057 72.4692 103.049 74.5563 103.271C76.6433 103.049 81.4943 102.057 86.4095 97.6582C86.8864 97.2314 87.3672 96.8094 87.8495 96.3861C95.0718 90.047 102.63 83.4128 102.222 56.167C101.955 38.4071 98.7318 27.199 97.2771 22.141C96.8228 20.5614 96.541 19.5817 96.5756 19.1895H52.537C52.5716 19.5817 52.2898 20.5614 51.8355 22.141Z" fill="#FFB3A9"/>
<path fill-rule="evenodd" clip-rule="evenodd" d="M72.118 81.5918C71.5607 81.5918 71.1026 81.7797 70.6885 82.0587C70.2868 82.3295 69.9059 82.7007 69.5042 83.0924L69.4914 83.1048C69.1633 83.4246 68.814 83.765 68.4077 84.1047C67.783 84.627 66.811 85.2167 66.0078 85.7033C66.0078 85.7033 64.7461 86.1759 64.7461 86.3253C64.7461 86.4746 65.4123 86.7575 65.4123 86.7575C65.5995 86.8561 65.8114 86.9906 66.0329 87.1486C66.4758 87.4646 66.9387 87.8615 67.2938 88.2178C67.4606 88.3852 67.624 88.5997 67.8042 88.8495C67.8461 88.9077 67.8891 88.968 67.933 89.0295C68.0736 89.2265 68.2243 89.4377 68.3873 89.6452C68.8163 90.191 69.3621 90.7533 70.1614 91.0875C71.6733 91.7196 72.7433 91.8457 74.3798 91.8457C74.4428 91.8457 74.5039 91.8418 74.5628 91.8341C74.6218 91.8418 74.6828 91.8457 74.7458 91.8457C76.3823 91.8457 77.4523 91.7196 78.9642 91.0875C79.7636 90.7533 80.3093 90.191 80.7383 89.6452C80.9014 89.4378 81.0521 89.2265 81.1926 89.0295C81.2365 88.9679 81.2795 88.9077 81.3215 88.8495C81.5016 88.5997 81.665 88.3852 81.8318 88.2178C82.1869 87.8615 82.6498 87.4646 83.0927 87.1486C83.3142 86.9906 83.5261 86.8561 83.7134 86.7575C83.7134 86.7575 84.375 86.5967 84.375 86.4035C84.375 86.2103 83.3502 85.707 83.3502 85.707L83.3442 85.7033C82.541 85.2167 81.569 84.627 80.9443 84.1047C80.538 83.765 80.1887 83.4246 79.8606 83.1048L79.8478 83.0924C79.446 82.7007 79.0652 82.3295 78.6635 82.0587C78.2494 81.7797 77.7913 81.5918 77.234 81.5918C76.5263 81.5918 76.0534 81.8581 75.6642 82.0772L75.65 82.0852C75.2995 82.2825 75.0315 82.4275 74.676 82.4446C74.3205 82.4275 74.0525 82.2825 73.702 82.0852L73.6878 82.0772C73.2986 81.8581 72.8257 81.5918 72.118 81.5918ZM72.6574 87.2684C72.0693 87.084 71.4293 86.8882 70.816 86.722C70.8336 86.7191 70.8507 86.716 70.8674 86.7129C71.4259 86.6092 72.0044 86.4223 72.5521 86.2454L72.5637 86.2416C73.3526 85.9868 74.0646 85.7599 74.676 85.7432C75.2874 85.7599 75.9994 85.9868 76.7883 86.2416L76.7999 86.2454C77.3208 86.4136 77.8694 86.5909 78.4023 86.6971C77.7611 86.8684 77.086 87.0747 76.4682 87.2684C76.275 87.329 76.0878 87.3882 75.9092 87.4447C75.9092 87.4447 74.8918 87.8614 74.5628 87.8614C74.2338 87.8614 73.2164 87.4446 73.2164 87.4446C73.0377 87.3881 72.8507 87.329 72.6574 87.2684Z" fill="#FF6C73"/>
<path d="M77.4106 71.2664C76.8853 70.791 76.3182 70.2172 74.8206 70.166C73.323 70.1148 72.2306 71.2664 72.2306 71.2664C71.2928 72.1151 71.0712 74.0502 71.3816 74.0502C71.562 74.0502 71.8884 73.7353 72.2082 73.4267L72.2082 73.4267C72.4387 73.2043 72.6657 72.9852 72.8322 72.8897C73.3212 72.6092 73.9652 72.0796 74.8206 72.0703C75.676 72.0796 76.32 72.6092 76.809 72.8897C76.9755 72.9852 77.2025 73.2043 77.433 73.4267L77.433 73.4267C77.7528 73.7353 78.0793 74.0502 78.2597 74.0502C78.5701 74.0502 78.3484 72.1151 77.4106 71.2664Z" fill="#FF6C73"/>
<ellipse cx="62.7383" cy="62.0146" rx="2.6006" ry="2.60059" fill="#451F21"/>
<path d="M58.5166 58.413C59.3897 57.9187 60.0085 57.5684 61.6203 57.5684C63.1823 57.5684 63.6727 57.7507 64.7457 58.2539C65.2883 58.5083 66.5037 59.4547 66.8944 60.1403L66.897 60.1448C67.2582 60.7786 67.6758 61.5114 67.6758 61.9629C67.0898 61.6817 67.1368 61.3734 66.3084 60.7589C65.5271 60.1792 63.5737 59.7964 62.2063 59.7964C61.292 59.7964 60.1827 60.1913 59.5536 60.5474C59.442 60.6106 59.3218 60.682 59.1923 60.7589C58.5693 61.1289 58.2995 61.5103 56.7368 61.8531C56.2361 61.9629 55.1741 62.0245 54.1974 61.8531C53.2207 61.6817 52.0231 61.2659 51.8555 61.2715C51.9361 61.2688 54.4915 60.9816 55.3694 60.5474C56.5415 59.9678 57.7552 58.879 58.4948 58.4253L58.5166 58.413Z" fill="#451F21"/>
<ellipse rx="2.60057" ry="2.60059" transform="matrix(-1 0 0 1 86.9541 62.0146)" fill="#451F21"/>
<path d="M91.1904 58.413C90.3173 57.9187 89.6985 57.5684 88.0868 57.5684C86.5248 57.5684 86.0343 57.7507 84.9613 58.2539C84.4188 58.5083 83.2033 59.4547 82.8126 60.1403L82.81 60.1448C82.4488 60.7786 82.0312 61.5114 82.0312 61.9629C82.6173 61.6817 82.5702 61.3734 83.3986 60.7589C84.18 60.1792 86.1334 59.7964 87.5007 59.7964C88.4151 59.7964 89.5243 60.1913 90.1535 60.5474C90.265 60.6106 90.3852 60.6819 90.5147 60.7588L90.5147 60.7589C91.1378 61.1289 91.4075 61.5103 92.9702 61.8531C93.4709 61.9629 94.533 62.0245 95.5097 61.8531C96.4863 61.6817 97.684 61.2659 97.8516 61.2715C97.7709 61.2688 95.2155 60.9816 94.3376 60.5474C93.1656 59.9678 91.9518 58.879 91.2122 58.4253L91.1904 58.413Z" fill="#451F21"/>
<path d="M59.6171 50.0436C61.0957 49.7601 61.9676 49.7618 62.8365 49.8533C64.2698 50.0042 65.2142 50.2374 66.1003 50.4259C66.5349 50.5184 67.2687 50.7036 67.5314 50.7699L67.5472 50.7739C68.2405 50.972 68.642 51.6947 68.4439 52.388C68.2459 53.0811 67.5236 53.4825 66.8305 53.2849L66.8302 53.2848L66.8299 53.2847L66.8285 53.2843C65.4477 52.9799 64.5773 52.7546 62.9816 52.4645C61.5746 52.2087 61.0957 52.1932 59.9352 52.388C59.0179 52.542 58.1944 52.6705 57.0338 52.9799C56.1069 53.2271 55.1821 53.5749 54.5677 53.7701C53.9533 53.9653 53.2621 54.2053 52.1016 54.6405C52.6818 53.7701 52.8269 53.625 54.1325 52.388C54.8578 51.8842 55.3407 51.4908 56.4536 51.0138C57.469 50.5786 58.3395 50.2885 59.6171 50.0436Z" fill="#C9817B"/>
<path d="M89.9923 50.0436C88.5137 49.7601 87.6418 49.7618 86.7729 49.8533C85.3396 50.0041 84.3952 50.2373 83.5091 50.4259C83.0745 50.5183 82.3408 50.7036 82.0781 50.7699L82.0622 50.7739C81.3688 50.972 80.9674 51.6946 81.1655 52.388C81.3635 53.0811 82.0858 53.4825 82.7789 53.2848L82.7792 53.2847L82.7795 53.2846L82.7809 53.2842C84.1616 52.9799 85.032 52.7546 86.6278 52.4645C88.0348 52.2087 88.5137 52.1932 89.6742 52.388C90.5915 52.5419 91.415 52.6704 92.5755 52.9799C93.5025 53.2271 94.4273 53.5749 95.0417 53.7701C95.6561 53.9653 96.3473 54.2053 97.5078 54.6405C96.9275 53.7701 96.7825 53.625 95.4769 52.388C94.7515 51.8842 94.2687 51.4908 93.1558 51.0138C92.1403 50.5786 91.2699 50.2885 89.9923 50.0436Z" fill="#C9817B"/>
<path fill-rule="evenodd" clip-rule="evenodd" d="M72.913 26.4057C73.3324 26.38 73.7673 26.3534 74.2223 26.3175C79.7348 25.8823 91.1951 32.9905 94.3866 36.9074C95.9829 38.8664 96.2001 41.3335 96.4541 44.2179C96.7079 47.1004 96.9984 50.3998 98.7386 54.0253C101.524 59.828 102.295 60.6984 103.02 61.7138L113.029 47.532C110.162 34.385 104.089 22.5365 95.8373 16.743C82.201 7.1686 64.6479 11.2305 53.0425 16.743C41.4371 22.2556 34.1837 44.0157 34.1837 53.1549C34.1837 54.707 34.2423 56.4349 34.3062 58.3186C34.6183 67.5264 35.0567 80.458 29.3965 94.7892C28.8905 96.0703 28.3742 97.3657 27.8537 98.6715C21.3608 114.961 14.2296 132.852 18.6616 144.402C23.4488 156.878 48.2553 160.795 50.7214 149.479C52.5366 141.151 51.6796 138.874 50.1173 134.723C49.5571 133.235 48.9062 131.506 48.2553 129.17C47.0514 124.85 48.1637 120.738 49.3477 116.36C50.5892 111.771 51.9094 106.889 50.7214 101.172C48.4003 90.0019 47.8201 82.7486 53.0425 69.9827C55.3234 64.4072 54.9201 60.658 54.5157 56.8981C53.9942 52.0492 53.4707 47.1826 58.7001 38.358C65.5146 26.8586 68.2505 26.6911 72.913 26.4057Z" fill="#FCD7D4"/>
</g>
</svg>
