<svg width="100" height="92" xmlns="http://www.w3.org/2000/svg" fill="none">
 <mask height="92" width="100" y="0" x="0" maskUnits="userSpaceOnUse" id="mask0_1_488">
  <path id="svg_1" fill="#C4C4C4" d="m94.7099,51.7367c-6.552,10.2358 -6.7098,23.2633 -14.2098,29.7633c-7.5,6.5 -19.5,9.6593 -30.5,9.5c-11.0001,-0.1593 -23,-3 -29.5,-7.5c-6.5,-4.5 -9.7903,-16.5 -12.50004,-31.7633c-0.00005,-10.2367 -9.2074,-17.1211 -7.07505,-25.9299c4.55593,-20.06568 13.15429,-24.34196 35.11019,-25.8068l25.505,0c26.9364,2.44141 32.979,5.74112 37.5349,25.8068c2.1319,8.8088 0.5372,18.2829 -4.3652,25.9299z"/>
 </mask>

 <g>
  <title>Layer 1</title>
  <g id="svg_2" mask="url(#mask0_1_488)">
   <path id="svg_3" fill="#623A54" d="m35.668,75.0039l-2.539,-23.5351l13.7695,8.3007l0,16.5039l-11.2305,-1.2695z"/>
   <path id="svg_4" fill="#724161" d="m71.6055,49.418c-0.3125,-2.4219 -2.6041,-5.3711 -3.7109,-6.543l-12.793,9.082l0,20.7032c2.4414,1.1718 7.3633,3.789 7.5196,4.8828c0.1953,1.3672 8.0078,1.0742 8.9843,0c0.9766,-1.0742 -0.9765,-4.0039 0,-5.7618c0.9766,-1.7578 -1.8554,-5.1757 -1.8554,-6.8359c0,-1.6601 1.8554,-1.9531 1.8554,-4.2969c0,-2.3437 -1.5625,-4.0039 -1.8554,-5.957c-0.293,-1.9531 2.2461,-2.2461 1.8554,-5.2734z"/>
   <path id="svg_5" fill="#C15764" d="m43.858,59.7541l14.1199,0c-0.0645,1.7086 -0.1548,5.5319 0,7.1567c0.1934,2.0309 1.7408,4.9323 5.4158,6.7698c1.5505,0.7752 2.8772,1.2578 4.2779,1.7673c1.9192,0.6982 3.9774,1.4469 6.9406,3.0682c4.1006,2.2438 11.5087,10.5416 14.7002,14.4101l-76.7889,0c3.1915,-3.8685 10.5996,-12.1663 14.7001,-14.4101c2.9632,-1.6213 5.0214,-2.37 6.9407,-3.0682c1.4007,-0.5095 2.7274,-0.9921 4.2779,-1.7673c3.675,-1.8375 5.2224,-4.7389 5.4158,-6.7698c0.1547,-1.6248 0.0645,-5.4481 0,-7.1567z"/>
   <mask height="34" width="78" y="61" x="12" maskUnits="userSpaceOnUse" id="mask1_1_488">
    <path id="svg_6" fill="#FFA39C" d="m43.858,61.7072l14.1199,0c-0.0645,1.7086 -0.1548,5.5319 0,7.1567c0.1934,2.0309 1.7408,4.9323 5.4158,6.7698c1.5505,0.7752 2.8772,1.2578 4.2779,1.7673c1.9192,0.6982 3.9774,1.4469 6.9406,3.0683c4.1006,2.2437 11.5087,10.5415 14.7002,14.41l-76.7889,0c3.1915,-3.8685 10.5996,-12.1663 14.7001,-14.41c2.9632,-1.6214 5.0214,-2.3701 6.9407,-3.0683c1.4007,-0.5095 2.7274,-0.9921 4.2779,-1.7673c3.675,-1.8375 5.2224,-4.7389 5.4158,-6.7698c0.1547,-1.6248 0.0645,-5.4481 0,-7.1567z"/>
   </mask>
   <g id="svg_7" mask="url(#mask1_1_488)">
    <path id="svg_8" fill="#AC4D59" d="m35.5571,14.6669c-0.9699,3.372 -3.1189,10.8441 -3.2965,22.684c-0.2723,18.1639 4.7667,22.5867 9.5815,26.8127c0.3216,0.2823 0.6421,0.5636 0.96,0.8481c3.2768,2.9326 6.5108,3.5937 7.9022,3.7422c1.3913,-0.1485 4.6253,-0.8096 7.9021,-3.7422c0.3179,-0.2845 0.6385,-0.5658 0.96,-0.8481c4.8149,-4.226 9.8538,-8.6488 9.5815,-26.8127c-0.1776,-11.8399 -2.3266,-19.312 -3.2965,-22.684c-0.3028,-1.053 -0.4907,-1.7062 -0.4676,-1.9677l-29.3591,0c0.0231,0.2615 -0.1648,0.9147 -0.4676,1.9677z"/>
   </g>
   <path id="svg_9" fill="#C15764" d="m67.1346,48.9118c1.5958,-1.1761 3.9086,-3.0292 4.9214,-4.5648c0.7576,-1.1472 1.0739,-2.6084 0.8654,-3.9992c-0.4329,-3.1654 -3.8573,-4.667 -6.1755,-2.7129c-0.1303,0.1091 -0.2519,0.2316 -0.3766,0.3573c-0.0509,0.0513 -0.1024,0.1032 -0.1553,0.1549c-0.0458,-0.0581 -0.0902,-0.1161 -0.1341,-0.1735c-0.1077,-0.1406 -0.2126,-0.2775 -0.328,-0.4024c-2.0498,-2.2341 -5.6379,-1.1819 -6.4713,1.9024c-0.3843,1.3528 -0.2572,2.8424 0.3479,4.0769c0.8084,1.6524 2.8658,3.7856 4.2984,5.1557c0.3992,0.3819 1.5219,1.3818 1.5219,1.3818c0,0 1.2411,-0.8484 1.6858,-1.1762z"/>
   <path id="svg_10" fill="#C9616E" d="m35.5571,14.6669c-0.9699,3.372 -3.1189,6.9378 -3.2965,18.7777c-0.2723,18.1639 4.7667,22.5867 9.5815,26.8128c0.3216,0.2822 0.6421,0.5635 0.96,0.848c3.2768,2.9326 6.5108,3.5938 7.9022,3.7422c1.3913,-0.1484 4.6253,-0.8096 7.9021,-3.7422c0.3179,-0.2845 0.6385,-0.5658 0.96,-0.848c4.8149,-4.2261 9.8538,-8.6489 9.5815,-26.8128c-0.1776,-11.8399 -2.3266,-15.4057 -3.2965,-18.7777c-0.3028,-1.053 -0.4907,-1.7062 -0.4676,-1.9677l-29.3591,0c0.0231,0.2615 -0.1648,0.9147 -0.4676,1.9677z"/>
   <path id="svg_11" fill="#AB3645" d="m48.1258,50.7058c0.276,-0.186 0.5814,-0.3113 0.9529,-0.3113c0.4718,0 0.7871,0.1776 1.0466,0.3236l0.0094,0.0053c0.2337,0.1316 0.4124,0.2283 0.6494,0.2397c0.2369,-0.0114 0.4156,-0.1081 0.6493,-0.2397l0.0095,-0.0053c0.2594,-0.146 0.5747,-0.3236 1.0465,-0.3236c0.3715,0 0.6769,0.1253 0.953,0.3113c0.2678,0.1805 0.5217,0.428 0.7896,0.6891l0.0085,0.0083c0.2187,0.2132 0.4516,0.4401 0.7224,0.6666c0.4165,0.3482 1.0645,0.7414 1.5999,1.0657l0.004,0.0025c0,0 0.6833,0.3356 0.6833,0.4643c0,0.1288 -0.4411,0.2361 -0.4411,0.2361c-0.1249,0.0656 -0.2661,0.1553 -0.4138,0.2607c-0.2952,0.2106 -0.6039,0.4753 -0.8406,0.7128c-0.1112,0.1116 -0.2201,0.2546 -0.3402,0.4211c-0.028,0.0388 -0.0567,0.0789 -0.0859,0.12c-0.0937,0.1313 -0.1942,0.2722 -0.3029,0.4105c-0.286,0.3638 -0.6498,0.7387 -1.1827,0.9615c-1.0079,0.4214 -1.7213,0.5055 -2.8123,0.5055c-0.042,0 -0.0827,-0.0026 -0.122,-0.0078c-0.0393,0.0052 -0.08,0.0078 -0.122,0.0078c-1.091,0 -1.8043,-0.0841 -2.8123,-0.5055c-0.5329,-0.2228 -0.8967,-0.5977 -1.1827,-0.9615c-0.1087,-0.1383 -0.2091,-0.2792 -0.3028,-0.4105c-0.0293,-0.041 -0.058,-0.0812 -0.086,-0.12c-0.1201,-0.1665 -0.229,-0.3095 -0.3402,-0.4211c-0.2367,-0.2375 -0.5453,-0.5022 -0.8406,-0.7128c-0.1476,-0.1054 -0.2889,-0.1951 -0.4138,-0.2607c0,0 -0.4441,-0.1887 -0.4441,-0.2882c0,-0.0996 0.8412,-0.4147 0.8412,-0.4147c0.5354,-0.3243 1.1834,-0.7175 1.5999,-1.0657c0.2708,-0.2265 0.5038,-0.4534 0.7225,-0.6666l0.0085,-0.0083c0.2678,-0.2611 0.5217,-0.5086 0.7896,-0.6891zm2.6583,3.4973c-1.1704,0 -2.1645,-0.2776 -2.5734,-0.3884c0.0117,-0.002 0.0232,-0.004 0.0343,-0.0061c0.3723,-0.0692 0.758,-0.1937 1.1231,-0.3117l0.0078,-0.0025c0.5259,-0.1699 1.0006,-0.3211 1.4082,-0.3323c0.4075,0.0112 0.8822,0.1624 1.4082,0.3323l0.0077,0.0025c0.3472,0.1122 0.713,0.2303 1.0683,0.3012c-0.4275,0.1142 -1.3139,0.405 -2.4842,0.405z" clip-rule="evenodd" fill-rule="evenodd"/>
   <path id="svg_12" fill="#AC4D59" d="m52.6072,43.5109c-0.3502,-0.3169 -0.7282,-0.6994 -1.7266,-0.7336c-0.9985,-0.0341 -1.7267,0.7336 -1.7267,0.7336c-0.6252,0.5658 -0.773,1.8559 -0.566,1.8559c0.1202,0 0.3378,-0.21 0.5511,-0.4157c0.1536,-0.1482 0.305,-0.2943 0.416,-0.358c0.326,-0.187 0.7553,-0.54 1.3256,-0.5462c0.5702,0.0062 0.9995,0.3592 1.3255,0.5462c0.111,0.0637 0.2624,0.2098 0.4161,0.358c0.2132,0.2057 0.4308,0.4157 0.551,0.4157c0.207,0 0.0592,-1.2901 -0.566,-1.8559z"/>
   <circle id="svg_13" fill="#4D253F" r="1.73373" cy="37.343" cx="42.826"/>
   <path id="svg_14" fill="#4D253F" d="m40.0111,35.1523c0.5821,-0.3955 0.9946,-0.6757 2.0691,-0.6757c1.0414,0 1.3683,0.1459 2.0837,0.5484c0.3617,0.2036 1.172,0.9606 1.4324,1.5091l0.0018,0.0036c0.2408,0.5071 0.5191,1.0933 0.5191,1.4545c-0.3906,-0.225 -0.3592,-0.4716 -0.9115,-0.9632c-0.5209,-0.4638 -1.8232,-0.77 -2.7348,-0.77c-0.6095,0 -1.349,0.3159 -1.7685,0.6008c-0.0743,0.0506 -0.1544,0.1076 -0.2408,0.1692l0,0c-0.4154,0.296 -0.5952,0.6011 -1.637,0.8753c-0.3338,0.0879 -1.0418,0.1371 -1.693,0c-0.6511,-0.1371 -1.4495,-0.4697 -1.5612,-0.4652c0.0537,-0.0022 1.7574,-0.2319 2.3426,-0.5793c0.7814,-0.4637 1.5905,-1.3347 2.0836,-1.6977l0.0145,-0.0098z"/>
   <ellipse id="svg_15" fill="#4D253F" transform="matrix(-1 0 0 1 58.9697 37.3431)" ry="1.73372" rx="1.73373"/>
   <path id="svg_16" fill="#4D253F" d="m61.7937,35.1523c-0.5821,-0.3955 -0.9946,-0.6757 -2.0691,-0.6757c-1.0414,0 -1.3683,0.1459 -2.0836,0.5484c-0.3618,0.2036 -1.1721,0.9606 -1.4325,1.5091l-0.0018,0.0036c-0.2408,0.5071 -0.5191,1.0933 -0.5191,1.4545c0.3906,-0.225 0.3593,-0.4716 0.9115,-0.9632c0.5209,-0.4638 1.8232,-0.77 2.7348,-0.77c0.6095,0 1.349,0.3159 1.7685,0.6008c0.0744,0.0506 0.1544,0.1076 0.2408,0.1692l0,0c0.4154,0.296 0.5952,0.6011 1.637,0.8753c0.3338,0.0879 1.0418,0.1371 1.693,0c0.6511,-0.1371 1.4495,-0.4697 1.5612,-0.4652c-0.0537,-0.0022 -1.7573,-0.2319 -2.3426,-0.5793c-0.7814,-0.4637 -1.5905,-1.3347 -2.0836,-1.6977l-0.0145,-0.0098z"/>
   <path id="svg_17" fill="#623A54" d="m40.7801,29.3909c0.9866,-0.2172 1.5683,-0.2159 2.1481,-0.1458c0.9562,0.1156 1.5863,0.2944 2.1775,0.4388c0.29,0.0709 0.7796,0.2129 0.9549,0.2637l0.0106,0.0031c0.4626,0.1518 0.7304,0.7057 0.5982,1.237c-0.1321,0.5312 -0.614,0.8389 -1.0765,0.6874l-0.0001,-0.0001l-0.0003,-0.0001l-0.0009,-0.0003c-0.9212,-0.2332 -1.502,-0.4059 -2.5667,-0.6282c-0.9387,-0.1961 -1.2582,-0.208 -2.0326,-0.0587c-0.612,0.118 -1.1614,0.2165 -1.9358,0.4537c-0.6184,0.1894 -1.2354,0.456 -1.6454,0.6056c-0.4099,0.1496 -0.8711,0.3335 -1.6454,0.6671c0.3871,-0.6671 0.4839,-0.7783 1.355,-1.7264c0.484,-0.3861 0.8062,-0.6876 1.5487,-1.0531c0.6775,-0.3336 1.2583,-0.5559 2.1107,-0.7437z"/>
   <path id="svg_18" fill="#623A54" d="m61.0247,29.3909c-0.9866,-0.2172 -1.5683,-0.2159 -2.148,-0.1458c-0.9563,0.1156 -1.5864,0.2944 -2.1776,0.4388c-0.29,0.0709 -0.7796,0.2129 -0.9549,0.2637l-0.0106,0.0031c-0.4625,0.1518 -0.7304,0.7057 -0.5982,1.237c0.1321,0.5312 0.614,0.8389 1.0765,0.6874l0.0002,-0.0001l0.0002,-0.0001l0.0009,-0.0003c0.9212,-0.2332 1.502,-0.4059 2.5667,-0.6282c0.9387,-0.1961 1.2582,-0.208 2.0326,-0.0587c0.612,0.118 1.1614,0.2165 1.9358,0.4537c0.6184,0.1894 1.2355,0.456 1.6454,0.6056c0.4099,0.1496 0.8711,0.3335 1.6454,0.6671c-0.3871,-0.6671 -0.4839,-0.7783 -1.355,-1.7264c-0.484,-0.3861 -0.8061,-0.6876 -1.5487,-1.0531c-0.6775,-0.3336 -1.2582,-0.5559 -2.1107,-0.7437z"/>
   <path id="svg_19" fill="#724161" d="m53.1334,19.4062c3.2812,-2.6562 8.0729,-1.1067 10.0586,0l4.1015,-9.66792c-0.7812,-2.86458 -5.7617,-6.73828 -13.2812,-6.73828c-8.1237,0 -12.0117,2.34375 -16.5039,5.66406c-4.8918,3.61564 -6.6429,5.52094 -8.1055,7.71484c-1.3672,2.0508 -5.032,9.7158 -3.7109,13.1836c0.7812,2.0508 1.3672,2.9297 0.8789,6.543c-0.3065,2.2675 -1.7578,4.2968 -2.4414,7.1289c-0.6836,2.832 1.5625,4.8227 1.5625,6.8359c0,1.8555 -1.1719,3.7109 -0.8789,5.6641c0.1728,1.1524 1.9386,1.6918 2.6367,3.4179c0.485,1.1993 -0.7813,2.8321 0,4.6875c0.7812,1.8555 3.0983,2.8897 3.6133,5.0782c0.3906,1.6601 -0.5314,1.6601 -1.0743,3.7109c-0.8789,3.3203 5.2735,13.3899 5.2735,10.3516c0,-4.0039 5.0911,-2.5041 7.4219,-6.25c2.7343,-4.3946 -0.586,-4.4793 -0.586,-7.8125c0,-2.1485 2.0508,-1.0906 2.0508,-4.0039c0,-3.125 -1.2637,-4.3 -2.0508,-5.7618c-0.6836,-1.2695 -0.4883,-4.6875 0.586,-6.25c1.0742,-1.5625 1.0742,-3.8085 0.5859,-6.0546c-0.4883,-2.2461 -0.293,-3.5157 0.8789,-6.0547c1.1719,-2.5391 -2.5391,-5.5664 1.0742,-7.7149c3.6133,-2.1484 0.6836,-5.0781 0.6836,-8.1054c0,-3.0274 3.125,-2.2461 7.2266,-5.5665z"/>
   <path id="svg_20" fill="#724161" d="m63.2071,21.5859c-2.2352,-1.9064 -4.6875,-2.3112 -5.4688,-3.125l4.0039,-9.86324c4.5899,-0.87891 10.1254,4.03024 11.6211,10.44924c2.3438,10.0586 -1.888,13.6719 -4.1992,17.6758c-0.3581,-1.3347 -3.0273,-3.9063 -3.7109,-6.4454c-0.6836,-2.539 1.0742,-5.8593 -2.2461,-8.6914z"/>
  </g>
 </g>
</svg>