<svg width="100" height="92" viewBox="0 0 100 92" fill="none" xmlns="http://www.w3.org/2000/svg">
<mask id="mask0_78_621" style="mask-type:alpha" maskUnits="userSpaceOnUse" x="0" y="0" width="100" height="92">
<path d="M94.7098 51.7367C88.1578 61.9725 88 75 80.5 81.5C73 88 61 91.1593 50 91C39 90.8407 27 88 20.5 83.5C14 79 10.7097 67 8 51.7367C7.99995 41.5 -1.2074 34.6156 0.92495 25.8068C5.48088 5.74112 14.0792 1.46484 36.0351 0H61.5402C88.4765 2.44141 94.5191 5.74112 99.075 25.8068C101.207 34.6156 99.6123 44.0897 94.7098 51.7367Z" fill="#C4C4C4"/>
</mask>
<g mask="url(#mask0_78_621)">
<path d="M74.9882 27.3408C74.9882 14.4657 64.5136 3.60137 50.5742 3.02443C44.7511 2.78342 40.2032 4.34275 36.5117 6.93068C31.3663 10.5378 28.9494 12.3994 26.3554 17.2822C23.0351 23.5322 21.7656 34.2744 21.7656 39.1572V63.4737C21.2269 72.7044 18.5242 81.0393 18.5 88L83.875 83.5908C83.987 76.6787 80.6484 70.4072 78.5039 61.6182C76.6453 54.001 74.9882 34.4697 74.9882 27.3408Z" fill="#451F21"/>
<path d="M43.3345 59.259H57.4544C57.3899 60.9676 57.2996 64.7909 57.4544 66.4157C57.6478 68.4466 59.1952 71.3479 62.8702 73.1855C64.4207 73.9607 65.7474 74.4433 67.1481 74.9528C69.0673 75.651 71.1255 76.3997 74.0887 78.021C78.1893 80.2647 86.5974 88.5626 89.7889 92.431L51 96.5L12 92.431C15.1915 88.5626 22.5996 80.2647 26.7001 78.021C29.6633 76.3997 31.7215 75.651 33.6408 74.9528C35.0415 74.4433 36.3682 73.9607 37.9187 73.1855C41.5937 71.3479 43.1411 68.4466 43.3345 66.4157C43.4892 64.7909 43.399 60.9676 43.3345 59.259Z" fill="#F7B1A8"/>
<mask id="mask1_78_621" style="mask-type:alpha" maskUnits="userSpaceOnUse" x="12" y="61" width="77" height="34">
<path d="M43.3345 61.2121H57.4544C57.3899 62.9207 57.2996 66.744 57.4544 68.3688C57.6478 70.3997 59.1952 73.301 62.8702 75.1386C64.4207 75.9138 65.7474 76.3964 67.1481 76.9059C69.0673 77.6041 71.1255 78.3528 74.0887 79.9741C78.1893 82.2178 85.5974 90.5157 88.7889 94.3842H12C15.1915 90.5157 22.5996 82.2178 26.7001 79.9741C29.6633 78.3528 31.7215 77.6041 33.6408 76.9059C35.0415 76.3964 36.3682 75.9138 37.9187 75.1386C41.5937 73.301 43.1411 70.3997 43.3345 68.3688C43.4892 66.744 43.399 62.9207 43.3345 61.2121Z" fill="#FFA39C"/>
</mask>
<g mask="url(#mask1_78_621)">
<path d="M35.0336 14.1718C34.0637 17.5438 31.9147 25.0159 31.7371 36.8558C31.4648 55.0197 36.5038 59.4424 41.3186 63.6685C41.6402 63.9507 41.9607 64.2321 42.2786 64.5166C45.5554 67.4492 48.7894 68.1103 50.1808 68.2588C51.5721 68.1103 54.8061 67.4492 58.0829 64.5166C58.4008 64.2321 58.7214 63.9507 59.0429 63.6685C63.8578 59.4424 68.8967 55.0197 68.6244 36.8558C68.4468 25.0158 66.2978 17.5438 65.3279 14.1718C65.0251 13.1187 64.8372 12.4656 64.8603 12.2041H35.5012C35.5243 12.4656 35.3364 13.1188 35.0336 14.1718Z" fill="#E7ABA4"/>
</g>
<path d="M35.0336 16.125C34.0637 19.497 31.9147 21.1096 31.7371 32.9495C31.4648 51.1134 36.5038 55.5362 41.3186 59.7623C41.6402 60.0445 41.9607 60.3259 42.2786 60.6104C45.5554 63.5429 48.7894 64.2041 50.1808 64.3526C51.5721 64.2041 54.8061 63.5429 58.0829 60.6104C58.4008 60.3259 58.7214 60.0445 59.0429 59.7623C63.8578 55.5362 68.8967 51.1134 68.6244 32.9495C68.4468 21.1096 66.2978 19.4969 65.3279 16.1249C65.0251 15.0719 64.8372 14.4187 64.8603 14.1572H35.5012C35.5243 14.4187 35.3364 15.0719 35.0336 16.125Z" fill="#FFBBB2"/>
<path fill-rule="evenodd" clip-rule="evenodd" d="M48.5552 49.8994C48.1837 49.8994 47.8783 50.0247 47.6023 50.2107C47.3344 50.3912 47.0805 50.6387 46.8127 50.8998L46.8042 50.9081C46.5855 51.1213 46.3525 51.3482 46.0817 51.5747C45.6652 51.9229 45.0172 52.3161 44.4818 52.6404C44.4818 52.6404 43.6406 52.9555 43.6406 53.0551C43.6406 53.1546 44.0847 53.3433 44.0847 53.3433C44.2096 53.4089 44.3509 53.4986 44.4985 53.604C44.7938 53.8146 45.1024 54.0793 45.3391 54.3168C45.4503 54.4284 45.5592 54.5714 45.6793 54.7379C45.7073 54.7767 45.736 54.8169 45.7653 54.8579C45.859 54.9892 45.9594 55.13 46.0681 55.2684C46.3541 55.6322 46.7179 56.0071 47.2508 56.2299C48.2588 56.6513 48.9721 56.7354 50.0631 56.7354C50.1051 56.7354 50.1458 56.7328 50.1851 56.7276C50.2244 56.7328 50.2651 56.7354 50.3071 56.7354C51.3981 56.7354 52.1115 56.6513 53.1194 56.2299C53.6523 56.0071 54.0161 55.6322 54.3021 55.2684C54.4108 55.1301 54.5113 54.9892 54.605 54.8579C54.6342 54.8168 54.6629 54.7767 54.6909 54.7379C54.811 54.5714 54.9199 54.4284 55.0311 54.3168C55.2678 54.0793 55.5765 53.8146 55.8717 53.604C56.0194 53.4986 56.1606 53.4089 56.2855 53.3433C56.2855 53.3433 56.7266 53.236 56.7266 53.1072C56.7266 52.9785 56.0433 52.6429 56.0433 52.6429L56.0394 52.6404C55.5039 52.3161 54.8559 51.9229 54.4394 51.5747C54.1686 51.3482 53.9357 51.1213 53.717 50.9081L53.7085 50.8998C53.4406 50.6387 53.1867 50.3912 52.9189 50.2107C52.6428 50.0247 52.3374 49.8994 51.9659 49.8994C51.4941 49.8994 51.1788 50.077 50.9194 50.223L50.9099 50.2283C50.6762 50.3599 50.4975 50.4566 50.2606 50.468C50.0236 50.4566 49.8449 50.3599 49.6112 50.2283L49.6018 50.223C49.3423 50.077 49.027 49.8994 48.5552 49.8994ZM48.9148 53.6838C48.5228 53.5609 48.0961 53.4304 47.6872 53.3196C47.6989 53.3176 47.7104 53.3156 47.7215 53.3135C48.0938 53.2443 48.4795 53.1198 48.8446 53.0018L48.8524 52.9993C49.3783 52.8294 49.853 52.6782 50.2606 52.667C50.6681 52.6782 51.1429 52.8294 51.6688 52.9993L51.6765 53.0018C52.0237 53.114 52.3895 53.2321 52.7448 53.303C52.3173 53.4172 51.8672 53.5547 51.4554 53.6838C51.3265 53.7242 51.2018 53.7637 51.0827 53.8013C51.0827 53.8013 50.4045 54.0792 50.1851 54.0792C49.9658 54.0792 49.2875 53.8013 49.2875 53.8013C49.1684 53.7637 49.0437 53.7242 48.9148 53.6838Z" fill="#FF8389"/>
<path d="M47.6872 53.3196C48.0961 53.4304 48.5228 53.5609 48.9148 53.6838C49.0437 53.7242 49.1684 53.7637 49.2875 53.8013C49.2875 53.8013 49.9658 54.0792 50.1851 54.0792C50.4045 54.0792 51.0827 53.8013 51.0827 53.8013C51.2018 53.7637 51.3265 53.7242 51.4554 53.6838C51.8672 53.5547 52.3173 53.4172 52.7448 53.303C52.3895 53.2321 52.0237 53.114 51.6765 53.0018L51.6688 52.9993C51.1429 52.8294 50.6681 52.6782 50.2606 52.667C49.853 52.6782 49.3783 52.8294 48.8524 52.9993L48.8446 53.0018C48.4795 53.1198 48.0938 53.2443 47.7215 53.3135C47.7104 53.3156 47.6989 53.3176 47.6872 53.3196Z" fill="#FF8389"/>
<path d="M48.6305 43.0158C48.9807 42.6989 49.3587 42.3164 50.3571 42.2822C51.3556 42.2481 52.0838 43.0158 52.0838 43.0158C52.709 43.5816 52.8568 44.8717 52.6498 44.8717C52.5296 44.8717 52.312 44.6618 52.0987 44.456C51.9451 44.3078 51.7937 44.1617 51.6827 44.098C51.3567 43.911 50.9274 43.558 50.3571 43.5518C49.7869 43.558 49.3576 43.911 49.0316 44.098C48.9206 44.1617 48.7692 44.3078 48.6155 44.456L48.6155 44.456C48.4023 44.6618 48.1847 44.8717 48.0644 44.8717C47.8575 44.8717 48.0053 43.5816 48.6305 43.0158Z" fill="#E3A39B"/>
<circle cx="42.3264" cy="36.6767" r="1.5625" fill="#451F21"/>
<path d="M39.567 34.2599C40.1715 34.1128 40.5999 34.0085 41.6664 34.1394C42.7 34.2663 43.0146 34.3866 43.6974 34.6958C44.0426 34.8521 44.7956 35.3683 45.017 35.7025L45.0185 35.7047C45.2231 36.0136 45.4598 36.3708 45.4353 36.57C45.0628 36.3983 45.1106 36.2662 44.5957 35.9278C44.1101 35.6086 42.8383 35.281 41.9335 35.1699C41.3285 35.0956 40.5731 35.1797 40.1375 35.2857C40.0603 35.3045 39.9769 35.3262 39.887 35.3496C39.4547 35.4622 39.2556 35.6086 38.203 35.6328C37.8657 35.6406 37.1596 35.5814 36.5226 35.4265C35.8856 35.2715 35.1157 34.9908 35.0045 34.9797C35.058 34.985 36.7645 35.0659 37.3689 34.9457C38.1758 34.7853 39.0379 34.4036 39.5519 34.2635L39.567 34.2599Z" fill="#451F21"/>
<circle r="1.5625" transform="matrix(-1 0 0 1 58.4219 36.6767)" fill="#451F21"/>
<path d="M61.1906 34.2599C60.5861 34.1128 60.1576 34.0085 59.0911 34.1394C58.0576 34.2663 57.7429 34.3866 57.0602 34.6958C56.715 34.8521 55.9619 35.3683 55.7405 35.7025L55.7391 35.7047C55.5344 36.0136 55.2978 36.3708 55.3222 36.57C55.6948 36.3983 55.6469 36.2662 56.1618 35.9278C56.6474 35.6086 57.9193 35.281 58.8241 35.1699C59.4291 35.0956 60.1844 35.1797 60.62 35.2857C60.6973 35.3045 60.7806 35.3262 60.8705 35.3496L60.8705 35.3496C61.3028 35.4622 61.502 35.6086 62.5546 35.6328C62.8919 35.6406 63.5979 35.5814 64.2349 35.4265C64.8719 35.2715 65.6419 34.9908 65.7531 34.9797C65.6996 34.985 63.9931 35.0659 63.3887 34.9457C62.5817 34.7853 61.7196 34.4036 61.2056 34.2635L61.1906 34.2599Z" fill="#451F21"/>
<path d="M60.5352 29.717C59.4272 29.717 58.9043 29.656 58.325 29.717C57.3695 29.8176 56.8291 29.8519 56.2383 29.9776C55.9425 30.0405 55.3497 30.0937 55.1846 30.1354C54.7224 30.2675 54.4547 30.9446 54.5868 31.4068C54.7188 31.8689 55.2003 31.9412 55.6624 31.8094L55.6626 31.8093L55.6628 31.8093L55.6638 31.809C56.5842 31.6061 56.9162 31.5109 57.9961 31.4578C59.0335 31.4068 59.4577 31.4068 60.2422 31.4068C60.8111 31.4068 61.4141 31.4068 62.1954 31.4578C62.8335 31.4995 63.7181 31.5076 64.1277 31.6377C64.5373 31.7678 64.708 31.8371 65.4817 32.1272C65.0948 31.5469 64.9981 31.6455 64.1277 30.8208C63.6442 30.485 63.5682 30.3294 62.8789 30.0987C62.1805 29.8649 61.3957 29.717 60.5352 29.717Z" fill="#451F21"/>
<path d="M40.1635 29.717C41.2716 29.717 41.7944 29.656 42.3737 29.717C43.3292 29.8175 43.8697 29.8519 44.4604 29.9775C44.7562 30.0405 45.349 30.0937 45.5142 30.1354C45.9764 30.2675 46.244 30.9445 46.1119 31.4068C45.9799 31.8688 45.4984 31.9412 45.0363 31.8094L45.0361 31.8093L45.0359 31.8092L45.035 31.809C44.1145 31.6061 43.7826 31.5109 42.7026 31.4578C41.6653 31.4068 41.241 31.4068 40.4565 31.4068C39.8876 31.4068 39.2846 31.4068 38.5034 31.4578C37.8652 31.4994 36.9806 31.5076 36.571 31.6377C36.1614 31.7678 35.9907 31.8371 35.217 32.1272C35.6039 31.5469 35.7006 31.6455 36.571 30.8208C37.0546 30.485 37.1306 30.3294 37.8198 30.0987C38.5182 29.8649 39.303 29.717 40.1635 29.717Z" fill="#451F21"/>
<path d="M40.3513 32.8096C48.3591 26.5596 48.9141 22.9463 50.4311 21.6881C51.7461 22.9463 55.3802 26.7354 59.1409 29.9379C63.6602 33.7862 68.8359 37.2041 72.3516 37.2041C71.797 31.2106 69.3186 13.5433 65.4041 10.0588C60.511 5.70333 50.4311 4.47486 40.3513 7.60189C32.2874 10.1035 26.9121 31.2517 25.3789 38.4737C29.9688 38.8643 32.9583 38.5797 40.3513 32.8096Z" fill="#451F21"/>
</g>
</svg>
