<svg width="100" height="97" viewBox="0 0 100 97" fill="none" xmlns="http://www.w3.org/2000/svg">
<mask id="mask0_1_666" style="mask-type:alpha" maskUnits="userSpaceOnUse" x="0" y="0" width="100" height="92">
<path d="M94.7099 51.7367C88.1579 61.9725 88.0001 75 80.5001 81.5C73.0001 88 61.0001 91.1593 50.0001 91C39 90.8407 27.0001 88 20.5001 83.5C14.0001 79 10.7098 67 8.00006 51.7367C8.00001 41.5 -1.20734 34.6156 0.925011 25.8068C5.48094 5.74112 14.0793 1.46484 36.0352 0H61.5402C88.4766 2.44141 94.5192 5.74112 99.0751 25.8068C101.207 34.6156 99.6123 44.0897 94.7099 51.7367Z" fill="#C4C4C4"/>
</mask>
<g mask="url(#mask0_1_666)">
<path d="M74.9884 27.3408C74.9884 14.4657 64.5137 3.60137 50.5743 3.02443C44.7512 2.78342 40.2033 4.34275 36.5118 6.93068C31.3665 10.5378 28.9495 12.3994 26.3556 17.2822C23.0352 23.5322 21.7657 34.2744 21.7657 39.1572V63.4737C21.2271 72.7044 18.5244 81.0393 18.5001 88L83.8751 83.5908C83.9871 76.6787 80.6485 70.4072 78.504 61.6182C76.6454 54.001 74.9884 34.4697 74.9884 27.3408Z" fill="#451F21"/>
<path d="M43.3346 59.259H57.4544C57.39 60.9676 57.2997 64.7909 57.4544 66.4157C57.6479 68.4466 59.1952 71.3479 62.8703 73.1855C64.4208 73.9607 65.7474 74.4433 67.1481 74.9528C69.0674 75.651 71.1256 76.3997 74.0888 78.021C78.1894 80.2647 86.5975 88.5626 89.7889 92.431L51.0001 96.5L12.0001 92.431C15.1915 88.5626 22.5996 80.2647 26.7002 78.021C29.6634 76.3997 31.7216 75.651 33.6409 74.9528C35.0416 74.4433 36.3683 73.9607 37.9187 73.1855C41.5938 71.3479 43.1411 68.4466 43.3346 66.4157C43.4893 64.7909 43.399 60.9676 43.3346 59.259Z" fill="#F7B1A8"/>
<mask id="mask1_1_666" style="mask-type:alpha" maskUnits="userSpaceOnUse" x="12" y="61" width="77" height="34">
<path d="M43.3346 61.2121H57.4544C57.39 62.9207 57.2997 66.744 57.4544 68.3688C57.6479 70.3997 59.1952 73.3011 62.8703 75.1386C64.4207 75.9138 65.7474 76.3964 67.1481 76.9059C69.0674 77.6041 71.1256 78.3528 74.0888 79.9742C78.1894 82.2179 85.5975 90.5157 88.7889 94.3842H12.0001C15.1915 90.5157 22.5996 82.2179 26.7002 79.9742C29.6634 78.3528 31.7216 77.6041 33.6409 76.9059C35.0416 76.3964 36.3683 75.9138 37.9187 75.1386C41.5938 73.3011 43.1411 70.3997 43.3346 68.3688C43.4893 66.744 43.399 62.9207 43.3346 61.2121Z" fill="#FFA39C"/>
</mask>
<g mask="url(#mask1_1_666)">
<path d="M35.0336 14.1718C34.0638 17.5438 31.9147 25.0159 31.7372 36.8558C31.4648 55.0197 36.5038 59.4425 41.3187 63.6685C41.6402 63.9507 41.9608 64.2321 42.2787 64.5166C45.5555 67.4492 48.7895 68.1103 50.1808 68.2588C51.5722 68.1103 54.8062 67.4492 58.083 64.5166C58.4009 64.2321 58.7214 63.9507 59.043 63.6685C63.8578 59.4425 68.8968 55.0197 68.6244 36.8558C68.4469 25.0159 66.2978 17.5438 65.328 14.1718C65.0251 13.1188 64.8373 12.4656 64.8604 12.2041H35.5013C35.5244 12.4656 35.3365 13.1188 35.0336 14.1718Z" fill="#E7ABA4"/>
</g>
<path d="M35.0336 16.125C34.0638 19.497 31.9147 21.1096 31.7372 32.9495C31.4648 51.1135 36.5038 55.5362 41.3187 59.7623C41.6402 60.0445 41.9608 60.3259 42.2787 60.6104C45.5555 63.5429 48.7895 64.2041 50.1808 64.3526C51.5722 64.2041 54.8062 63.5429 58.083 60.6104C58.4009 60.3259 58.7214 60.0445 59.043 59.7623C63.8578 55.5362 68.8968 51.1135 68.6244 32.9495C68.4469 21.1096 66.2978 19.497 65.328 16.125C65.0251 15.0719 64.8373 14.4187 64.8604 14.1573H35.5013C35.5244 14.4187 35.3365 15.0719 35.0336 16.125Z" fill="#FFBBB2"/>
<path fill-rule="evenodd" clip-rule="evenodd" d="M48.5553 49.8994C48.1837 49.8994 47.8784 50.0247 47.6023 50.2107C47.3345 50.3912 47.0806 50.6387 46.8127 50.8998L46.8042 50.9081C46.5855 51.1213 46.3526 51.3482 46.0818 51.5747C45.6653 51.9229 45.0173 52.3161 44.4818 52.6405C44.4818 52.6405 43.6407 52.9555 43.6407 53.0551C43.6407 53.1547 44.0848 53.3433 44.0848 53.3433C44.2096 53.409 44.3509 53.4986 44.4986 53.604C44.7938 53.8146 45.1024 54.0793 45.3392 54.3168C45.4504 54.4284 45.5593 54.5714 45.6794 54.7379C45.7074 54.7767 45.7361 54.8169 45.7653 54.8579C45.859 54.9893 45.9595 55.1301 46.0682 55.2684C46.3541 55.6323 46.718 56.0071 47.2509 56.2299C48.2588 56.6513 48.9722 56.7354 50.0631 56.7354C50.1052 56.7354 50.1459 56.7328 50.1852 56.7276C50.2245 56.7328 50.2652 56.7354 50.3072 56.7354C51.3982 56.7354 52.1115 56.6513 53.1194 56.2299C53.6523 56.0071 54.0162 55.6323 54.3022 55.2684C54.4109 55.1301 54.5113 54.9892 54.605 54.8579C54.6343 54.8168 54.6629 54.7767 54.6909 54.7379C54.811 54.5714 54.92 54.4284 55.0312 54.3168C55.2679 54.0793 55.5765 53.8146 55.8718 53.604C56.0194 53.4986 56.1607 53.409 56.2855 53.3433C56.2855 53.3433 56.7266 53.236 56.7266 53.1073C56.7266 52.9785 56.0434 52.6429 56.0434 52.6429L56.0394 52.6405C55.504 52.3161 54.8559 51.9229 54.4395 51.5747C54.1686 51.3482 53.9357 51.1213 53.717 50.9081L53.7085 50.8998C53.4407 50.6387 53.1868 50.3912 52.9189 50.2107C52.6429 50.0247 52.3375 49.8994 51.966 49.8994C51.4942 49.8994 51.1789 50.077 50.9194 50.223L50.91 50.2284C50.6763 50.3599 50.4976 50.4566 50.2606 50.468C50.0236 50.4566 49.845 50.3599 49.6113 50.2284L49.6018 50.223C49.3424 50.077 49.0271 49.8994 48.5553 49.8994ZM48.9149 53.6838C48.5228 53.5609 48.0961 53.4304 47.6873 53.3196C47.699 53.3176 47.7104 53.3156 47.7215 53.3135C48.0939 53.2444 48.4795 53.1198 48.8447 53.0018L48.8524 52.9993C49.3783 52.8294 49.8531 52.6782 50.2606 52.667C50.6682 52.6782 51.1429 52.8294 51.6688 52.9993L51.6766 53.0018C52.0238 53.114 52.3896 53.2321 52.7448 53.303C52.3174 53.4172 51.8673 53.5547 51.4555 53.6838C51.3266 53.7242 51.2018 53.7637 51.0828 53.8014C51.0828 53.8014 50.4045 54.0792 50.1852 54.0792C49.9658 54.0792 49.2875 53.8013 49.2875 53.8013C49.1684 53.7637 49.0437 53.7242 48.9149 53.6838Z" fill="#FF8389"/>
<path d="M47.6873 53.3196C48.0961 53.4304 48.5228 53.5609 48.9149 53.6838C49.0437 53.7242 49.1684 53.7637 49.2875 53.8013C49.2875 53.8013 49.9658 54.0792 50.1852 54.0792C50.4045 54.0792 51.0828 53.8014 51.0828 53.8014C51.2018 53.7637 51.3266 53.7242 51.4555 53.6838C51.8673 53.5547 52.3174 53.4172 52.7448 53.303C52.3896 53.2321 52.0238 53.114 51.6766 53.0018L51.6688 52.9993C51.1429 52.8294 50.6682 52.6782 50.2606 52.667C49.8531 52.6782 49.3783 52.8294 48.8524 52.9993L48.8447 53.0018C48.4795 53.1198 48.0939 53.2444 47.7215 53.3135C47.7104 53.3156 47.699 53.3176 47.6873 53.3196Z" fill="#FF8389"/>
<path d="M48.6304 43.0158C48.9806 42.6989 49.3587 42.3164 50.3571 42.2822C51.3555 42.2481 52.0837 43.0158 52.0837 43.0158C52.7089 43.5816 52.8567 44.8717 52.6498 44.8717C52.5295 44.8717 52.3119 44.6618 52.0987 44.456C51.945 44.3078 51.7937 44.1617 51.6827 44.098C51.3567 43.911 50.9274 43.558 50.3571 43.5518C49.7868 43.558 49.3575 43.911 49.0315 44.098C48.9205 44.1617 48.7691 44.3078 48.6155 44.456L48.6155 44.456C48.4023 44.6618 48.1846 44.8717 48.0644 44.8717C47.8574 44.8717 48.0052 43.5816 48.6304 43.0158Z" fill="#E3A39B"/>
<circle cx="42.3266" cy="36.6768" r="1.5625" fill="#451F21"/>
<path d="M39.5672 34.2599C40.1717 34.1128 40.6001 34.0085 41.6666 34.1395C42.7002 34.2664 43.0148 34.3867 43.6976 34.6958C44.0428 34.8521 44.7958 35.3684 45.0172 35.7025L45.0187 35.7047C45.2233 36.0137 45.4599 36.3708 45.4355 36.57C45.063 36.3984 45.1108 36.2662 44.5959 35.9278C44.1103 35.6086 42.8385 35.281 41.9337 35.1699C41.3287 35.0956 40.5733 35.1797 40.1377 35.2857C40.0605 35.3045 39.9771 35.3262 39.8872 35.3496C39.4549 35.4622 39.2557 35.6086 38.2031 35.6328C37.8659 35.6406 37.1598 35.5815 36.5228 35.4265C35.8858 35.2715 35.1159 34.9908 35.0047 34.9797C35.0582 34.985 36.7647 35.066 37.3691 34.9458C38.176 34.7853 39.0381 34.4036 39.5521 34.2636L39.5672 34.2599Z" fill="#451F21"/>
<circle r="1.5625" transform="matrix(-1 0 0 1 58.4222 36.6768)" fill="#451F21"/>
<path d="M61.1908 34.2599C60.5862 34.1128 60.1578 34.0085 59.0913 34.1395C58.0578 34.2664 57.7431 34.3867 57.0604 34.6958C56.7151 34.8521 55.9621 35.3684 55.7407 35.7025L55.7393 35.7047C55.5346 36.0137 55.298 36.3708 55.3224 36.57C55.695 36.3984 55.6471 36.2662 56.162 35.9278C56.6476 35.6086 57.9194 35.281 58.8242 35.1699C59.4292 35.0956 60.1846 35.1797 60.6202 35.2857C60.6975 35.3045 60.7808 35.3262 60.8707 35.3496L60.8707 35.3496C61.303 35.4622 61.5022 35.6086 62.5548 35.6328C62.892 35.6406 63.5981 35.5815 64.2351 35.4265C64.8721 35.2715 65.642 34.9908 65.7533 34.9797C65.6997 34.985 63.9933 35.066 63.3889 34.9458C62.5819 34.7853 61.7198 34.4036 61.2058 34.2636L61.1908 34.2599Z" fill="#451F21"/>
<path d="M60.5352 29.717C59.4272 29.717 58.9043 29.656 58.325 29.717C57.3695 29.8176 56.8291 29.8519 56.2383 29.9776C55.9425 30.0405 55.3497 30.0937 55.1846 30.1354C54.7224 30.2675 54.4547 30.9446 54.5868 31.4068C54.7188 31.8689 55.2003 31.9412 55.6624 31.8094L55.6626 31.8093L55.6628 31.8093L55.6638 31.809C56.5842 31.6061 56.9162 31.5109 57.9961 31.4578C59.0335 31.4068 59.4577 31.4068 60.2422 31.4068C60.8111 31.4068 61.4141 31.4068 62.1954 31.4578C62.8335 31.4995 63.7181 31.5076 64.1277 31.6377C64.5373 31.7678 64.708 31.8371 65.4817 32.1272C65.0948 31.5469 64.9981 31.6455 64.1277 30.8208C63.6442 30.485 63.5682 30.3294 62.8789 30.0987C62.1805 29.8649 61.3957 29.717 60.5352 29.717Z" fill="#451F21"/>
<path d="M40.1637 29.717C41.2717 29.717 41.7945 29.656 42.3738 29.717C43.3293 29.8176 43.8698 29.8519 44.4605 29.9776C44.7563 30.0405 45.3491 30.0937 45.5143 30.1354C45.9765 30.2675 46.2441 30.9446 46.1121 31.4068C45.98 31.8689 45.4985 31.9412 45.0364 31.8094L45.0362 31.8093L45.036 31.8093L45.0351 31.809C44.1146 31.6061 43.7827 31.5109 42.7027 31.4578C41.6654 31.4068 41.2411 31.4068 40.4566 31.4068C39.8877 31.4068 39.2848 31.4068 38.5035 31.4578C37.8653 31.4995 36.9807 31.5076 36.5711 31.6377C36.1615 31.7678 35.9909 31.8371 35.2172 32.1272C35.604 31.5469 35.7007 31.6455 36.5711 30.8208C37.0547 30.485 37.1307 30.3294 37.8199 30.0987C38.5184 29.8649 39.3032 29.717 40.1637 29.717Z" fill="#451F21"/>
<path d="M40.3513 32.8096C48.3592 26.5596 48.9141 22.9463 50.4312 21.6881C51.7462 22.9463 55.3802 26.7354 59.141 29.9379C63.6602 33.7862 68.836 37.2041 72.3516 37.2041C71.7971 31.2106 69.3187 13.5433 65.4042 10.0589C60.5111 5.70335 50.4312 4.47487 40.3513 7.6019C32.2875 10.1035 26.9121 31.2517 25.379 38.4737C29.9688 38.8643 32.9583 38.5798 40.3513 32.8096Z" fill="#451F21"/>
</g>
</svg>
