<svg width="78" height="94" viewBox="0 0 78 94" fill="none" xmlns="http://www.w3.org/2000/svg">
<path d="M62.9882 24.3408C62.9882 11.4657 52.5136 0.601372 38.5742 0.0244345C32.7511 -0.216576 28.2032 1.34275 24.5117 3.93068C19.3663 7.5378 16.9494 9.39943 14.3554 14.2822C11.0351 20.5322 9.76559 31.2744 9.76559 36.1572V60.4737C9.22695 69.7044 6.52425 78.0393 6.5 85L71.875 80.5908C71.987 73.6787 68.6484 67.4072 66.5039 58.6182C64.6453 51.001 62.9882 31.4697 62.9882 24.3408Z" fill="#451F21"/>
<path d="M31.3345 56.259H45.4544C45.3899 57.9676 45.2996 61.7909 45.4544 63.4157C45.6478 65.4466 47.1952 68.3479 50.8702 70.1855C52.4207 70.9607 53.7474 71.4433 55.1481 71.9528C57.0673 72.651 59.1255 73.3997 62.0887 75.021C66.1893 77.2647 74.5974 85.5626 77.7889 89.431L39 93.5L0 89.431C3.19148 85.5626 10.5996 77.2647 14.7001 75.021C17.6633 73.3997 19.7215 72.651 21.6408 71.9528C23.0415 71.4433 24.3682 70.9607 25.9187 70.1855C29.5937 68.3479 31.1411 65.4466 31.3345 63.4157C31.4892 61.7909 31.399 57.9676 31.3345 56.259Z" fill="#F7B1A8"/>
<mask id="mask0_78_597" style="mask-type:alpha" maskUnits="userSpaceOnUse" x="0" y="58" width="77" height="34">
<path d="M31.3345 58.2121H45.4544C45.3899 59.9207 45.2996 63.744 45.4544 65.3688C45.6478 67.3997 47.1952 70.301 50.8702 72.1386C52.4207 72.9138 53.7474 73.3964 55.1481 73.9059C57.0673 74.6041 59.1255 75.3528 62.0887 76.9741C66.1893 79.2178 73.5974 87.5157 76.7889 91.3842H0C3.19148 87.5157 10.5996 79.2178 14.7001 76.9741C17.6633 75.3528 19.7215 74.6041 21.6408 73.9059C23.0415 73.3964 24.3682 72.9138 25.9187 72.1386C29.5937 70.301 31.1411 67.3997 31.3345 65.3688C31.4892 63.744 31.399 59.9207 31.3345 58.2121Z" fill="#FFA39C"/>
</mask>
<g mask="url(#mask0_78_597)">
<path d="M23.0336 11.1718C22.0637 14.5438 19.9147 22.0159 19.7371 33.8558C19.4648 52.0197 24.5038 56.4425 29.3186 60.6685C29.6402 60.9507 29.9607 61.2321 30.2786 61.5166C33.5554 64.4492 36.7894 65.1103 38.1808 65.2588C39.5721 65.1103 42.8061 64.4492 46.0829 61.5166C46.4008 61.2321 46.7214 60.9507 47.0429 60.6685C51.8578 56.4425 56.8967 52.0197 56.6244 33.8558C56.4469 22.0159 54.2978 14.5438 53.3279 11.1718C53.0251 10.1188 52.8372 9.46558 52.8603 9.2041H23.5012C23.5243 9.46558 23.3364 10.1188 23.0336 11.1718Z" fill="#E7ABA4"/>
</g>
<path d="M23.0336 13.125C22.0637 16.497 19.9147 18.1096 19.7371 29.9495C19.4648 48.1135 24.5038 52.5362 29.3186 56.7623C29.6402 57.0445 29.9607 57.3259 30.2786 57.6104C33.5554 60.5429 36.7894 61.2041 38.1808 61.3526C39.5721 61.2041 42.8061 60.5429 46.0829 57.6104C46.4008 57.3259 46.7214 57.0445 47.0429 56.7623C51.8578 52.5362 56.8967 48.1135 56.6244 29.9495C56.4469 18.1096 54.2978 16.497 53.3279 13.125C53.0251 12.0719 52.8372 11.4187 52.8603 11.1573H23.5012C23.5243 11.4187 23.3364 12.0719 23.0336 13.125Z" fill="#FFBBB2"/>
<path fill-rule="evenodd" clip-rule="evenodd" d="M36.5552 46.8994C36.1837 46.8994 35.8783 47.0247 35.6023 47.2107C35.3344 47.3912 35.0805 47.6387 34.8127 47.8998L34.8042 47.9081C34.5855 48.1213 34.3525 48.3482 34.0817 48.5747C33.6652 48.9229 33.0172 49.3161 32.4818 49.6405C32.4818 49.6405 31.6406 49.9555 31.6406 50.0551C31.6406 50.1547 32.0847 50.3433 32.0847 50.3433C32.2096 50.409 32.3509 50.4986 32.4985 50.604C32.7938 50.8146 33.1024 51.0793 33.3391 51.3168C33.4503 51.4284 33.5592 51.5714 33.6793 51.7379C33.7073 51.7767 33.736 51.8169 33.7653 51.8579C33.859 51.9893 33.9594 52.1301 34.0681 52.2684C34.3541 52.6323 34.7179 53.0071 35.2508 53.2299C36.2588 53.6513 36.9721 53.7354 38.0631 53.7354C38.1051 53.7354 38.1458 53.7328 38.1851 53.7276C38.2244 53.7328 38.2651 53.7354 38.3071 53.7354C39.3981 53.7354 40.1115 53.6513 41.1194 53.2299C41.6523 53.0071 42.0161 52.6323 42.3021 52.2684C42.4108 52.1301 42.5113 51.9892 42.605 51.8579C42.6342 51.8168 42.6629 51.7767 42.6909 51.7379C42.811 51.5714 42.9199 51.4284 43.0311 51.3168C43.2678 51.0793 43.5765 50.8146 43.8717 50.604C44.0194 50.4986 44.1606 50.409 44.2855 50.3433C44.2855 50.3433 44.7266 50.236 44.7266 50.1073C44.7266 49.9785 44.0433 49.6429 44.0433 49.6429L44.0394 49.6405C43.5039 49.3161 42.8559 48.9229 42.4394 48.5747C42.1686 48.3482 41.9357 48.1213 41.717 47.9081L41.7085 47.8998C41.4406 47.6387 41.1867 47.3912 40.9189 47.2107C40.6428 47.0247 40.3374 46.8994 39.9659 46.8994C39.4941 46.8994 39.1788 47.077 38.9194 47.223L38.9099 47.2284C38.6762 47.3599 38.4975 47.4566 38.2606 47.468C38.0236 47.4566 37.8449 47.3599 37.6112 47.2284L37.6018 47.223C37.3423 47.077 37.027 46.8994 36.5552 46.8994ZM36.9148 50.6838C36.5228 50.5609 36.0961 50.4304 35.6872 50.3196C35.6989 50.3176 35.7104 50.3156 35.7215 50.3135C36.0938 50.2444 36.4795 50.1198 36.8446 50.0018L36.8524 49.9993C37.3783 49.8294 37.853 49.6782 38.2606 49.667C38.6681 49.6782 39.1429 49.8294 39.6688 49.9993L39.6765 50.0018C40.0237 50.114 40.3895 50.2321 40.7448 50.303C40.3173 50.4172 39.8672 50.5547 39.4554 50.6838C39.3265 50.7242 39.2018 50.7637 39.0827 50.8014C39.0827 50.8014 38.4045 51.0792 38.1851 51.0792C37.9658 51.0792 37.2875 50.8013 37.2875 50.8013C37.1684 50.7637 37.0437 50.7242 36.9148 50.6838Z" fill="#FF8389"/>
<path d="M35.6872 50.3196C36.0961 50.4304 36.5228 50.5609 36.9148 50.6838C37.0437 50.7242 37.1684 50.7637 37.2875 50.8013C37.2875 50.8013 37.9658 51.0792 38.1851 51.0792C38.4045 51.0792 39.0827 50.8014 39.0827 50.8014C39.2018 50.7637 39.3265 50.7242 39.4554 50.6838C39.8672 50.5547 40.3173 50.4172 40.7448 50.303C40.3895 50.2321 40.0237 50.114 39.6765 50.0018L39.6688 49.9993C39.1429 49.8294 38.6681 49.6782 38.2606 49.667C37.853 49.6782 37.3783 49.8294 36.8524 49.9993L36.8446 50.0018C36.4795 50.1198 36.0938 50.2444 35.7215 50.3135C35.7104 50.3156 35.6989 50.3176 35.6872 50.3196Z" fill="#FF8389"/>
<path d="M36.6305 40.0158C36.9807 39.6989 37.3587 39.3164 38.3571 39.2822C39.3556 39.2481 40.0838 40.0158 40.0838 40.0158C40.709 40.5816 40.8568 41.8717 40.6498 41.8717C40.5296 41.8717 40.312 41.6618 40.0987 41.456C39.9451 41.3078 39.7937 41.1617 39.6827 41.098C39.3567 40.911 38.9274 40.558 38.3571 40.5518C37.7869 40.558 37.3576 40.911 37.0316 41.098C36.9206 41.1617 36.7692 41.3078 36.6155 41.456L36.6155 41.456C36.4023 41.6618 36.1847 41.8717 36.0644 41.8717C35.8575 41.8717 36.0053 40.5816 36.6305 40.0158Z" fill="#E3A39B"/>
<circle cx="30.3264" cy="33.6768" r="1.5625" fill="#451F21"/>
<path d="M27.567 31.2599C28.1715 31.1128 28.5999 31.0085 29.6664 31.1395C30.7 31.2664 31.0146 31.3867 31.6974 31.6958C32.0426 31.8521 32.7956 32.3684 33.017 32.7025L33.0185 32.7047C33.2231 33.0137 33.4598 33.3708 33.4353 33.57C33.0628 33.3984 33.1106 33.2662 32.5957 32.9278C32.1101 32.6086 30.8383 32.281 29.9335 32.1699C29.3285 32.0956 28.5731 32.1797 28.1375 32.2857C28.0603 32.3045 27.9769 32.3262 27.887 32.3496C27.4547 32.4622 27.2556 32.6086 26.203 32.6328C25.8657 32.6406 25.1596 32.5815 24.5226 32.4265C23.8856 32.2715 23.1157 31.9908 23.0045 31.9797C23.058 31.985 24.7645 32.066 25.3689 31.9458C26.1758 31.7853 27.0379 31.4036 27.5519 31.2636L27.567 31.2599Z" fill="#451F21"/>
<circle r="1.5625" transform="matrix(-1 0 0 1 46.4219 33.6768)" fill="#451F21"/>
<path d="M49.1906 31.2599C48.5861 31.1128 48.1576 31.0085 47.0911 31.1395C46.0576 31.2664 45.7429 31.3867 45.0602 31.6958C44.715 31.8521 43.9619 32.3684 43.7405 32.7025L43.7391 32.7047C43.5344 33.0137 43.2978 33.3708 43.3222 33.57C43.6948 33.3984 43.6469 33.2662 44.1618 32.9278C44.6474 32.6086 45.9193 32.281 46.8241 32.1699C47.4291 32.0956 48.1844 32.1797 48.62 32.2857C48.6973 32.3045 48.7806 32.3262 48.8705 32.3496L48.8705 32.3496C49.3028 32.4622 49.502 32.6086 50.5546 32.6328C50.8919 32.6406 51.5979 32.5815 52.2349 32.4265C52.8719 32.2715 53.6419 31.9908 53.7531 31.9797C53.6996 31.985 51.9931 32.066 51.3887 31.9458C50.5817 31.7853 49.7196 31.4036 49.2056 31.2636L49.1906 31.2599Z" fill="#451F21"/>
<path d="M48.5352 26.717C47.4272 26.717 46.9043 26.656 46.325 26.717C45.3695 26.8176 44.8291 26.8519 44.2383 26.9776C43.9425 27.0405 43.3497 27.0937 43.1846 27.1354C42.7224 27.2675 42.4547 27.9446 42.5868 28.4068C42.7188 28.8689 43.2003 28.9412 43.6624 28.8094L43.6626 28.8093L43.6628 28.8093L43.6638 28.809C44.5842 28.6061 44.9162 28.5109 45.9961 28.4578C47.0335 28.4068 47.4577 28.4068 48.2422 28.4068C48.8111 28.4068 49.4141 28.4068 50.1954 28.4578C50.8335 28.4995 51.7181 28.5076 52.1277 28.6377C52.5373 28.7678 52.708 28.8371 53.4817 29.1272C53.0948 28.5469 52.9981 28.6455 52.1277 27.8208C51.6442 27.485 51.5682 27.3294 50.8789 27.0987C50.1805 26.8649 49.3957 26.717 48.5352 26.717Z" fill="#451F21"/>
<path d="M28.1635 26.717C29.2716 26.717 29.7944 26.656 30.3737 26.717C31.3292 26.8176 31.8697 26.8519 32.4604 26.9776C32.7562 27.0405 33.349 27.0937 33.5142 27.1354C33.9764 27.2675 34.244 27.9446 34.1119 28.4068C33.9799 28.8689 33.4984 28.9412 33.0363 28.8094L33.0361 28.8093L33.0359 28.8093L33.035 28.809C32.1145 28.6061 31.7826 28.5109 30.7026 28.4578C29.6653 28.4068 29.241 28.4068 28.4565 28.4068C27.8876 28.4068 27.2846 28.4068 26.5034 28.4578C25.8652 28.4995 24.9806 28.5076 24.571 28.6377C24.1614 28.7678 23.9907 28.8371 23.217 29.1272C23.6039 28.5469 23.7006 28.6455 24.571 27.8208C25.0546 27.485 25.1306 27.3294 25.8198 27.0987C26.5182 26.8649 27.303 26.717 28.1635 26.717Z" fill="#451F21"/>
<path d="M28.3513 29.8096C36.3591 23.5596 36.9141 19.9463 38.4311 18.6881C39.7461 19.9463 43.3802 23.7354 47.1409 26.9379C51.6602 30.7862 56.8359 34.2041 60.3516 34.2041C59.797 28.2106 57.3186 10.5433 53.4041 7.05886C48.511 2.70335 38.4311 1.47487 28.3513 4.6019C20.2874 7.10353 14.9121 28.2517 13.3789 35.4737C17.9688 35.8643 20.9583 35.5798 28.3513 29.8096Z" fill="#451F21"/>
</svg>
