<svg xmlns="http://www.w3.org/2000/svg"><defs><filter id="a" x="0" y="0" width="26" height="26" filterUnits="userSpaceOnUse" color-interpolation-filters="sRGB"><feFlood flood-opacity="0" result="BackgroundImageFix"/><feColorMatrix in="SourceAlpha" values="0 0 0 0 0 0 0 0 0 0 0 0 0 0 0 0 0 0 127 0" result="hardAlpha"/><feOffset dy="4"/><feGaussianBlur stdDeviation="2"/><feComposite in2="hardAlpha" operator="out"/><feColorMatrix values="0 0 0 0 0 0 0 0 0 0 0 0 0 0 0 0 0 0 0.25 0"/><feBlend in2="BackgroundImageFix" result="effect1_dropShadow_78_2203"/><feBlend in="SourceGraphic" in2="effect1_dropShadow_78_2203" result="shape"/></filter><filter id="b" x="-4" y="10.986" width="158" height="140.491" filterUnits="userSpaceOnUse" color-interpolation-filters="sRGB"><feFlood flood-opacity="0" result="BackgroundImageFix"/><feColorMatrix in="SourceAlpha" values="0 0 0 0 0 0 0 0 0 0 0 0 0 0 0 0 0 0 127 0" result="hardAlpha"/><feOffset dy="4"/><feGaussianBlur stdDeviation="2"/><feComposite in2="hardAlpha" operator="out"/><feColorMatrix values="0 0 0 0 0 0 0 0 0 0 0 0 0 0 0 0 0 0 0.25 0"/><feBlend in2="BackgroundImageFix" result="effect1_dropShadow_1_2"/><feBlend in="SourceGraphic" in2="effect1_dropShadow_1_2" result="shape"/></filter><clipPath id="a"><path fill="#fff" d="M0 0h150v150H0z"/></clipPath></defs><symbol id="arrow back" viewBox="0 0 26 23"><path fill-rule="evenodd" clip-rule="evenodd" d="M5.125 9a.562.562 0 0 1 .562-.563h13.268l-3.54-3.539a.563.563 0 1 1 .796-.796l4.5 4.5a.561.561 0 0 1 0 .796l-4.5 4.5a.563.563 0 1 1-.797-.796l3.54-3.54H5.688A.563.563 0 0 1 5.125 9z" fill="#961A20" stroke="#961A20" stroke-width=".5" filter="url(#a)"/></symbol><symbol id="arrow back_white" viewBox="0 0 18 18"><path fill-rule="evenodd" clip-rule="evenodd" d="M1.125 9a.562.562 0 0 1 .562-.562h13.268l-3.54-3.54a.563.563 0 1 1 .796-.796l4.5 4.5a.561.561 0 0 1 0 .796l-4.5 4.5a.563.563 0 1 1-.797-.796l3.54-3.54H1.688A.563.563 0 0 1 1.125 9z" fill="#fff" stroke="#fff" stroke-width=".5"/></symbol><symbol id="broken" viewBox="0 0 26 13"><path d="M26 6.219v4.695a2.275 2.275 0 0 1-1.397 1.91 2.262 2.262 0 0 1-.872.174l-4.547-.004a2.278 2.278 0 0 1-2.276-2.284V7.37a11.054 11.054 0 0 0-3.907-.703 11.012 11.012 0 0 0-3.9.71v3.338A2.278 2.278 0 0 1 6.825 13H2.278a2.277 2.277 0 0 1-2.276-2.284L0 6.476a3.712 3.712 0 0 1 1.53-2.998C4.659 1.233 8.73-.002 13.005 0c4.28.002 8.355 1.237 11.47 3.48.16.113.312.24.456.386A3.713 3.713 0 0 1 26 6.219z" fill="#E11014"/></symbol><symbol id="chat" viewBox="0 0 31 27"><path d="M11.944.375A10.937 10.937 0 0 0 2.031 15.94L.975 20.084a1.823 1.823 0 0 0 2.193 2.223c1.094-.263 2.775-.667 4.273-1.024A10.937 10.937 0 1 0 11.943.375h.002zm-8.75 10.938a8.75 8.75 0 1 1 4.857 7.838l-.356-.176-.385.091c-1.346.321-2.902.693-4.066.973L4.25 16.09l.102-.402-.19-.37a8.707 8.707 0 0 1-.967-4.005zm16.042 15.312a10.9 10.9 0 0 1-7.437-2.917h.146c1.047 0 2.063-.13 3.033-.374a8.718 8.718 0 0 0 4.258 1.104c1.4 0 2.721-.329 3.894-.912l.354-.176.385.091c1.345.321 2.867.65 3.996.89-.255-1.095-.604-2.56-.936-3.866l-.102-.402.19-.37a8.707 8.707 0 0 0 .97-4.006 8.743 8.743 0 0 0-4.007-7.352 12.313 12.313 0 0 0-1.166-2.986 10.943 10.943 0 0 1 6.334 14.967c.37 1.47.743 3.063.979 4.088a1.813 1.813 0 0 1-2.14 2.188c-1.419-.296-2.835-.607-4.247-.934-1.416.64-2.951.97-4.504.967z"/></symbol><symbol id="connecting" viewBox="0 0 150 150"><g filter="url(#b)" clip-path="url(#a)"><path d="M92.31 131.157c16.343-12.262 39.927-31.46 49.755-46.814 7.353-11.47 9.746-25.681 6.548-38.895-6.834-30.098-44.677-42.397-68.249-22.227-1.326 1.127-2.548 2.376-3.802 3.66A149.65 149.65 0 0 1 75 28.46c-.532-.528-1.05-1.057-1.562-1.58-1.254-1.284-2.476-2.533-3.802-3.66C46.064 3.051 8.221 15.35 1.387 45.45-1.81 58.662.581 72.873 7.935 84.343c9.828 15.354 33.412 34.552 49.755 46.814 4.553 3.418 17.31 12.32 17.31 12.32s12.757-8.902 17.31-12.32z" fill="#FF6C73"/><mask id="c" style="mask-type:alpha" maskUnits="userSpaceOnUse" x="0" y="6" width="150" height="138"><path d="M142.065 84.343c-9.828 15.354-33.412 34.552-49.755 46.814-4.553 3.418-17.31 12.32-17.31 12.32s-12.757-8.902-17.31-12.32c-16.343-12.262-39.927-31.46-49.755-46.814C.581 72.873-1.81 58.662 1.387 45.448 8.221 15.35 21.12 8.937 54.053 6.739H92.31c40.405 3.662 49.469 8.612 56.303 38.71 3.198 13.214.805 27.425-6.548 38.895z" fill="#C4C4C4"/></mask><g mask="url(#c)"><path d="M33.823 137.439l8.736-59.478L72.991 89.56l-7.572 45.395-31.596 2.485z" fill="#E4C1BE"/><path d="M111.795 107.074c-6.383-10.88-.436-12.33 2.466-33.51 1.146-8.365.64-17.452-1.232-26.032l-11.222 12.38-22.943 34.831-4.642 19.149 12.04 35.541c10.397.677 31.916-.435 34.817-10.299 3.627-12.331-2.901-21.18-9.284-32.06z" fill="#FCD7D4"/><path d="M64.287 95.631h21.18c-.097 2.563-.232 8.298 0 10.735.29 3.047 2.61 7.399 8.124 10.155 2.325 1.163 4.315 1.887 6.416 2.651 2.879 1.047 5.966 2.17 10.411 4.602 6.151 3.366 17.263 15.813 22.05 21.615H17.285c4.787-5.802 15.9-18.249 22.05-21.615 4.445-2.432 7.532-3.555 10.411-4.602 2.101-.764 4.091-1.488 6.417-2.651 5.513-2.756 7.834-7.108 8.124-10.155.232-2.437.097-8.172 0-10.735z" fill="#FFA39C"/><mask id="d" style="mask-type:alpha" maskUnits="userSpaceOnUse" x="17" y="98" width="116" height="51"><path d="M64.287 98.56h21.18c-.097 2.564-.232 8.299 0 10.736.29 3.046 2.61 7.398 8.124 10.155 2.325 1.162 4.315 1.886 6.416 2.651 2.879 1.047 5.966 2.17 10.411 4.602 6.151 3.365 17.263 15.812 22.05 21.615H17.285c4.787-5.803 15.9-18.25 22.05-21.615 4.445-2.432 7.532-3.555 10.411-4.602 2.101-.765 4.091-1.489 6.417-2.651 5.513-2.757 7.834-7.109 8.124-10.155.232-2.437.097-8.172 0-10.735z" fill="#FFA39C"/></mask><g mask="url(#d)"><path d="M51.836 28c-1.455 5.058-4.679 16.267-4.945 34.026-.409 27.246 7.15 33.88 14.372 40.219.482.424.963.846 1.44 1.273 4.915 4.398 9.766 5.39 11.853 5.613 2.087-.223 6.938-1.215 11.854-5.613.476-.427.957-.849 1.44-1.273 7.222-6.339 14.78-12.973 14.372-40.219-.267-17.76-3.49-28.968-4.945-34.026-.454-1.58-.736-2.559-.701-2.951H52.537c.035.392-.247 1.372-.701 2.951z" fill="#F29891"/></g><path d="M99.202 79.368c2.393-1.764 5.863-4.544 7.382-6.847 1.136-1.721 1.611-3.913 1.298-6-.649-4.747-5.786-7-9.263-4.069-.196.164-.378.348-.565.536l-.233.233a21.676 21.676 0 0 1-.201-.26 8.466 8.466 0 0 0-.492-.604c-3.075-3.351-8.457-1.773-9.707 2.853-.577 2.03-.386 4.264.522 6.116 1.212 2.478 4.298 5.678 6.447 7.733.599.573 2.283 2.073 2.283 2.073s1.862-1.273 2.529-1.764z" fill="#FFA39C"/><path d="M51.836 22.141c-1.455 5.058-4.679 16.266-4.945 34.026-.409 27.246 7.15 33.88 14.372 40.22.482.422.963.844 1.44 1.271 4.915 4.399 9.766 5.391 11.853 5.613 2.087-.222 6.938-1.214 11.854-5.613.476-.427.957-.849 1.44-1.272 7.222-6.339 14.78-12.973 14.372-40.219-.267-17.76-3.49-28.968-4.945-34.026-.454-1.58-.736-2.56-.701-2.951H52.537c.035.392-.247 1.371-.701 2.951z" fill="#FFB3A9"/><path fill-rule="evenodd" clip-rule="evenodd" d="M72.118 81.592c-.557 0-1.015.188-1.43.467-.401.27-.782.642-1.184 1.033l-.013.013c-.328.32-.677.66-1.083 1-.625.522-1.597 1.112-2.4 1.598 0 0-1.262.473-1.262.622 0 .15.666.432.666.432.188.1.4.234.62.392.444.316.907.713 1.262 1.069a5.3 5.3 0 0 1 .51.632l.13.18c.14.197.29.408.453.615.43.546.975 1.108 1.774 1.443 1.512.632 2.582.758 4.219.758.063 0 .124-.004.183-.012.059.008.12.012.183.012 1.636 0 2.706-.126 4.218-.758.8-.335 1.345-.897 1.774-1.443.163-.207.314-.418.455-.615l.129-.18c.18-.25.343-.465.51-.632a10.43 10.43 0 0 1 1.26-1.07c.222-.157.434-.292.621-.39 0 0 .662-.161.662-.355 0-.193-1.025-.696-1.025-.696l-.006-.004c-.803-.486-1.775-1.076-2.4-1.598-.406-.34-.755-.68-1.083-1l-.013-.013c-.402-.391-.783-.763-1.184-1.033-.415-.28-.873-.467-1.43-.467-.708 0-1.18.266-1.57.485l-.014.008c-.35.198-.619.343-.974.36-.356-.017-.624-.162-.974-.36l-.014-.008c-.39-.219-.862-.485-1.57-.485zm.54 5.676a49.958 49.958 0 0 0-1.842-.546l.051-.01c.559-.103 1.137-.29 1.685-.467l.012-.003c.789-.255 1.5-.482 2.112-.499.611.017 1.323.244 2.112.499l.012.003c.52.169 1.07.346 1.602.452-.64.171-1.316.378-1.934.571l-.559.177s-1.017.416-1.346.416c-.33 0-1.347-.416-1.347-.416l-.559-.177z" fill="#FF6C73"/><path d="M77.41 71.266c-.525-.475-1.092-1.049-2.59-1.1-1.497-.051-2.59 1.1-2.59 1.1-.937.85-1.159 2.784-.848 2.784.18 0 .506-.315.826-.623.23-.223.458-.442.624-.537.49-.28 1.133-.81 1.989-.82.855.01 1.5.54 1.988.82.167.095.394.314.624.537.32.308.646.623.827.623.31 0 .088-1.935-.85-2.784z" fill="#FF6C73"/><ellipse cx="62.739" cy="62.015" rx="2.601" ry="2.601" fill="#451F21"/><path d="M58.517 58.413c.873-.494 1.492-.845 3.103-.845 1.562 0 2.053.183 3.126.686.542.254 1.758 1.2 2.148 1.886l.003.005c.361.634.779 1.366.779 1.818-.586-.281-.54-.59-1.368-1.204-.78-.58-2.734-.963-4.102-.963-.914 0-2.023.395-2.652.751-.112.064-.232.135-.362.212-.623.37-.892.751-2.455 1.094-.5.11-1.563.172-2.54 0-.976-.171-2.174-.587-2.342-.581.081-.003 2.637-.29 3.515-.725 1.172-.58 2.385-1.668 3.125-2.122l.022-.012z" fill="#451F21"/><ellipse rx="2.601" ry="2.601" transform="matrix(-1 0 0 1 86.954 62.015)" fill="#451F21"/><path d="M91.19 58.413c-.873-.494-1.492-.845-3.103-.845-1.562 0-2.053.183-3.126.686-.542.254-1.758 1.2-2.148 1.886l-.003.005c-.361.634-.779 1.366-.779 1.818.586-.281.54-.59 1.368-1.204.781-.58 2.734-.963 4.102-.963.914 0 2.023.395 2.652.751.112.064.232.135.362.212.623.37.892.751 2.455 1.094.5.11 1.563.172 2.54 0 .976-.171 2.174-.587 2.342-.581-.081-.003-2.636-.29-3.514-.725-1.172-.58-2.386-1.668-3.126-2.122l-.022-.012z" fill="#451F21"/><path d="M59.617 50.044c1.478-.284 2.35-.282 3.22-.19 1.432.15 2.377.383 3.263.572.435.092 1.168.278 1.431.344l.016.004a1.306 1.306 0 0 1-.717 2.51h-.002c-1.38-.304-2.25-.53-3.847-.82-1.407-.255-1.886-.27-3.046-.076-.917.154-1.74.282-2.901.592-.927.247-1.852.595-2.467.79-.614.195-1.305.435-2.466.87.58-.87.726-1.015 2.031-2.252.726-.504 1.208-.897 2.321-1.374a14.124 14.124 0 0 1 3.164-.97zM89.992 50.044c-1.479-.284-2.35-.282-3.22-.19-1.433.15-2.377.383-3.263.572-.435.092-1.168.278-1.431.344l-.016.004a1.306 1.306 0 0 0 .717 2.51h.002c1.38-.304 2.25-.53 3.847-.82 1.407-.255 1.885-.27 3.046-.076.917.154 1.74.282 2.901.592.927.247 1.852.595 2.466.79.615.195 1.306.435 2.467.87-.58-.87-.726-1.015-2.031-2.252-.726-.504-1.209-.897-2.321-1.374a14.13 14.13 0 0 0-3.164-.97z" fill="#C9817B"/><path fill-rule="evenodd" clip-rule="evenodd" d="M72.913 26.406c.42-.026.854-.053 1.31-.088 5.512-.436 16.972 6.672 20.164 10.59 1.596 1.958 1.813 4.425 2.067 7.31.254 2.882.544 6.182 2.285 9.807 2.785 5.803 3.556 6.673 4.281 7.689l10.009-14.182c-2.867-13.147-8.94-24.995-17.192-30.789-13.636-9.574-31.19-5.512-42.795 0-11.605 5.513-18.858 27.273-18.858 36.412 0 1.552.058 3.28.122 5.164.312 9.207.75 22.139-4.91 36.47-.506 1.281-1.022 2.577-1.542 3.882-6.493 16.29-13.624 34.181-9.192 45.731 4.787 12.476 29.593 16.393 32.06 5.077 1.815-8.328.958-10.605-.605-14.756-.56-1.488-1.21-3.217-1.862-5.553-1.204-4.32-.091-8.432 1.093-12.81 1.241-4.589 2.561-9.471 1.373-15.188-2.32-11.17-2.9-18.423 2.322-31.19 2.28-5.575 1.877-9.324 1.473-13.084-.522-4.849-1.045-9.715 4.184-18.54 6.815-11.5 9.55-11.667 14.213-11.952z" fill="#FCD7D4"/></g></g></symbol><symbol id="Heart" viewBox="0 0 72 63"><path d="M44.309 57.036c7.844-5.936 19.165-15.229 23.882-22.66 3.53-5.553 4.678-12.432 3.143-18.828-3.28-14.57-21.445-20.524-32.76-10.76-.636.545-1.222 1.15-1.824 1.771-.246.254-.495.51-.75.766a71.486 71.486 0 0 1-.75-.766c-.602-.62-1.188-1.226-1.825-1.771C22.111-4.976 3.946.978.666 15.548-.869 21.944.279 28.822 3.809 34.374 8.526 41.807 19.847 51.1 27.691 57.036 29.877 58.691 36 63 36 63s6.123-4.31 8.309-5.964z" fill="#961A20"/></symbol><symbol id="logo_main" viewBox="0 0 142 102"><path fill-rule="evenodd" clip-rule="evenodd" d="M78.862 0C87.77 0 94 7.15 94 16.274c0 3.353-2.14 5.4-4.45 7.612l-.207.199C94.62 22.509 104.953 20 113 20c11 0 27.5 4.5 28 18.5s-16 22-30 21.5-29.5-6.5-37-11.5c-3.605-2.403-7.15-4.566-9.766-6.162l-.12-.073c-2.798 1.926-8.087 5.59-9.614 6.735a38.97 38.97 0 0 0-1.279 1.027C51.458 51.48 48.667 53.777 44 56.5c2.285-3.047 4.63-5.282 6.677-7.235.64-.611 1.252-1.194 1.823-1.765 2.4-2.4 6.333-6 8-7.5l.31-.175L38.5 26l-.18-.209c-5.052-2.135-12.645-4.6-18.82-4.291-1.07.054-2.047.165-2.934.324C18.808 23.602 22.304 26.625 24 29c2 2.8 5.167 8.833 6.5 11.5 0-.333.2-1.6 1-4 1-3 4.5-7 8.5-5s4 5 4 8.5-2.5 8-5 11c-1.84 2.208-5.514 6.279-7.518 8.473l.018.027c.833 1.667 2.5 5.9 2.5 9.5 0 4.5-3.5 6-5 6s-4-1-4-5.5c0-3.6 2.667-7.833 4-9.5l.255-.34c-.712-.787-2.01-2.212-4.255-4.66-.919-1.002-2.075-2.2-3.364-3.535C15.213 44.809 5.5 34.747 5.5 28.5c0-7.5 9-9 15-9 3.753 0 10.094 1.732 15.151 3.284-1.79-2.098-3.151-4.198-3.151-7.284C32.5 6.372 39.223.172 48.133.172c7.194 0 13.294 3.167 15.38 9.828 2.085-6.662 8.155-10 15.349-10zM30.859 57.578C39.058 47.9 41.105 44.443 41.5 40.5c.5-5-1.5-7.5-4-7.5-1.918 0-4.5 3.5-5 13H31c-1.5-3.333-3.5-9.5-7.5-15s-6.64-7.14-8.994-8.679C11 22.784 9.758 23.873 8.5 28.5c-1.258 4.627 8.5 15 16.5 23 3.519 3.519 5.183 5.284 5.858 6.078zM87 29c-6.8 2.4-16.5 8.333-20.5 11 .028.028.066.07.117.125.539.59 2.479 2.715 8.883 6.375 8.94 5.108 22 11.565 36 12 14 .435 27-8.5 27-20s-15.5-15-25.5-15S95.5 26 87 29zM50.624 16.684l.948.144v7.464l-.972.12V25h3.3v-.588l-1.044-.12V20.8h4.224v3.492l-.984.12V25h3.228v-.588l-.948-.12v-7.464l.948-.144v-.6h-3.216v.6l.972.144v3.228h-4.224v-3.228l1.032-.144v-.6h-3.264v.6zm11.425 7.884c.569.376 1.26.564 2.077.564.767 0 1.46-.192 2.075-.576.625-.392 1.113-.94 1.465-1.644.36-.712.54-1.536.54-2.472 0-1.392-.332-2.48-.996-3.264-.656-.792-1.608-1.188-2.856-1.188-.76 0-1.444.192-2.053.576-.608.376-1.087.912-1.44 1.608-.343.696-.515 1.504-.515 2.424 0 .904.144 1.7.432 2.388.288.68.712 1.208 1.272 1.584zm.397-6.936c.448-.68 1.06-1.02 1.835-1.02.792 0 1.404.34 1.837 1.02.431.672.648 1.612.648 2.82 0 1.304-.229 2.304-.684 3-.448.696-1.056 1.044-1.825 1.044-.784 0-1.396-.348-1.836-1.044-.431-.704-.648-1.656-.648-2.856 0-1.304.224-2.292.672-2.964zm7.568-.84l2.064-.072v7.572l-1.56.12V25h4.584v-.588l-1.704-.12V16.72l2.076.072.396 2.508h.756l-.144-3.216h-7.476l-.204 3.216h.792l.42-2.508z" fill="#FF303A"/><path d="M14.041 89.027a10.204 10.204 0 0 1-2.36 2.036c-1.035.668-1.975 1.003-2.82 1.003-.651 0-.977-.487-.977-1.46 0-.83.259-2.197.777-4.102A15.479 15.479 0 0 1 6.1 90.151c-1.305 1.337-2.532 2.006-3.683 2.006-.806 0-1.43-.375-1.87-1.125C.182 90.404 0 89.634 0 88.722c0-2.572.988-5.014 2.964-7.323 1.975-2.31 4.172-3.475 6.588-3.495 1.42 0 2.61.111 3.568.334-.096.506-.566 2.836-1.41 6.99-.191.81-.45 2.036-.777 3.677 0 .628.164.942.49.942.287 0 1.026-.506 2.215-1.52l.403.7zm-4.373-8.874c0-.264-.125-.477-.374-.639a1.18 1.18 0 0 0-.749-.273c-1.515 0-2.858.962-4.028 2.887-1.055 1.722-1.582 3.434-1.582 5.136 0 1.641.431 2.462 1.295 2.462 1.38 0 2.675-1.277 3.884-3.83 1.036-2.208 1.554-4.123 1.554-5.743z" fill="#FF303A"/><path d="M23.703 79.514c0 .325-.144.659-.432 1.003-.268.345-.566.517-.892.517-.326 0-.767-.284-1.323-.851-.537-.588-1.027-.881-1.468-.881a2.04 2.04 0 0 0-1.237.425c-.384.284-.575.658-.575 1.124 0 .629.46 1.297 1.38 2.006l2.59 1.945c.92.871 1.381 1.803 1.381 2.796 0 1.439-.594 2.584-1.784 3.434-1.035.75-2.263 1.125-3.683 1.125a6.218 6.218 0 0 1-2.445-.486c-.998-.426-1.496-1.024-1.496-1.793 0-1.074.374-1.611 1.122-1.611.403 0 .72.203.95.608.364.628.604.992.719 1.094.422.405 1.074.608 1.956.608 1.496 0 2.244-.568 2.244-1.702 0-.69-.46-1.398-1.38-2.128a204.815 204.815 0 0 1-2.59-1.853c-.92-.79-1.381-1.642-1.381-2.553 0-1.398.575-2.523 1.726-3.374 1.017-.77 2.215-1.155 3.597-1.155 2.014 0 3.02.568 3.02 1.702zM31.734 89.118c-1.822 2.026-3.548 3.039-5.179 3.039-.326 0-.585-.172-.777-.517a1.805 1.805 0 0 1-.201-.972c.038-.973.326-2.553.863-4.741.595-2.452.94-4.083 1.036-4.893.077-.588-.067-.882-.432-.882-.23 0-.575.163-1.035.487-.307.263-.624.527-.95.79l-.403-.73a19.254 19.254 0 0 1 2.475-1.793c1.189-.729 2.08-1.094 2.675-1.094.73 0 1.065.375 1.008 1.125-.077 1.013-.422 2.745-1.036 5.197-.614 2.451-.96 4.163-1.036 5.136-.038.446.077.668.345.668.307 0 1.055-.506 2.244-1.52l.403.7zM46.843 89.027a10.204 10.204 0 0 1-2.36 2.036c-1.035.668-1.975 1.003-2.82 1.003-.651 0-.977-.487-.977-1.46 0-.83.259-2.197.776-4.102a15.478 15.478 0 0 1-2.56 3.647c-1.305 1.337-2.532 2.006-3.683 2.006-.806 0-1.43-.375-1.87-1.125-.365-.628-.547-1.398-.547-2.31 0-2.572.988-5.014 2.964-7.323 1.975-2.31 4.172-3.475 6.589-3.495 1.419 0 2.608.111 3.567.334-.096.506-.566 2.836-1.41 6.99-.191.81-.45 2.036-.776 3.677 0 .628.163.942.489.942.287 0 1.026-.506 2.215-1.52l.403.7zm-4.373-8.874c0-.264-.125-.477-.374-.639a1.18 1.18 0 0 0-.749-.273c-1.515 0-2.858.962-4.028 2.887-1.055 1.722-1.582 3.434-1.582 5.136 0 1.641.431 2.462 1.295 2.462 1.38 0 2.675-1.277 3.884-3.83 1.036-2.208 1.554-4.123 1.554-5.743zM63 89.027a10.205 10.205 0 0 1-2.36 2.036c-1.035.668-1.975 1.003-2.819 1.003-.307 0-.556-.172-.748-.517a2.011 2.011 0 0 1-.23-.973c0-.85.307-2.39.92-4.619.614-2.228.921-3.738.921-4.528 0-.608-.25-.912-.748-.912-.595 0-1.362.598-2.302 1.793a18.756 18.756 0 0 0-1.726 2.705 28.919 28.919 0 0 0-2.417 6.716l-2.388-.243c.383-1.742.767-3.474 1.15-5.197.442-2.046.778-3.819 1.008-5.318.077-.486-.058-.73-.403-.73-.268 0-.93.406-1.985 1.216l-.403-.668c2.32-1.986 4.009-2.979 5.064-2.979.595 0 .892.355.892 1.064 0 .588-.163 1.51-.49 2.766-.383 1.418-.603 2.37-.661 2.856a20.68 20.68 0 0 1 2.906-4.194c1.477-1.66 2.81-2.492 4-2.492 1.17 0 1.754.75 1.754 2.25 0 .709-.287 2.208-.863 4.497-.633 2.513-.978 4.052-1.036 4.62-.057.445.058.668.346.668.287 0 1.026-.506 2.215-1.52l.403.7z" fill="#FF303A"/><path d="M96.104 72.745c0 .536-.199 1.01-.597 1.422-.377.412-.815.619-1.312.619a1.57 1.57 0 0 1-1.134-.464 1.585 1.585 0 0 1-.447-1.145c0-.536.189-1.01.567-1.422.397-.413.855-.619 1.372-.619.418 0 .775.165 1.074.495.318.31.477.68.477 1.114zm.09 16.67c-1.89 2.061-3.68 3.092-5.37 3.092-.338 0-.606-.175-.805-.525a1.809 1.809 0 0 1-.21-.99c.04-.99.339-2.598.896-4.825.616-2.495.974-4.154 1.074-4.98.08-.597-.07-.896-.448-.896-.239 0-.596.165-1.074.495-.318.268-.646.536-.984.804l-.418-.742c.756-.64 1.611-1.248 2.566-1.825 1.233-.742 2.157-1.114 2.774-1.114.756 0 1.104.382 1.044 1.145-.08 1.03-.438 2.794-1.074 5.288-.636 2.495-.994 4.237-1.074 5.227-.04.454.08.68.358.68.318 0 1.094-.515 2.327-1.546l.418.712zM109.591 79.054c0 .453-.14.866-.418 1.237a1.31 1.31 0 0 1-1.074.526c-.079 0-.517-.083-1.312-.248-1.214.206-2.407 1.897-3.58 5.072-.497 1.279-1.144 3.433-1.939 6.464l-2.834-.37c.497-2.31.984-4.64 1.462-6.99.378-1.897.567-3.062.567-3.495 0-.578-.14-.866-.418-.866-.378 0-1.074.412-2.088 1.237l-.448-.712c.696-.618 1.532-1.237 2.506-1.855 1.233-.763 2.158-1.145 2.774-1.145.637 0 .925.34.865 1.021-.099 1.134-.387 2.959-.865 5.474.955-1.876 1.701-3.196 2.238-3.959 1.193-1.69 2.297-2.536 3.311-2.536.835 0 1.253.382 1.253 1.145zM118.821 78.435l-.268 1.237h-3.132c-.517 2.083-1.154 5.196-1.91 9.34-.099.743.16 1.114.776 1.114.617 0 1.551-.557 2.804-1.67l.418.68c-2.068 2.248-3.888 3.371-5.459 3.371-1.253 0-1.86-.7-1.82-2.103.06-2.082.776-5.66 2.148-10.732h-2.327l.269-1.237c1.412.02 2.177-.01 2.297-.093.278-.123.964-1.494 2.058-4.113l1.969-.03-.955 4.236h3.132zM129 79.641c0 .33-.149.67-.447 1.021-.279.35-.587.526-.925.526-.338 0-.796-.289-1.372-.866-.557-.598-1.064-.897-1.522-.897a2.14 2.14 0 0 0-1.282.433c-.398.289-.597.67-.597 1.144 0 .64.477 1.32 1.432 2.041l2.685 1.98c.954.886 1.431 1.835 1.431 2.845 0 1.464-.616 2.63-1.849 3.495-1.074.763-2.347 1.144-3.818 1.144-.895 0-1.74-.165-2.536-.495-1.034-.433-1.551-1.04-1.551-1.824 0-1.093.388-1.64 1.163-1.64.418 0 .746.207.985.62.377.638.626 1.01.745 1.113.438.412 1.114.618 2.029.618 1.551 0 2.327-.577 2.327-1.732 0-.7-.478-1.422-1.432-2.165-.895-.618-1.79-1.247-2.685-1.886-.955-.805-1.432-1.67-1.432-2.598 0-1.423.597-2.567 1.79-3.433 1.054-.784 2.297-1.176 3.729-1.176 2.088 0 3.132.578 3.132 1.732z" fill="#fff"/><path fill-rule="evenodd" clip-rule="evenodd" d="M83.134 68.23c-.155.453-.477.68-.966.68-.338 0-.726-.155-1.163-.465-.577-.37-.945-.587-1.104-.649-1.472.124-2.376 5.67-2.715 10.64h2.864l-.239 1.236h-2.863c-.458 2.949-.546 3.655-.948 8.485l-.06.713c-.354 4.29-.49 5.94-1.44 8.787-.13.186-.265.448-.416.739-.385.738-.866 1.664-1.58 2.019-.994.494-1.899.742-2.714.742-.438 0-.826-.103-1.164-.309-.417-.227-.626-.557-.626-.99 0-.97.358-1.454 1.074-1.454.298 0 .686.186 1.163.557.458.392.875.588 1.253.588 1.052 0 1.22-3.156 1.503-8.469.167-3.124.373-6.994.823-11.408h-2.417l.239-1.237h2.416l.11-.723c.425-2.814 1.085-7.177 1.978-8.462 1.432-2.062 3.202-3.093 5.31-3.093.438 0 .826.103 1.163.31.354.19.557.456.612.795-.26.06-.416.093-.467.101l.06.897.314-.03zm0 0a2.411 2.411 0 0 0 .093-.968c.436-.1 1.165-.272 2.188-.517 1.411-.33 2.217-.495 2.416-.495.258 0 .388.165.388.495 0 .267-.16 1.175-.478 2.721-.674 3.279-1.05 6.464-1.241 8.443-.175 1.808-.687 4.735-1.593 9.91l-.268 1.534c-.08.536.06.804.418.804.278 0 1.073-.536 2.386-1.608l.447.711c-.755.722-1.501 1.433-2.237 2.134-.934.742-1.87 1.113-2.804 1.113-.537 0-.925-.206-1.163-.618-.22-.35-.289-.804-.21-1.361.182-1.29.388-2.875.618-4.647.653-5.021 1.501-11.548 2.545-17.157.06-.35-.249-.526-.925-.526-.13 0-.323.011-.58.033z" fill="#fff"/><path d="M82.76 67.363l.06.897.314-.03a2.411 2.411 0 0 0 .093-.968c-.26.06-.416.093-.467.101z" fill="#fff"/></symbol><symbol id="logo_mini" viewBox="0 0 55 30"><path fill-rule="evenodd" clip-rule="evenodd" d="M29.345 0C32.908 0 35.4 2.86 35.4 6.51c0 1.34-.856 2.16-1.78 3.044l-.083.08C35.648 9.004 39.781 8 43 8c4.4 0 11 1.8 11.2 7.4.2 5.6-6.4 8.8-12 8.6-5.6-.2-11.8-2.6-14.8-4.6-1.442-.961-2.86-1.826-3.907-2.465l-.047-.029c-1.12.77-3.235 2.236-3.846 2.694-.142.107-.31.245-.512.41-.705.582-1.821 1.501-3.688 2.59.914-1.219 1.852-2.113 2.67-2.894h.001c.256-.244.5-.477.729-.706.96-.96 2.533-2.4 3.2-3l.124-.07L13.2 10.4a20.702 20.702 0 0 0-.072-.084C11.108 9.462 8.07 8.476 5.6 8.6a9.294 9.294 0 0 0-1.174.13c.897.711 2.295 1.92 2.974 2.87.8 1.12 2.067 3.533 2.6 4.6 0-.133.08-.64.4-1.6.4-1.2 1.8-2.8 3.4-2 1.6.8 1.6 2 1.6 3.4s-1 3.2-2 4.4c-.736.883-2.206 2.512-3.007 3.39l.007.01c.333.667 1 2.36 1 3.8 0 1.8-1.4 2.4-2 2.4-.6 0-1.6-.4-1.6-2.2 0-1.44 1.067-3.133 1.6-3.8l.102-.136c-.285-.315-.804-.885-1.702-1.864a81.76 81.76 0 0 0-1.346-1.414C3.885 17.924 0 13.899 0 11.4c0-3 3.6-3.6 6-3.6 1.501 0 4.038.693 6.06 1.314-.716-.84-1.26-1.68-1.26-2.914 0-3.651 2.689-6.131 6.253-6.131 2.878 0 5.318 1.267 6.152 3.931.834-2.665 3.262-4 6.14-4zM10.143 23.031c3.28-3.87 4.1-5.254 4.257-6.831.2-2-.6-3-1.6-3-.767 0-1.8 1.4-2 5.2h-.6c-.6-1.333-1.4-3.8-3-6S4.544 9.544 3.602 8.929C2.2 9.114 1.703 9.549 1.2 11.4c-.503 1.85 3.4 6 6.6 9.2 1.408 1.407 2.073 2.114 2.343 2.431zM32.6 11.6c-2.72.96-6.6 3.333-8.2 4.4l.047.05c.215.236.991 1.086 3.553 2.55 3.576 2.043 8.8 4.626 14.4 4.8 5.6.174 10.8-3.4 10.8-8s-6.2-6-10.2-6c-4 0-7 1-10.4 2.2zM18.05 6.674l.379.057v2.986l-.389.048V10h1.32v-.235l-.418-.048V8.32h1.69v1.397l-.394.048V10h1.292v-.235l-.38-.048V6.73l.38-.057v-.24h-1.287v.24l.389.057v1.291h-1.69v-1.29l.413-.058v-.24H18.05v.24zm4.57 3.153c.227.15.504.226.83.226a1.537 1.537 0 0 0 1.416-.888c.144-.285.216-.615.216-.989 0-.557-.133-.992-.398-1.306-.263-.316-.643-.475-1.143-.475-.304 0-.577.077-.82.23-.244.151-.436.365-.576.644a2.162 2.162 0 0 0-.207.97c0 .361.058.68.173.955.115.272.285.483.509.633zm.158-2.774c.18-.272.424-.408.735-.408.316 0 .561.136.734.408.173.269.26.645.26 1.128 0 .521-.092.921-.274 1.2-.18.278-.423.417-.73.417-.314 0-.558-.139-.734-.417-.173-.282-.26-.663-.26-1.143 0-.521.09-.916.27-1.185zm3.027-.336l.826-.029v3.029l-.624.048V10h1.834v-.235l-.682-.048V6.688l.83.029.159 1.003h.302l-.057-1.286h-2.99L25.32 7.72h.316l.168-1.003z" fill="#F3003B"/></symbol><symbol id="mic" viewBox="0 0 17 26"><path fill-rule="evenodd" clip-rule="evenodd" d="M11.84 17.212a4.763 4.763 0 0 1-3.34 1.36 4.763 4.763 0 0 1-3.34-1.36 4.604 4.604 0 0 1-1.382-3.283V4.643c0-1.232.497-2.412 1.383-3.283A4.763 4.763 0 0 1 8.5 0c1.252 0 2.454.49 3.34 1.36a4.604 4.604 0 0 1 1.382 3.283v9.286a4.604 4.604 0 0 1-1.383 3.283zM6.496 2.673a2.762 2.762 0 0 0-.83 1.97v9.286c0 .738.298 1.447.83 1.97a2.858 2.858 0 0 0 2.003.815c.751 0 1.472-.293 2.004-.816.53-.522.83-1.23.83-1.97V4.644c0-.739-.3-1.448-.83-1.97A2.858 2.858 0 0 0 8.5 1.857c-.751 0-1.472.294-2.003.816z" fill="#fff"/><path d="M15.111 13.929v-2.786H17v2.786a8.278 8.278 0 0 1-2.166 5.568 8.549 8.549 0 0 1-5.39 2.733v1.913h3.778V26H3.778v-1.857h3.778V22.23a8.549 8.549 0 0 1-5.39-2.733A8.278 8.278 0 0 1 0 13.93v-2.786h1.889v2.786c0 1.723.696 3.377 1.936 4.596A6.669 6.669 0 0 0 8.5 20.429a6.669 6.669 0 0 0 4.675-1.904 6.445 6.445 0 0 0 1.936-4.596z" fill="#fff"/></symbol><symbol id="read" viewBox="0 0 15 12"><path d="M13.5.426L4.926 8.5 1.5 5.426 0 6.926l2.479 2.06 2.447 2.283L7.357 9 15 1.867 13.5.426z" fill="#FF303A"/></symbol><symbol id="sendbtn" viewBox="0 0 30 30"><path d="M4.918 2.97l22.575 10.798a1.34 1.34 0 0 1 0 2.416L4.918 26.982a1.34 1.34 0 0 1-1.87-1.561l2.258-8.28a.535.535 0 0 1 .445-.39l10.939-1.486a.268.268 0 0 0 .209-.16l.02-.068a.268.268 0 0 0-.169-.287l-.059-.016L5.762 13.25a.535.535 0 0 1-.443-.39L3.047 4.531A1.34 1.34 0 0 1 4.918 2.97z" fill="#FF6C73"/></symbol><symbol id="Star 1" viewBox="0 0 29 27"><path d="M13.073 1.39c.45-1.381 2.405-1.381 2.854 0l2.165 6.666a1.5 1.5 0 0 0 1.427 1.036h7.008c1.453 0 2.057 1.86.882 2.714l-5.67 4.119a1.5 1.5 0 0 0-.545 1.677l2.166 6.665c.449 1.382-1.133 2.531-2.309 1.677l-5.67-4.119a1.5 1.5 0 0 0-1.763 0l-5.67 4.12c-1.175.853-2.757-.296-2.308-1.678l2.166-6.665a1.5 1.5 0 0 0-.545-1.677l-5.67-4.12c-1.175-.853-.571-2.713.882-2.713h7.008a1.5 1.5 0 0 0 1.427-1.036l2.165-6.665z" fill="#961A20"/></symbol><symbol id="Star 5" viewBox="0 0 29 27"><path d="M13.073 1.39c.45-1.381 2.405-1.381 2.854 0l2.165 6.666a1.5 1.5 0 0 0 1.427 1.036h7.008c1.453 0 2.057 1.86.882 2.714l-5.67 4.119a1.5 1.5 0 0 0-.545 1.677l2.166 6.665c.449 1.382-1.133 2.531-2.309 1.677l-5.67-4.119a1.5 1.5 0 0 0-1.763 0l-5.67 4.12c-1.175.853-2.757-.296-2.308-1.678l2.166-6.665a1.5 1.5 0 0 0-.545-1.677l-5.67-4.12c-1.175-.853-.571-2.713.882-2.713h7.008a1.5 1.5 0 0 0 1.427-1.036l2.165-6.665z" fill="#C4C4C4"/></symbol><symbol id="video" viewBox="0 0 26 24"><path fill-rule="evenodd" clip-rule="evenodd" d="M17.812 19.185c.463-.5.76-1.135.848-1.816l5.054 2.275a1.606 1.606 0 0 0 1.546-.122c.227-.15.413-.354.543-.595.13-.241.197-.511.197-.785V5.858a1.662 1.662 0 0 0-.74-1.379 1.611 1.611 0 0 0-1.545-.123L18.66 6.63a3.305 3.305 0 0 0-1.08-2.044 3.226 3.226 0 0 0-2.142-.816H6.941l1.16 1.646h7.335c.431 0 .845.173 1.15.482.304.308.476.727.476 1.164v9.876c0 .3-.081.596-.235.853l.984 1.394zM2.32 5.712a1.662 1.662 0 0 0-.695 1.35v9.876c0 .437.171.856.476 1.164.305.309.718.482 1.149.482h8.148l1.16 1.646H3.25a3.23 3.23 0 0 1-2.298-.964A3.314 3.314 0 0 1 0 16.938V7.062c0-1.111.543-2.094 1.376-2.69l.943 1.34h.002zM24.375 18.14l-5.688-2.56V8.42l5.688-2.562v12.284-.002zM17.214 24L.964.955 2.286 0l16.25 23.045-1.322.955z" fill="#fff"/></symbol><symbol id="videocall" viewBox="0 0 28 18"><path clip-rule="evenodd" d="M1 4.2c0-.849.342-1.663.952-2.263C2.562 1.337 3.388 1 4.25 1h12.188c.788 0 1.55.282 2.142.793a3.186 3.186 0 0 1 1.08 1.988l5.054-2.211a1.648 1.648 0 0 1 1.546.119c.227.145.413.344.543.578.13.234.197.497.197.763v11.94c0 .266-.068.528-.197.762a1.61 1.61 0 0 1-.543.578 1.642 1.642 0 0 1-1.545.12l-5.055-2.21a3.186 3.186 0 0 1-1.08 1.986 3.28 3.28 0 0 1-2.142.794H4.25a3.276 3.276 0 0 1-2.298-.937A3.175 3.175 0 0 1 1 13.8V4.2zm18.688 8.28l5.687 2.49V3.03l-5.688 2.49v6.96zM4.25 2.6c-.431 0-.844.169-1.149.469-.305.3-.476.707-.476 1.131v9.6c0 .424.171.831.476 1.131.305.3.718.469 1.149.469h12.188c.43 0 .844-.169 1.149-.469.304-.3.476-.707.476-1.131V4.2c0-.424-.172-.831-.476-1.131a1.638 1.638 0 0 0-1.15-.469H4.25z"/></symbol><symbol id="woman-1" viewBox="0 0 100 97"><mask id="a" style="mask-type:alpha" maskUnits="userSpaceOnUse" x="0" y="0" width="100" height="92"><path d="M94.71 51.737C88.158 61.972 88 75 80.5 81.5 73 88 61 91.16 50 91c-11-.16-23-3-29.5-7.5S10.71 67 8 51.737C8 41.5-1.207 34.616.925 25.807 5.48 5.74 14.079 1.465 36.035 0H61.54c26.937 2.441 32.98 5.741 37.535 25.807 2.132 8.809.537 18.283-4.365 25.93z" fill="#C4C4C4"/></mask><g mask="url(#a)"><path d="M74.988 27.34c0-12.874-10.474-23.739-24.414-24.316-5.823-.24-10.37 1.319-14.062 3.907-5.146 3.607-7.563 5.468-10.157 10.351-3.32 6.25-4.59 16.992-4.59 21.875v24.317c-.538 9.23-3.24 17.565-3.265 24.526l65.375-4.41c.112-6.911-3.227-13.183-5.371-21.972-1.859-7.617-3.516-27.148-3.516-34.277z" fill="#451F21"/><path d="M43.334 59.259h14.12c-.064 1.709-.154 5.532 0 7.157.194 2.03 1.741 4.932 5.416 6.77 1.55.775 2.877 1.257 4.278 1.767 1.92.698 3.978 1.447 6.94 3.068 4.101 2.244 12.51 10.542 15.7 14.41L51 96.5l-39-4.069c3.191-3.868 10.6-12.166 14.7-14.41 2.963-1.621 5.021-2.37 6.94-3.068 1.401-.51 2.728-.992 4.279-1.767 3.675-1.838 5.222-4.74 5.416-6.77.154-1.625.064-5.448 0-7.157z" fill="#F7B1A8"/><mask id="b" style="mask-type:alpha" maskUnits="userSpaceOnUse" x="12" y="61" width="77" height="34"><path d="M43.334 61.212h14.12c-.064 1.709-.154 5.532 0 7.157.194 2.03 1.741 4.932 5.416 6.77 1.55.775 2.877 1.257 4.278 1.767 1.92.698 3.978 1.447 6.94 3.068 4.101 2.244 11.51 10.542 14.7 14.41H12c3.191-3.868 10.6-12.166 14.7-14.41 2.963-1.621 5.021-2.37 6.94-3.068 1.401-.51 2.728-.992 4.279-1.767 3.675-1.838 5.222-4.74 5.416-6.77.154-1.625.064-5.448 0-7.157z" fill="#FFA39C"/></mask><g mask="url(#b)"><path d="M35.034 14.172c-.97 3.372-3.12 10.844-3.297 22.684-.272 18.164 4.767 22.587 9.582 26.813.321.282.642.563.96.848 3.276 2.932 6.51 3.593 7.902 3.742 1.391-.149 4.625-.81 7.902-3.742.318-.285.638-.566.96-.848 4.815-4.226 9.854-8.65 9.581-26.813-.177-11.84-2.326-19.312-3.296-22.684-.303-1.053-.49-1.706-.468-1.968H35.501c.023.262-.165.915-.467 1.968z" fill="#E7ABA4"/></g><path d="M35.034 16.125c-.97 3.372-3.12 4.985-3.297 16.825-.272 18.163 4.767 22.586 9.582 26.812.321.282.642.564.96.848 3.276 2.933 6.51 3.594 7.902 3.743 1.391-.149 4.625-.81 7.902-3.743.318-.284.638-.566.96-.848 4.815-4.226 9.854-8.648 9.581-26.813-.177-11.84-2.326-13.452-3.296-16.824-.303-1.053-.49-1.706-.468-1.968H35.501c.023.262-.165.915-.467 1.968z" fill="#FFBBB2"/><path fill-rule="evenodd" clip-rule="evenodd" d="M48.555 49.9a1.66 1.66 0 0 0-.953.31c-.268.181-.521.429-.79.69l-.008.008c-.218.213-.452.44-.722.667-.417.348-1.065.741-1.6 1.066 0 0-.841.315-.841.414 0 .1.444.288.444.288a3.7 3.7 0 0 1 .413.261c.296.21.604.475.841.713.111.111.22.254.34.42l.086.12c.094.132.194.273.303.411.286.364.65.74 1.183.962 1.008.421 1.721.505 2.812.505a.93.93 0 0 0 .122-.007.93.93 0 0 0 .122.007c1.091 0 1.804-.084 2.812-.505.533-.223.897-.598 1.183-.962.109-.138.21-.279.303-.41l.086-.12c.12-.167.229-.31.34-.421.237-.238.546-.502.84-.713a3.71 3.71 0 0 1 .414-.26s.442-.108.442-.237-.684-.464-.684-.464l-.004-.002c-.535-.325-1.183-.718-1.6-1.066a12.59 12.59 0 0 1-.722-.667l-.008-.008c-.268-.261-.522-.509-.79-.69a1.66 1.66 0 0 0-.953-.31c-.472 0-.787.177-1.047.323l-.01.005c-.233.132-.411.229-.648.24-.237-.011-.416-.108-.65-.24l-.01-.005c-.259-.146-.574-.324-1.046-.324zm.36 3.784a33.313 33.313 0 0 0-1.228-.364l.035-.007c.372-.069.758-.193 1.123-.311l.007-.003c.526-.17 1.001-.32 1.409-.332.407.011.882.162 1.408.332l.008.003c.347.112.712.23 1.068.301a32.16 32.16 0 0 0-1.29.38l-.372.118s-.678.278-.898.278c-.22 0-.898-.278-.898-.278l-.372-.117z" fill="#FF8389"/><path d="M47.687 53.32c.41.11.836.24 1.228.364l.373.117s.678.278.897.278c.22 0 .898-.278.898-.278l.372-.117c.412-.13.862-.267 1.29-.381a9.798 9.798 0 0 1-1.069-.301l-.007-.003c-.526-.17-1-.32-1.408-.332-.408.011-.883.162-1.409.332l-.007.003c-.365.118-.751.242-1.123.311a1.988 1.988 0 0 1-.035.007z" fill="#FF8389"/><path d="M48.63 43.016c.35-.317.729-.7 1.727-.734.999-.034 1.727.734 1.727.734.625.566.773 1.856.566 1.856-.12 0-.338-.21-.551-.416-.154-.148-.305-.294-.416-.358-.326-.187-.756-.54-1.326-.546-.57.006-1 .359-1.325.546-.111.064-.263.21-.416.358-.214.206-.431.416-.552.416-.206 0-.059-1.29.566-1.856z" fill="#E3A39B"/><circle cx="42.326" cy="36.677" r="1.563" fill="#451F21"/><path d="M39.567 34.26c.605-.147 1.033-.252 2.1-.12 1.033.126 1.348.247 2.03.556.346.156 1.099.672 1.32 1.007l.002.002c.204.309.44.666.416.865-.372-.172-.324-.304-.84-.642-.485-.32-1.757-.647-2.661-.758-.605-.074-1.36.01-1.796.116-.078.018-.161.04-.251.064-.432.112-.631.259-1.684.283a7.513 7.513 0 0 1-1.68-.207c-.637-.154-1.407-.435-1.519-.446.054.005 1.76.086 2.365-.034.807-.16 1.669-.542 2.183-.682l.015-.004z" fill="#451F21"/><circle r="1.563" transform="matrix(-1 0 0 1 58.422 36.677)" fill="#451F21"/><path d="M61.19 34.26c-.604-.147-1.032-.252-2.099-.12-1.033.126-1.348.247-2.03.556-.346.156-1.1.672-1.32 1.007l-.002.002c-.205.309-.441.666-.417.865.373-.172.325-.304.84-.642.485-.32 1.757-.647 2.662-.758.605-.074 1.36.01 1.796.116.077.018.16.04.25.064.433.112.632.259 1.685.283a7.512 7.512 0 0 0 1.68-.207c.637-.154 1.407-.435 1.518-.446-.053.005-1.76.086-2.364-.034-.807-.16-1.67-.542-2.183-.682l-.015-.004zM60.535 29.717c-1.108 0-1.63-.061-2.21 0-.956.1-1.496.135-2.087.26-.295.064-.888.117-1.053.158-.463.132-.73.81-.598 1.272.132.462.613.534 1.075.402h.002c.92-.203 1.252-.298 2.332-.351 1.037-.051 1.462-.051 2.246-.051.57 0 1.172 0 1.953.05.639.043 1.523.05 1.933.18.41.13.58.2 1.354.49-.387-.58-.484-.482-1.354-1.306-.484-.336-.56-.492-1.25-.722a7.356 7.356 0 0 0-2.343-.382zM40.163 29.717c1.109 0 1.631-.061 2.21 0 .956.1 1.497.135 2.087.26.296.064.889.117 1.054.158.462.132.73.81.598 1.272-.132.462-.614.534-1.076.402h-.001c-.92-.203-1.252-.298-2.332-.351-1.038-.051-1.462-.051-2.247-.051-.568 0-1.171 0-1.953.05-.638.043-1.522.05-1.932.18-.41.13-.58.2-1.354.49.387-.58.484-.482 1.354-1.306.484-.336.56-.492 1.249-.722a7.356 7.356 0 0 1 2.343-.382z" fill="#451F21"/><path d="M40.351 32.81c8.008-6.25 8.563-9.864 10.08-11.122 1.315 1.258 4.95 5.047 8.71 8.25 4.52 3.848 9.695 7.266 13.21 7.266-.554-5.993-3.032-23.66-6.947-27.145-4.893-4.356-14.973-5.584-25.053-2.457-8.064 2.502-13.439 23.65-14.972 30.872 4.59.39 7.58.106 14.972-5.664z" fill="#451F21"/></g></symbol><symbol id="women 1" viewBox="0 0 150 150"><path d="M92.31 131.157c16.343-12.262 39.927-31.46 49.755-46.814 7.353-11.47 9.746-25.681 6.548-38.895-6.834-30.098-44.677-42.397-68.249-22.227-1.326 1.127-2.548 2.376-3.802 3.66A149.65 149.65 0 0 1 75 28.46c-.532-.528-1.05-1.057-1.562-1.58-1.254-1.284-2.476-2.533-3.802-3.66C46.064 3.051 8.221 15.35 1.387 45.45-1.81 58.662.581 72.873 7.935 84.343c9.828 15.354 33.412 34.552 49.755 46.814 4.553 3.418 17.31 12.32 17.31 12.32s12.757-8.902 17.31-12.32z" fill="#FF6C73"/><mask id="a" style="mask-type:alpha" maskUnits="userSpaceOnUse" x="0" y="6" width="150" height="138"><path d="M142.065 84.343c-9.828 15.354-33.412 34.552-49.755 46.814-4.553 3.418-17.31 12.32-17.31 12.32s-12.757-8.902-17.31-12.32c-16.343-12.262-39.927-31.46-49.755-46.814C.581 72.873-1.81 58.662 1.387 45.448 8.221 15.35 21.12 8.937 54.053 6.739H92.31c40.405 3.662 49.469 8.612 56.303 38.71 3.198 13.214.805 27.425-6.548 38.895z" fill="#C4C4C4"/></mask><g mask="url(#a)"><path d="M33.823 137.439l8.737-59.478L72.99 89.56l-7.571 45.395-31.597 2.485z" fill="#E4C1BE"/><path d="M111.795 107.074c-6.383-10.88-.436-12.33 2.466-33.51 1.146-8.365.64-17.452-1.232-26.032l-11.222 12.38-22.943 34.831-4.642 19.149 12.04 35.541c10.397.677 31.916-.435 34.817-10.299 3.627-12.331-2.901-21.18-9.284-32.06z" fill="#FCD7D4"/><path d="M64.287 95.631h21.18c-.097 2.563-.232 8.298 0 10.735.29 3.047 2.61 7.399 8.124 10.155 2.325 1.163 4.315 1.887 6.416 2.651 2.879 1.047 5.966 2.17 10.411 4.602 6.151 3.366 17.263 15.813 22.05 21.615H17.285c4.787-5.802 15.9-18.249 22.05-21.615 4.445-2.432 7.532-3.555 10.411-4.602 2.101-.764 4.091-1.488 6.417-2.651 5.513-2.756 7.834-7.108 8.124-10.155.232-2.437.097-8.172 0-10.735z" fill="#FFA39C"/><mask id="b" style="mask-type:alpha" maskUnits="userSpaceOnUse" x="17" y="98" width="116" height="51"><path d="M64.287 98.56h21.18c-.097 2.564-.232 8.299 0 10.736.29 3.046 2.61 7.398 8.124 10.155 2.325 1.162 4.315 1.886 6.416 2.651 2.879 1.047 5.966 2.17 10.411 4.602 6.151 3.365 17.263 15.812 22.05 21.615H17.285c4.787-5.803 15.9-18.25 22.05-21.615 4.445-2.432 7.532-3.555 10.411-4.602 2.101-.765 4.091-1.489 6.417-2.651 5.513-2.757 7.834-7.109 8.124-10.155.232-2.437.097-8.172 0-10.735z" fill="#FFA39C"/></mask><g mask="url(#b)"><path d="M51.836 28c-1.455 5.058-4.679 16.267-4.945 34.026-.409 27.246 7.15 33.88 14.372 40.219.482.424.963.846 1.44 1.273 4.915 4.398 9.766 5.39 11.853 5.613 2.087-.223 6.938-1.215 11.853-5.613.477-.427.958-.849 1.44-1.273 7.223-6.339 14.781-12.973 14.373-40.219-.267-17.76-3.49-28.968-4.945-34.026-.454-1.58-.736-2.559-.701-2.951H52.537c.035.392-.247 1.372-.701 2.951z" fill="#F29891"/></g><path d="M99.202 79.368c2.394-1.764 5.863-4.544 7.382-6.847 1.137-1.721 1.611-3.913 1.298-6-.649-4.747-5.786-7-9.263-4.069a8.453 8.453 0 0 0-.565.536l-.233.233a21.676 21.676 0 0 1-.201-.26 8.466 8.466 0 0 0-.492-.604c-3.075-3.351-8.457-1.773-9.707 2.853-.576 2.03-.386 4.264.522 6.116 1.213 2.478 4.299 5.678 6.448 7.733.598.573 2.282 2.073 2.282 2.073s1.862-1.273 2.53-1.764z" fill="#FFA39C"/><path d="M51.836 22.141c-1.455 5.058-4.679 16.266-4.945 34.026-.409 27.246 7.15 33.88 14.372 40.22.482.422.963.844 1.44 1.271 4.915 4.399 9.766 5.391 11.853 5.613 2.087-.222 6.938-1.214 11.853-5.613.477-.427.958-.849 1.44-1.272 7.223-6.339 14.781-12.973 14.373-40.219-.267-17.76-3.49-28.968-4.945-34.026-.454-1.58-.736-2.56-.701-2.951H52.537c.035.392-.247 1.371-.701 2.951z" fill="#FFB3A9"/><path fill-rule="evenodd" clip-rule="evenodd" d="M72.118 81.592c-.557 0-1.015.188-1.43.467-.401.27-.782.642-1.184 1.033l-.013.013c-.328.32-.677.66-1.083 1-.625.522-1.597 1.112-2.4 1.598 0 0-1.262.473-1.262.622 0 .15.666.432.666.432.188.1.4.234.62.392.444.316.907.713 1.262 1.069a5.3 5.3 0 0 1 .51.632l.129.18c.14.197.291.408.454.615.43.546.975 1.108 1.774 1.443 1.512.632 2.582.758 4.219.758.063 0 .124-.004.183-.012.059.008.12.012.183.012 1.636 0 2.706-.126 4.218-.758.8-.335 1.345-.897 1.774-1.443.163-.207.314-.418.455-.615l.129-.18c.18-.25.343-.465.51-.632.355-.356.818-.753 1.26-1.07.222-.157.434-.292.621-.39 0 0 .662-.161.662-.355 0-.193-1.025-.696-1.025-.696l-.006-.004c-.803-.486-1.775-1.076-2.4-1.598-.406-.34-.755-.68-1.083-1l-.013-.013c-.402-.391-.783-.763-1.184-1.033-.415-.28-.873-.467-1.43-.467-.708 0-1.18.266-1.57.485l-.014.008c-.35.198-.619.343-.974.36-.356-.017-.624-.162-.974-.36l-.014-.008c-.39-.219-.862-.485-1.57-.485zm.54 5.676a49.958 49.958 0 0 0-1.842-.546l.051-.01c.559-.103 1.137-.29 1.685-.467l.012-.003c.789-.255 1.5-.482 2.112-.499.611.017 1.323.244 2.112.499l.012.003c.52.169 1.07.346 1.602.452a48.23 48.23 0 0 0-1.934.571l-.559.177s-1.017.416-1.346.416c-.33 0-1.347-.416-1.347-.416l-.559-.177z" fill="#FF6C73"/><path d="M77.41 71.266c-.525-.475-1.092-1.049-2.59-1.1-1.497-.051-2.59 1.1-2.59 1.1-.937.85-1.159 2.784-.848 2.784.18 0 .506-.315.826-.623.23-.223.458-.442.624-.537.49-.28 1.133-.81 1.989-.82.855.01 1.499.54 1.988.82.166.095.394.314.624.537.32.308.646.623.827.623.31 0 .088-1.935-.85-2.784z" fill="#FF6C73"/><ellipse cx="62.738" cy="62.015" rx="2.601" ry="2.601" fill="#451F21"/><path d="M58.517 58.413c.873-.494 1.491-.845 3.103-.845 1.562 0 2.053.183 3.126.686.542.254 1.758 1.2 2.148 1.886l.003.005c.361.634.779 1.366.779 1.818-.586-.281-.54-.59-1.368-1.204-.78-.58-2.734-.963-4.102-.963-.914 0-2.023.395-2.652.751-.112.064-.232.135-.362.212-.623.37-.892.751-2.455 1.094-.5.11-1.563.172-2.54 0-.976-.171-2.174-.587-2.342-.581.081-.003 2.637-.29 3.514-.725 1.172-.58 2.386-1.668 3.126-2.122l.022-.012z" fill="#451F21"/><ellipse rx="2.601" ry="2.601" transform="matrix(-1 0 0 1 86.954 62.015)" fill="#451F21"/><path d="M91.19 58.413c-.873-.494-1.492-.845-3.103-.845-1.562 0-2.053.183-3.126.686-.542.254-1.758 1.2-2.148 1.886l-.003.005c-.361.634-.779 1.366-.779 1.818.586-.281.54-.59 1.368-1.204.781-.58 2.734-.963 4.102-.963.914 0 2.023.395 2.652.751.112.064.232.135.362.212.623.37.892.751 2.455 1.094.5.11 1.563.172 2.54 0 .976-.171 2.174-.587 2.342-.581-.081-.003-2.636-.29-3.514-.725-1.172-.58-2.386-1.668-3.126-2.122l-.022-.012z" fill="#451F21"/><path d="M59.617 50.044c1.479-.284 2.35-.282 3.22-.19 1.433.15 2.377.383 3.263.572.435.092 1.169.278 1.431.344l.016.004a1.306 1.306 0 0 1-.716 2.51h-.002c-1.381-.304-2.252-.53-3.847-.82-1.407-.255-1.886-.27-3.047-.076-.917.154-1.74.282-2.901.592-.927.247-1.852.595-2.466.79-.615.195-1.306.435-2.466.87.58-.87.725-1.015 2.03-2.252.726-.504 1.209-.897 2.322-1.374a14.123 14.123 0 0 1 3.163-.97zM89.992 50.044c-1.478-.284-2.35-.282-3.22-.19-1.432.15-2.377.383-3.263.572-.434.092-1.168.278-1.43.344l-.017.004a1.306 1.306 0 0 0 .717 2.51h.002c1.38-.304 2.251-.53 3.847-.82 1.407-.255 1.886-.27 3.046-.076.917.154 1.741.282 2.901.592.927.247 1.852.595 2.467.79.614.195 1.305.435 2.466.87-.58-.87-.725-1.015-2.031-2.252-.726-.504-1.208-.897-2.321-1.374a14.124 14.124 0 0 0-3.164-.97z" fill="#C9817B"/><path fill-rule="evenodd" clip-rule="evenodd" d="M72.913 26.406c.42-.026.854-.053 1.31-.088 5.512-.436 16.972 6.672 20.164 10.59 1.596 1.958 1.813 4.425 2.067 7.31.254 2.882.544 6.182 2.285 9.807 2.785 5.803 3.556 6.673 4.281 7.689l10.009-14.182c-2.867-13.147-8.94-24.995-17.192-30.789-13.636-9.574-31.19-5.512-42.795 0-11.605 5.513-18.858 27.273-18.858 36.412 0 1.552.058 3.28.122 5.164.312 9.207.75 22.139-4.91 36.47-.506 1.281-1.022 2.577-1.542 3.882-6.493 16.29-13.624 34.181-9.192 45.731 4.787 12.476 29.593 16.393 32.06 5.077 1.815-8.328.958-10.605-.605-14.756-.56-1.488-1.21-3.217-1.862-5.553-1.204-4.32-.091-8.432 1.093-12.81 1.241-4.589 2.561-9.471 1.373-15.188-2.32-11.17-2.9-18.423 2.322-31.19 2.28-5.575 1.877-9.324 1.473-13.084-.522-4.849-1.045-9.715 4.184-18.54 6.815-11.5 9.55-11.667 14.213-11.952z" fill="#FCD7D4"/></g></symbol><symbol id="women1" viewBox="0 0 78 94"><path d="M62.988 24.34C62.988 11.467 52.514.602 38.574.025c-5.823-.24-10.37 1.319-14.062 3.907-5.146 3.607-7.563 5.468-10.157 10.351-3.32 6.25-4.59 16.992-4.59 21.875v24.317C9.228 69.704 6.526 78.039 6.5 85l65.375-4.41c.112-6.911-3.227-13.183-5.371-21.972-1.859-7.617-3.516-27.148-3.516-34.277z" fill="#451F21"/><path d="M31.334 56.259h14.12c-.064 1.709-.154 5.532 0 7.157.194 2.03 1.741 4.932 5.416 6.77 1.55.775 2.877 1.257 4.278 1.767 1.92.698 3.977 1.447 6.94 3.068 4.101 2.244 12.51 10.542 15.7 14.41L39 93.5 0 89.431c3.191-3.868 10.6-12.166 14.7-14.41 2.963-1.621 5.021-2.37 6.94-3.068 1.401-.51 2.728-.992 4.279-1.767 3.675-1.838 5.222-4.74 5.415-6.77.155-1.625.065-5.448 0-7.157z" fill="#F7B1A8"/><mask id="a" style="mask-type:alpha" maskUnits="userSpaceOnUse" x="0" y="58" width="77" height="34"><path d="M31.334 58.212h14.12c-.064 1.709-.154 5.532 0 7.157.194 2.03 1.741 4.932 5.416 6.77 1.55.775 2.877 1.257 4.278 1.767 1.92.698 3.977 1.447 6.94 3.068 4.101 2.244 11.51 10.542 14.7 14.41H0c3.191-3.868 10.6-12.166 14.7-14.41 2.963-1.621 5.021-2.37 6.94-3.068 1.401-.51 2.728-.992 4.279-1.767 3.675-1.838 5.222-4.74 5.415-6.77.155-1.625.065-5.448 0-7.157z" fill="#FFA39C"/></mask><g mask="url(#a)"><path d="M23.034 11.172c-.97 3.372-3.12 10.844-3.297 22.684-.272 18.164 4.767 22.587 9.582 26.813.321.282.642.563.96.848 3.276 2.932 6.51 3.593 7.902 3.742 1.391-.149 4.625-.81 7.902-3.742.318-.285.638-.566.96-.849 4.815-4.225 9.854-8.648 9.581-26.812-.177-11.84-2.326-19.312-3.296-22.684-.303-1.053-.49-1.706-.468-1.968H23.501c.023.262-.165.915-.467 1.968z" fill="#E7ABA4"/></g><path d="M23.034 13.125c-.97 3.372-3.12 4.985-3.297 16.825-.272 18.164 4.767 22.586 9.582 26.812.321.282.642.564.96.848 3.276 2.933 6.51 3.594 7.902 3.743 1.391-.149 4.625-.81 7.902-3.743.318-.284.638-.566.96-.848 4.815-4.226 9.854-8.648 9.581-26.813-.177-11.84-2.326-13.452-3.296-16.824-.303-1.053-.49-1.706-.468-1.968H23.501c.023.262-.165.915-.467 1.968z" fill="#FFBBB2"/><path fill-rule="evenodd" clip-rule="evenodd" d="M36.555 46.9a1.66 1.66 0 0 0-.953.31c-.268.181-.521.429-.79.69l-.008.008c-.218.213-.452.44-.722.667-.417.348-1.065.741-1.6 1.066 0 0-.841.315-.841.414 0 .1.444.288.444.288a3.7 3.7 0 0 1 .413.261c.296.21.604.475.841.713.111.111.22.254.34.42l.086.12c.094.132.194.273.303.411.286.364.65.74 1.183.962 1.008.421 1.721.505 2.812.505a.93.93 0 0 0 .122-.007.93.93 0 0 0 .122.007c1.091 0 1.804-.084 2.812-.505.533-.223.897-.598 1.183-.962.109-.138.21-.279.303-.41l.086-.12c.12-.167.229-.31.34-.421.237-.238.546-.502.84-.713a3.71 3.71 0 0 1 .414-.26s.442-.108.442-.237-.684-.464-.684-.464l-.004-.002c-.535-.325-1.183-.718-1.6-1.066a12.59 12.59 0 0 1-.722-.667l-.008-.008c-.268-.261-.522-.509-.79-.69a1.66 1.66 0 0 0-.953-.31c-.472 0-.787.177-1.047.323l-.01.005c-.233.132-.411.229-.648.24-.237-.011-.416-.108-.65-.24l-.01-.005c-.259-.146-.574-.324-1.046-.324zm.36 3.784a33.313 33.313 0 0 0-1.228-.364l.035-.007c.372-.069.758-.193 1.123-.311l.007-.003c.526-.17 1.001-.32 1.409-.332.407.011.882.162 1.408.332l.008.003c.347.112.712.23 1.068.301a32.16 32.16 0 0 0-1.29.38l-.372.118s-.678.278-.898.278c-.22 0-.898-.278-.898-.278l-.372-.117z" fill="#FF8389"/><path d="M35.687 50.32c.41.11.836.24 1.228.364l.373.117s.678.278.897.278c.22 0 .898-.278.898-.278l.372-.117c.412-.13.862-.267 1.29-.381a9.798 9.798 0 0 1-1.069-.301l-.007-.003c-.526-.17-1-.32-1.408-.332-.408.011-.883.162-1.409.332l-.007.003c-.365.118-.751.242-1.123.311a1.988 1.988 0 0 1-.035.007z" fill="#FF8389"/><path d="M36.63 40.016c.35-.317.729-.7 1.727-.734.999-.034 1.727.734 1.727.734.625.566.773 1.856.566 1.856-.12 0-.338-.21-.551-.416-.154-.148-.305-.294-.416-.358-.326-.187-.756-.54-1.326-.546-.57.006-1 .359-1.325.546-.111.064-.263.21-.416.358-.214.206-.431.416-.552.416-.206 0-.059-1.29.566-1.856z" fill="#E3A39B"/><circle cx="30.326" cy="33.677" r="1.563" fill="#451F21"/><path d="M27.567 31.26c.605-.147 1.033-.252 2.1-.12 1.033.126 1.348.247 2.03.556.346.156 1.099.672 1.32 1.006l.002.003c.204.309.44.666.416.865-.372-.172-.324-.304-.84-.642-.485-.32-1.757-.647-2.662-.758-.605-.074-1.36.01-1.796.116-.077.018-.16.04-.25.064-.432.112-.631.259-1.684.283a7.513 7.513 0 0 1-1.68-.207c-.637-.154-1.407-.435-1.518-.446.053.005 1.76.086 2.364-.034.807-.16 1.669-.542 2.183-.682l.015-.004z" fill="#451F21"/><circle r="1.563" transform="matrix(-1 0 0 1 46.422 33.677)" fill="#451F21"/><path d="M49.19 31.26c-.604-.147-1.032-.252-2.099-.12-1.033.126-1.348.247-2.03.556-.346.156-1.1.672-1.32 1.006l-.002.003c-.205.309-.441.666-.417.865.373-.172.325-.304.84-.642.485-.32 1.757-.647 2.662-.758.605-.074 1.36.01 1.796.116.077.018.16.04.25.064.433.112.632.259 1.685.283a7.512 7.512 0 0 0 1.68-.207c.637-.154 1.407-.435 1.518-.446-.053.005-1.76.086-2.364-.034-.807-.16-1.67-.542-2.183-.682l-.015-.004zM48.535 26.717c-1.108 0-1.63-.061-2.21 0-.956.1-1.496.135-2.087.26-.295.064-.888.117-1.053.158-.463.132-.73.81-.598 1.272.132.462.613.534 1.075.402h.002c.92-.203 1.252-.298 2.332-.351 1.037-.051 1.462-.051 2.246-.051.57 0 1.172 0 1.953.05.639.043 1.523.05 1.933.18.41.13.58.2 1.354.49-.387-.58-.484-.482-1.354-1.306-.484-.336-.56-.492-1.25-.722a7.356 7.356 0 0 0-2.343-.382zM28.163 26.717c1.109 0 1.631-.061 2.21 0 .956.1 1.497.135 2.087.26.296.064.889.117 1.054.158.462.132.73.81.598 1.272-.132.462-.614.534-1.076.402h-.001c-.92-.203-1.252-.298-2.332-.351-1.038-.051-1.462-.051-2.247-.051-.568 0-1.171 0-1.953.05-.638.043-1.522.05-1.932.18-.41.13-.58.2-1.354.49.387-.58.484-.482 1.354-1.306.484-.336.56-.492 1.249-.722a7.356 7.356 0 0 1 2.343-.382z" fill="#451F21"/><path d="M28.351 29.81c8.008-6.25 8.563-9.864 10.08-11.122 1.315 1.258 4.95 5.047 8.71 8.25 4.52 3.848 9.695 7.266 13.21 7.266-.554-5.993-3.032-23.66-6.947-27.145-4.893-4.356-14.973-5.584-25.053-2.457-8.064 2.502-13.439 23.65-14.972 30.872 4.59.39 7.58.106 14.972-5.664z" fill="#451F21"/></symbol><symbol id="women2"><mask height="92" width="100" y="0" x="0" maskUnits="userSpaceOnUse" id="a"><path fill="#C4C4C4" d="M94.71 51.737C88.158 61.972 88 75 80.5 81.5 73 88 61 91.16 50 91c-11-.16-23-3-29.5-7.5S10.71 67 8 51.737C8 41.5-1.207 34.616.925 25.807 5.481 5.74 14.079 1.465 36.035 0H61.54c26.937 2.441 32.98 5.741 37.535 25.807 2.132 8.809.537 18.283-4.365 25.93z"/></mask><title>Layer 1</title><g mask="url(#a)"><path fill="#623A54" d="M35.668 75.004l-2.539-23.535 13.77 8.3v16.504l-11.231-1.27z"/><path fill="#724161" d="M71.606 49.418c-.313-2.422-2.605-5.371-3.711-6.543l-12.793 9.082V72.66c2.441 1.172 7.363 3.79 7.52 4.883.195 1.367 8.007 1.074 8.984 0 .976-1.074-.977-4.004 0-5.762.976-1.758-1.856-5.175-1.856-6.836 0-1.66 1.856-1.953 1.856-4.297 0-2.343-1.563-4.003-1.856-5.957-.293-1.953 2.246-2.246 1.856-5.273z"/><path fill="#C15764" d="M43.858 59.754h14.12c-.065 1.709-.155 5.532 0 7.157.193 2.03 1.74 4.932 5.416 6.77 1.55.775 2.877 1.257 4.278 1.767 1.919.698 3.977 1.447 6.94 3.068 4.1 2.244 11.509 10.542 14.7 14.41H12.524c3.191-3.868 10.6-12.166 14.7-14.41 2.963-1.621 5.021-2.37 6.94-3.068 1.401-.51 2.728-.992 4.278-1.767 3.675-1.838 5.223-4.74 5.416-6.77.155-1.625.065-5.448 0-7.157z"/><mask height="34" width="78" y="61" x="12" maskUnits="userSpaceOnUse" id="b"><path fill="#FFA39C" d="M43.858 61.707h14.12c-.065 1.709-.155 5.532 0 7.157.193 2.03 1.74 4.932 5.416 6.77 1.55.775 2.877 1.258 4.278 1.767 1.919.698 3.977 1.447 6.94 3.068 4.1 2.244 11.509 10.542 14.7 14.41H12.524c3.191-3.868 10.6-12.166 14.7-14.41 2.963-1.621 5.021-2.37 6.94-3.068 1.401-.51 2.728-.992 4.278-1.767 3.675-1.838 5.223-4.74 5.416-6.77.155-1.625.065-5.448 0-7.157z"/></mask><g mask="url(#b)"><path fill="#AC4D59" d="M35.557 14.667c-.97 3.372-3.119 10.844-3.296 22.684-.273 18.164 4.766 22.587 9.581 26.813.322.282.642.563.96.848 3.277 2.932 6.51 3.593 7.902 3.742 1.392-.149 4.626-.81 7.902-3.742.318-.285.639-.566.96-.848 4.815-4.226 9.854-8.65 9.582-26.813-.178-11.84-2.327-19.312-3.297-22.684-.302-1.053-.49-1.706-.467-1.968h-29.36c.024.262-.164.915-.467 1.968z"/></g><path fill="#C15764" d="M67.135 48.912c1.595-1.176 3.908-3.03 4.921-4.565.758-1.147 1.074-2.608.865-4-.433-3.165-3.857-4.666-6.175-2.712-.13.109-.252.232-.377.357-.05.052-.102.103-.155.155l-.134-.173a5.657 5.657 0 0 0-.328-.403c-2.05-2.234-5.638-1.182-6.471 1.903-.385 1.352-.258 2.842.348 4.077.808 1.652 2.865 3.785 4.298 5.155a93.85 93.85 0 0 0 1.522 1.382s1.24-.848 1.686-1.176z"/><path fill="#C9616E" d="M35.557 14.667c-.97 3.372-3.119 6.938-3.296 18.778-.273 18.164 4.766 22.586 9.581 26.812.322.283.642.564.96.848 3.277 2.933 6.51 3.594 7.902 3.743 1.392-.149 4.626-.81 7.902-3.743.318-.284.639-.565.96-.848 4.815-4.226 9.854-8.648 9.582-26.812-.178-11.84-2.327-15.406-3.297-18.778-.302-1.053-.49-1.706-.467-1.968h-29.36c.024.262-.164.915-.467 1.968z"/><path fill="#AB3645" d="M48.126 50.706a1.66 1.66 0 0 1 .953-.311c.471 0 .787.177 1.046.323l.01.005c.233.132.412.229.65.24.236-.011.415-.108.648-.24l.01-.005c.26-.146.575-.324 1.046-.324.372 0 .677.126.953.312.268.18.522.428.79.689l.009.008c.218.213.451.44.722.667.416.348 1.064.741 1.6 1.066l.004.002s.683.336.683.464c0 .13-.441.236-.441.236a3.695 3.695 0 0 0-.414.261c-.295.21-.604.475-.84.713-.112.112-.22.255-.34.421l-.087.12c-.093.131-.194.272-.302.41-.286.364-.65.74-1.183.962-1.008.421-1.721.506-2.812.506a.93.93 0 0 1-.122-.008.93.93 0 0 1-.122.008c-1.091 0-1.805-.085-2.813-.506-.533-.223-.896-.598-1.182-.961-.11-.139-.21-.28-.303-.411l-.086-.12a3.532 3.532 0 0 0-.34-.421 6.94 6.94 0 0 0-.841-.713 3.686 3.686 0 0 0-.414-.26s-.444-.19-.444-.289c0-.1.841-.414.841-.414.536-.325 1.184-.718 1.6-1.066.271-.227.504-.454.723-.667l.008-.008c.268-.261.522-.509.79-.69zm2.658 3.497c-1.17 0-2.164-.277-2.573-.388l.034-.006a9.26 9.26 0 0 0 1.123-.312l.008-.003c.526-.17 1-.32 1.408-.332.408.011.882.163 1.408.332l.008.003c.347.112.713.23 1.068.301-.427.114-1.314.405-2.484.405z" clip-rule="evenodd" fill-rule="evenodd"/><path fill="#AC4D59" d="M52.607 43.51c-.35-.316-.728-.698-1.726-.733-.999-.034-1.727.734-1.727.734-.625.566-.773 1.856-.566 1.856.12 0 .338-.21.551-.416.154-.148.305-.294.416-.358.326-.187.755-.54 1.326-.546.57.006 1 .36 1.325.546.111.064.262.21.416.358.213.206.431.416.551.416.207 0 .06-1.29-.566-1.856z"/><circle fill="#4D253F" r="1.734" cy="37.343" cx="42.826"/><path fill="#4D253F" d="M40.011 35.152c.582-.395.995-.675 2.07-.675 1.04 0 1.367.146 2.083.548.362.204 1.172.96 1.432 1.51l.002.003c.24.507.52 1.093.52 1.454-.391-.225-.36-.471-.912-.963-.521-.464-1.823-.77-2.735-.77-.61 0-1.35.316-1.769.6-.074.051-.154.108-.24.17-.416.296-.596.601-1.637.875-.334.088-1.042.137-1.693 0s-1.45-.47-1.562-.465c.054-.002 1.758-.232 2.343-.58.781-.463 1.59-1.334 2.084-1.697l.014-.01z"/><ellipse fill="#4D253F" transform="matrix(-1 0 0 1 58.97 37.343)" ry="1.734" rx="1.734"/><path fill="#4D253F" d="M61.794 35.152c-.582-.395-.995-.675-2.07-.675-1.04 0-1.368.146-2.083.548-.362.204-1.172.96-1.432 1.51l-.002.003c-.241.507-.52 1.093-.52 1.454.391-.225.36-.471.912-.963.521-.464 1.823-.77 2.735-.77.61 0 1.349.316 1.768.6.075.051.155.108.241.17.416.296.595.601 1.637.875.334.088 1.042.137 1.693 0s1.45-.47 1.561-.465c-.053-.002-1.757-.232-2.342-.58-.782-.463-1.59-1.334-2.084-1.697l-.014-.01z"/><path fill="#623A54" d="M40.78 29.39c.987-.216 1.568-.215 2.148-.145.956.116 1.586.294 2.178.439.29.07.78.213.955.264l.01.003c.463.151.73.705.598 1.237-.132.53-.614.839-1.076.687h-.001c-.922-.234-1.502-.406-2.567-.629-.939-.196-1.258-.208-2.033-.058-.612.118-1.161.216-1.936.453-.618.19-1.235.456-1.645.606-.41.15-.871.334-1.645.667.387-.667.484-.778 1.355-1.726.484-.386.806-.688 1.548-1.053a8.557 8.557 0 0 1 2.111-.744zM61.025 29.39c-.987-.216-1.569-.215-2.148-.145-.957.116-1.587.294-2.178.439-.29.07-.78.213-.955.264l-.01.003c-.463.151-.73.705-.599 1.237.133.53.614.839 1.077.687h.001c.921-.234 1.502-.406 2.567-.629.939-.196 1.258-.208 2.033-.058.612.118 1.16.216 1.935.453.619.19 1.236.456 1.646.606.41.15.87.334 1.645.667-.387-.667-.484-.778-1.355-1.726-.484-.386-.806-.688-1.549-1.053a8.555 8.555 0 0 0-2.11-.744z"/><path fill="#724161" d="M53.133 19.406c3.282-2.656 8.073-1.107 10.059 0l4.101-9.668C66.513 6.874 61.532 3 54.013 3 45.888 3 42 5.344 37.507 8.664c-4.891 3.616-6.643 5.521-8.105 7.715-1.367 2.05-5.032 9.716-3.711 13.183.781 2.051 1.367 2.93.879 6.543-.307 2.268-1.758 4.297-2.442 7.13-.683 2.831 1.563 4.822 1.563 6.835 0 1.856-1.172 3.711-.879 5.664.173 1.153 1.939 1.692 2.637 3.418.485 1.2-.781 2.832 0 4.688.781 1.855 3.098 2.89 3.613 5.078.39 1.66-.531 1.66-1.074 3.71-.88 3.321 5.273 13.39 5.273 10.353 0-4.004 5.091-2.505 7.422-6.25 2.734-4.395-.586-4.48-.586-7.813 0-2.148 2.051-1.09 2.051-4.004 0-3.125-1.264-4.3-2.05-5.762-.684-1.27-.49-4.687.585-6.25 1.074-1.562 1.074-3.808.586-6.054-.488-2.246-.293-3.516.879-6.055 1.172-2.54-2.54-5.566 1.074-7.715 3.613-2.148.684-5.078.684-8.105 0-3.028 3.125-2.246 7.226-5.567z"/><path fill="#724161" d="M63.207 21.586c-2.235-1.906-4.687-2.311-5.469-3.125l4.004-9.863c4.59-.88 10.126 4.03 11.621 10.449 2.344 10.059-1.888 13.672-4.199 17.676-.358-1.335-3.027-3.907-3.71-6.446-.684-2.539 1.073-5.859-2.247-8.691z"/></g></symbol><symbol id="women21" viewBox="0 0 100 92"><mask id="a" style="mask-type:alpha" maskUnits="userSpaceOnUse" x="0" y="0" width="100" height="92"><path d="M94.71 51.737C88.158 61.972 88 75 80.5 81.5 73 88 61 91.16 50 91c-11-.16-23-3-29.5-7.5S10.71 67 8 51.737C8 41.5-1.207 34.616.925 25.807 5.481 5.74 14.079 1.465 36.035 0H61.54c26.937 2.441 32.98 5.741 37.535 25.807 2.132 8.809.537 18.283-4.365 25.93z" fill="#C4C4C4"/></mask><g mask="url(#a)"><path d="M35.668 75.004l-2.539-23.535 13.77 8.3v16.504l-11.231-1.27z" fill="#623A54"/><path d="M71.606 49.418c-.313-2.422-2.605-5.371-3.711-6.543l-12.793 9.082V72.66c2.441 1.172 7.363 3.79 7.52 4.883.194 1.367 8.007 1.074 8.984 0 .976-1.074-.977-4.004 0-5.762.976-1.758-1.856-5.175-1.856-6.836 0-1.66 1.856-1.953 1.856-4.297 0-2.343-1.563-4.004-1.856-5.957-.293-1.953 2.246-2.246 1.856-5.273z" fill="#724161"/><path d="M43.858 59.754h14.12c-.065 1.709-.155 5.532 0 7.157.193 2.03 1.74 4.932 5.416 6.77 1.55.775 2.877 1.257 4.278 1.767 1.919.698 3.977 1.447 6.94 3.068 4.1 2.244 11.509 10.542 14.7 14.41H12.524c3.191-3.868 10.6-12.166 14.7-14.41 2.963-1.621 5.021-2.37 6.94-3.068 1.401-.51 2.728-.992 4.278-1.767 3.675-1.838 5.223-4.74 5.416-6.77.155-1.625.065-5.448 0-7.157z" fill="#C15764"/><mask id="b" style="mask-type:alpha" maskUnits="userSpaceOnUse" x="12" y="61" width="78" height="34"><path d="M43.858 61.707h14.12c-.065 1.709-.155 5.532 0 7.157.193 2.03 1.74 4.932 5.416 6.77 1.55.775 2.877 1.257 4.278 1.767 1.919.698 3.977 1.447 6.94 3.068 4.1 2.244 11.509 10.542 14.7 14.41H12.524c3.191-3.868 10.6-12.166 14.7-14.41 2.963-1.621 5.021-2.37 6.94-3.068 1.401-.51 2.728-.992 4.278-1.767 3.675-1.838 5.223-4.74 5.416-6.77.155-1.625.065-5.448 0-7.157z" fill="#FFA39C"/></mask><g mask="url(#b)"><path d="M35.557 14.667c-.97 3.372-3.119 10.844-3.296 22.684-.273 18.164 4.766 22.587 9.581 26.813.322.282.642.563.96.848 3.277 2.932 6.51 3.593 7.902 3.742 1.392-.149 4.626-.81 7.902-3.742.318-.285.639-.566.96-.848 4.815-4.226 9.854-8.65 9.582-26.813-.178-11.84-2.327-19.312-3.297-22.684-.302-1.053-.49-1.706-.467-1.968h-29.36c.024.262-.164.915-.467 1.968z" fill="#AC4D59"/></g><path d="M67.135 48.912c1.595-1.176 3.908-3.03 4.921-4.565.758-1.147 1.074-2.608.865-4-.433-3.165-3.857-4.666-6.175-2.712-.13.109-.252.232-.377.357-.05.052-.102.103-.155.155l-.134-.173a5.657 5.657 0 0 0-.328-.403c-2.05-2.234-5.638-1.182-6.471 1.903-.385 1.352-.258 2.842.348 4.077.808 1.652 2.865 3.785 4.298 5.155a93.85 93.85 0 0 0 1.522 1.382s1.24-.848 1.686-1.176z" fill="#C15764"/><path d="M35.557 14.667c-.97 3.372-3.119 6.938-3.296 18.778-.273 18.163 4.766 22.586 9.581 26.812.322.283.642.564.96.848 3.277 2.933 6.51 3.594 7.902 3.743 1.392-.149 4.626-.81 7.902-3.743.318-.284.639-.565.96-.848 4.815-4.226 9.854-8.648 9.582-26.812-.178-11.84-2.327-15.406-3.297-18.778-.302-1.053-.49-1.706-.467-1.968h-29.36c.024.262-.164.915-.467 1.968z" fill="#C9616E"/><path fill-rule="evenodd" clip-rule="evenodd" d="M48.126 50.706a1.66 1.66 0 0 1 .953-.312c.471 0 .787.178 1.046.324l.01.005c.233.132.412.229.65.24.236-.011.415-.108.648-.24l.01-.005c.26-.146.575-.324 1.046-.324.372 0 .677.126.953.312.268.18.522.428.79.689l.008.008c.22.213.452.44.723.667.416.348 1.064.741 1.6 1.066l.004.002s.683.336.683.464c0 .13-.441.236-.441.236a3.695 3.695 0 0 0-.414.261c-.295.21-.604.475-.84.713-.112.111-.22.255-.34.421l-.087.12c-.093.131-.194.272-.302.41-.286.364-.65.74-1.183.962-1.008.421-1.721.505-2.812.505a.93.93 0 0 1-.122-.007.93.93 0 0 1-.122.008c-1.091 0-1.805-.085-2.813-.506-.533-.223-.896-.598-1.182-.962-.11-.138-.21-.279-.303-.41l-.086-.12a3.532 3.532 0 0 0-.34-.421 6.94 6.94 0 0 0-.841-.713 3.686 3.686 0 0 0-.414-.26s-.444-.19-.444-.289c0-.1.841-.414.841-.414.536-.325 1.184-.718 1.6-1.066.271-.227.504-.454.723-.667l.008-.008c.268-.261.522-.509.79-.69zm2.658 3.497c-1.17 0-2.164-.278-2.573-.388l.034-.006a9.26 9.26 0 0 0 1.123-.312l.008-.003c.526-.17 1-.32 1.408-.332.408.011.882.163 1.408.332l.008.003c.347.112.713.23 1.068.301-.427.114-1.314.405-2.484.405z" fill="#AB3645"/><path d="M52.607 43.51c-.35-.316-.728-.698-1.726-.733-.999-.034-1.727.734-1.727.734-.625.566-.773 1.856-.566 1.856.12 0 .338-.21.551-.416.154-.148.305-.294.416-.358.326-.187.755-.54 1.326-.546.57.006 1 .36 1.325.546.111.064.262.21.416.358.213.206.431.416.551.416.207 0 .06-1.29-.566-1.856z" fill="#AC4D59"/><circle cx="42.826" cy="37.343" r="1.734" fill="#4D253F"/><path d="M40.011 35.152c.582-.395.995-.675 2.07-.675 1.04 0 1.367.146 2.083.548.362.204 1.172.96 1.432 1.51l.002.003c.24.507.52 1.093.52 1.454-.391-.225-.36-.471-.912-.963-.521-.464-1.824-.77-2.735-.77-.61 0-1.35.316-1.769.6-.074.051-.154.108-.24.17-.416.296-.596.601-1.637.875-.334.088-1.042.137-1.693 0s-1.45-.47-1.562-.465c.054-.002 1.758-.232 2.343-.58.781-.463 1.59-1.334 2.084-1.697l.014-.01z" fill="#4D253F"/><ellipse rx="1.734" ry="1.734" transform="matrix(-1 0 0 1 58.97 37.343)" fill="#4D253F"/><path d="M61.794 35.152c-.582-.395-.995-.675-2.07-.675-1.04 0-1.368.146-2.083.548-.362.204-1.172.96-1.432 1.51l-.002.003c-.241.507-.52 1.093-.52 1.454.391-.225.36-.471.912-.963.521-.464 1.823-.77 2.735-.77.61 0 1.349.316 1.768.6.075.051.155.108.241.17.416.296.595.601 1.637.875.334.088 1.042.137 1.693 0s1.45-.47 1.561-.465c-.053-.002-1.757-.232-2.342-.58-.782-.463-1.59-1.334-2.084-1.697l-.014-.01z" fill="#4D253F"/><path d="M40.78 29.39c.987-.216 1.568-.215 2.148-.145.956.116 1.587.294 2.178.439.29.07.78.213.955.264l.01.003c.463.151.73.705.598 1.237-.132.53-.614.839-1.076.687h-.001c-.922-.234-1.502-.406-2.567-.629-.939-.196-1.258-.208-2.033-.058-.612.118-1.161.216-1.935.453-.619.19-1.236.456-1.646.606-.41.15-.871.334-1.645.667.387-.667.484-.778 1.355-1.726.484-.386.806-.688 1.548-1.053a8.557 8.557 0 0 1 2.111-.744zM61.025 29.39c-.987-.216-1.569-.215-2.148-.145-.957.116-1.587.294-2.178.439-.29.07-.78.213-.955.264l-.01.003c-.463.151-.73.705-.599 1.237.133.53.614.839 1.077.687h.001c.921-.234 1.502-.406 2.567-.629.939-.196 1.258-.208 2.032-.058.613.118 1.162.216 1.936.453.619.19 1.236.456 1.646.606.41.15.87.334 1.645.667-.387-.667-.484-.778-1.355-1.726-.484-.386-.806-.688-1.549-1.053a8.555 8.555 0 0 0-2.11-.744z" fill="#623A54"/><path d="M53.133 19.406c3.282-2.656 8.073-1.107 10.059 0l4.101-9.668C66.513 6.874 61.532 3 54.013 3 45.888 3 42 5.344 37.507 8.664c-4.891 3.616-6.643 5.521-8.105 7.715-1.367 2.05-5.032 9.716-3.711 13.183.781 2.051 1.367 2.93.879 6.543-.307 2.268-1.758 4.297-2.442 7.13-.683 2.831 1.563 4.822 1.563 6.835 0 1.856-1.172 3.711-.879 5.664.173 1.153 1.939 1.692 2.637 3.418.485 1.2-.781 2.832 0 4.688.781 1.855 3.098 2.89 3.613 5.078.39 1.66-.531 1.66-1.074 3.71-.88 3.321 5.273 13.39 5.273 10.353 0-4.004 5.091-2.505 7.422-6.25 2.735-4.395-.586-4.48-.586-7.813 0-2.149 2.051-1.09 2.051-4.004 0-3.125-1.264-4.3-2.05-5.762-.684-1.27-.49-4.687.585-6.25 1.074-1.562 1.074-3.808.586-6.054-.488-2.246-.293-3.516.879-6.055 1.172-2.54-2.54-5.566 1.074-7.715 3.614-2.148.684-5.078.684-8.105 0-3.028 3.125-2.246 7.226-5.567z" fill="#724161"/><path d="M63.207 21.586c-2.235-1.906-4.687-2.311-5.469-3.125l4.004-9.863c4.59-.88 10.126 4.03 11.621 10.449 2.344 10.058-1.888 13.672-4.199 17.676-.358-1.335-3.027-3.907-3.71-6.446-.684-2.539 1.073-5.859-2.247-8.691z" fill="#724161"/></g></symbol><symbol id="women3" viewBox="0 0 100 92"><mask id="a" style="mask-type:alpha" maskUnits="userSpaceOnUse" x="0" y="0" width="100" height="92"><path d="M94.71 51.737C88.158 61.972 88 75 80.5 81.5 73 88 61 91.16 50 91c-11-.16-23-3-29.5-7.5S10.71 67 8 51.737C8 41.5-1.207 34.616.925 25.807 5.48 5.74 14.079 1.465 36.035 0H61.54c26.937 2.441 32.98 5.741 37.535 25.807 2.132 8.809.537 18.283-4.365 25.93z" fill="#C4C4C4"/></mask><g mask="url(#a)"><path d="M22.549 87.134l5.824-39.652 20.288 7.732-5.048 30.263-21.064 1.657z" fill="#E4C1BE"/><path d="M74.53 66.89c-4.255-7.253-.29-8.22 1.644-22.34.764-5.576.427-11.634-.821-17.354l-7.482 8.253-15.295 23.22-3.095 12.767L57.51 95.13c6.93.452 21.276-.29 23.21-6.866 2.418-8.22-1.934-14.12-6.19-21.374z" fill="#FCD7D4"/><path d="M42.858 59.262h14.12c-.065 1.709-.155 5.532 0 7.157.193 2.03 1.74 4.932 5.416 6.77 1.55.775 2.877 1.257 4.277 1.767 1.92.698 3.978 1.447 6.941 3.068 4.1 2.244 11.509 10.541 14.7 14.41H11.523c3.192-3.868 10.6-12.166 14.7-14.41 2.964-1.621 5.022-2.37 6.941-3.068 1.4-.51 2.728-.992 4.278-1.768 3.675-1.837 5.222-4.739 5.416-6.77.155-1.624.064-5.448 0-7.156z" fill="#FFA39C"/><mask id="b" style="mask-type:alpha" maskUnits="userSpaceOnUse" x="11" y="61" width="78" height="34"><path d="M42.858 61.215h14.12c-.065 1.709-.155 5.532 0 7.157.193 2.03 1.74 4.932 5.416 6.77 1.55.775 2.877 1.257 4.277 1.767 1.92.698 3.978 1.447 6.941 3.068 4.1 2.244 11.509 10.542 14.7 14.41H11.523c3.192-3.868 10.6-12.166 14.7-14.41 2.964-1.621 5.022-2.37 6.941-3.068 1.4-.51 2.728-.992 4.278-1.768 3.675-1.837 5.222-4.738 5.416-6.77.155-1.624.064-5.447 0-7.156z" fill="#FFA39C"/></mask><g mask="url(#b)"><path d="M34.557 14.175c-.97 3.372-3.119 10.844-3.296 22.684-.273 18.164 4.766 22.586 9.581 26.812.322.283.642.564.96.848 3.277 2.933 6.51 3.594 7.902 3.743 1.392-.149 4.626-.81 7.902-3.743.318-.284.639-.565.96-.848 4.815-4.226 9.854-8.648 9.582-26.812-.178-11.84-2.327-19.312-3.297-22.684-.302-1.053-.49-1.707-.467-1.968h-29.36c.024.261-.164.915-.467 1.968z" fill="#F29891"/></g><path d="M66.135 48.42c1.595-1.177 3.908-3.03 4.92-4.565.759-1.147 1.075-2.609.866-4-.433-3.165-3.857-4.666-6.175-2.712-.13.109-.252.231-.377.357l-.155.155c-.046-.058-.09-.116-.134-.174a5.663 5.663 0 0 0-.328-.402c-2.05-2.234-5.638-1.182-6.471 1.902-.385 1.353-.258 2.843.348 4.077.808 1.653 2.865 3.786 4.298 5.156.399.382 1.522 1.382 1.522 1.382s1.24-.849 1.686-1.176z" fill="#FFA39C"/><path d="M34.557 10.268c-.97 3.372-3.119 10.845-3.296 22.684-.273 18.164 4.766 22.587 9.581 26.813.322.282.642.564.96.848 3.277 2.933 6.51 3.594 7.902 3.743 1.392-.149 4.626-.81 7.902-3.743.318-.284.639-.566.96-.848 4.815-4.226 9.854-8.649 9.582-26.813-.178-11.84-2.327-19.311-3.297-22.683-.302-1.054-.49-1.707-.467-1.968h-29.36c.024.261-.164.914-.467 1.967z" fill="#FFB3A9"/><path fill-rule="evenodd" clip-rule="evenodd" d="M48.079 49.902a1.66 1.66 0 0 0-.953.312c-.268.18-.522.428-.79.689l-.008.008c-.22.213-.452.44-.723.667-.416.348-1.064.741-1.6 1.065 0 0-.84.315-.84.415 0 .1.443.288.443.288.125.066.266.156.414.26.295.212.604.476.84.714.112.111.22.254.34.42l.087.12c.093.132.194.273.303.411.285.364.65.739 1.182.962 1.008.421 1.721.505 2.813.505a.93.93 0 0 0 .121-.008c.04.006.08.008.123.008 1.09 0 1.804-.084 2.812-.505.533-.223.897-.598 1.183-.962.108-.138.209-.279.302-.41l.086-.12c.12-.167.23-.31.34-.421.237-.238.546-.502.841-.713.148-.105.29-.195.414-.26 0 0 .441-.108.441-.237s-.683-.464-.683-.464l-.004-.003c-.536-.324-1.184-.717-1.6-1.065a12.56 12.56 0 0 1-.723-.667l-.008-.008c-.268-.261-.522-.509-.79-.69a1.66 1.66 0 0 0-.953-.31c-.471 0-.787.177-1.046.323l-.01.005c-.233.132-.412.228-.649.24-.237-.011-.416-.108-.65-.24l-.009-.005c-.26-.146-.575-.324-1.046-.324zm.36 3.785a33.429 33.429 0 0 0-1.228-.364l.034-.007c.372-.069.758-.193 1.123-.311l.008-.003c.526-.17 1-.32 1.408-.332.408.011.882.162 1.408.332l.008.003c.347.112.713.23 1.068.3-.427.115-.877.253-1.29.382l-.372.117s-.678.278-.898.278c-.219 0-.897-.278-.897-.278l-.373-.117z" fill="#FF6C73"/><path d="M51.607 43.019c-.35-.317-.728-.7-1.727-.734-.998-.034-1.726.734-1.726.734-.626.566-.773 1.856-.566 1.856.12 0 .338-.21.55-.416.154-.148.306-.294.417-.358.326-.187.755-.54 1.325-.546.57.006 1 .359 1.326.546.111.064.262.21.416.358.213.206.43.416.551.416.207 0 .06-1.29-.566-1.856z" fill="#FF6C73"/><ellipse cx="41.826" cy="36.851" rx="1.734" ry="1.734" fill="#451F21"/><path d="M39.011 34.45c.582-.33.995-.563 2.07-.563 1.04 0 1.367.121 2.083.457.361.17 1.172.8 1.432 1.257l.002.003c.24.423.52.911.52 1.212-.392-.187-.36-.393-.912-.802-.521-.387-1.824-.642-2.735-.642-.61 0-1.35.263-1.769.5l-.24.142c-.416.246-.596.5-1.638.73-.333.072-1.041.114-1.692 0-.651-.115-1.45-.392-1.562-.389.054-.001 1.758-.193 2.343-.482.781-.387 1.59-1.112 2.084-1.415l.014-.008z" fill="#451F21"/><ellipse rx="1.734" ry="1.734" transform="matrix(-1 0 0 1 57.97 36.85)" fill="#451F21"/><path d="M60.794 34.45c-.582-.33-.995-.563-2.07-.563-1.04 0-1.368.121-2.083.457-.362.17-1.172.8-1.433 1.257l-.001.003c-.241.423-.52.911-.52 1.212.391-.187.36-.393.912-.802.521-.387 1.823-.642 2.735-.642.61 0 1.349.263 1.768.5.075.043.155.09.241.142.415.246.595.5 1.637.73.334.072 1.042.114 1.693 0 .651-.115 1.45-.392 1.561-.389-.053-.001-1.757-.193-2.342-.482-.782-.387-1.59-1.112-2.084-1.415l-.014-.008z" fill="#451F21"/><path d="M39.745 28.87c.985-.189 1.567-.188 2.146-.127.955.1 1.585.256 2.176.382.29.062.779.185.954.23l.01.002a.87.87 0 0 1-.478 1.674c-.921-.203-1.502-.353-2.566-.547-.938-.17-1.257-.18-2.03-.05-.612.102-1.161.187-1.935.394-.618.165-1.234.396-1.644.527-.41.13-.87.29-1.644.58.387-.58.484-.677 1.354-1.502.484-.336.806-.598 1.547-.916a9.419 9.419 0 0 1 2.11-.647zM59.995 28.87c-.986-.189-1.567-.188-2.146-.127-.956.1-1.586.256-2.176.382-.29.062-.78.185-.954.23l-.011.002a.87.87 0 0 0 .478 1.674h.001c.92-.203 1.5-.354 2.565-.547.938-.17 1.257-.18 2.03-.05.612.102 1.161.187 1.935.394.618.165 1.234.396 1.644.527.41.13.87.29 1.644.58-.387-.58-.483-.677-1.354-1.502-.483-.336-.805-.598-1.547-.916a9.42 9.42 0 0 0-2.11-.647z" fill="#C9817B"/><path fill-rule="evenodd" clip-rule="evenodd" d="M48.609 13.112c.28-.018.57-.035.872-.06 3.676-.29 11.316 4.45 13.443 7.06 1.065 1.307 1.21 2.952 1.379 4.874.169 1.922.363 4.122 1.523 6.539 1.857 3.868 2.37 4.448 2.854 5.125l6.673-9.454c-1.912-8.765-5.96-16.664-11.461-20.526-9.091-6.383-20.793-3.675-28.53 0-7.737 3.675-12.573 18.182-12.573 24.274 0 1.035.04 2.187.082 3.443.208 6.138.5 14.76-3.273 24.314-.338.854-.682 1.717-1.029 2.588-4.328 10.86-9.083 22.787-6.128 30.487 3.191 8.317 19.73 10.928 21.373 3.385 1.21-5.553.64-7.07-.403-9.838-.373-.992-.807-2.145-1.24-3.702-.803-2.88-.062-5.621.727-8.54.828-3.06 1.708-6.314.916-10.125-1.547-7.447-1.934-12.283 1.548-20.793 1.52-3.717 1.251-6.216.982-8.723-.348-3.233-.697-6.477 2.79-12.36 4.542-7.666 6.366-7.778 9.475-7.968z" fill="#FCD7D4"/></g></symbol><symbol id="women4" viewBox="0 0 100 92"><mask id="a" style="mask-type:alpha" maskUnits="userSpaceOnUse" x="0" y="0" width="100" height="92"><path d="M94.71 51.737C88.158 61.972 88 75 80.5 81.5 73 88 61 91.16 50 91c-11-.16-23-3-29.5-7.5S10.71 67 8 51.737C8 41.5-1.207 34.616.925 25.807 5.481 5.74 14.079 1.465 36.035 0H61.54c26.937 2.441 32.98 5.741 37.535 25.807 2.132 8.809.537 18.283-4.365 25.93z" fill="#C4C4C4"/></mask><g mask="url(#a)"><path d="M9 89l24.715-48.273 41.113 7.91L85 85.5 9 89z" fill="#985262"/><path d="M43.858 59.754h14.12c-.065 1.709-.155 5.532 0 7.157.193 2.03 1.74 4.932 5.416 6.77 1.55.775 2.877 1.257 4.278 1.767 1.919.698 3.977 1.447 6.94 3.068 4.1 2.244 11.509 10.542 14.7 14.41H12.525c3.191-3.868 10.6-12.166 14.7-14.41 2.963-1.621 5.021-2.37 6.94-3.068 1.401-.51 2.728-.992 4.278-1.767 3.675-1.838 5.223-4.74 5.416-6.77.155-1.625.065-5.448 0-7.157z" fill="#FFA39C"/><mask id="b" style="mask-type:alpha" maskUnits="userSpaceOnUse" x="12" y="61" width="78" height="34"><path d="M43.858 61.707h14.12c-.065 1.709-.155 5.532 0 7.157.193 2.03 1.74 4.932 5.416 6.77 1.55.775 2.877 1.257 4.278 1.767 1.919.698 3.977 1.447 6.94 3.068 4.1 2.244 11.509 10.542 14.7 14.41H12.525c3.191-3.868 10.6-12.166 14.7-14.41 2.963-1.621 5.021-2.37 6.94-3.068 1.401-.51 2.728-.992 4.278-1.767 3.675-1.838 5.223-4.74 5.416-6.77.155-1.625.065-5.448 0-7.157z" fill="#FFA39C"/></mask><g mask="url(#b)"><path d="M35.557 14.667c-.97 3.372-3.119 10.844-3.296 22.684-.273 18.164 4.766 22.587 9.581 26.813.322.282.642.563.96.848 3.277 2.932 6.511 3.593 7.902 3.742 1.392-.149 4.626-.81 7.902-3.742.318-.285.639-.566.96-.848 4.815-4.226 9.854-8.65 9.582-26.813-.178-11.84-2.327-19.312-3.296-22.684-.303-1.053-.491-1.706-.468-1.968h-29.36c.024.262-.164.915-.467 1.968z" fill="#F29891"/></g><path d="M35.557 10.76c-.97 3.373-3.119 10.845-3.296 22.685-.273 18.163 4.766 22.586 9.581 26.812.322.283.642.564.96.849 3.277 2.932 6.511 3.593 7.902 3.742 1.392-.149 4.626-.81 7.902-3.742.318-.285.639-.566.96-.849 4.815-4.226 9.854-8.648 9.582-26.812-.178-11.84-2.327-19.312-3.296-22.684-.303-1.053-.491-1.707-.468-1.968h-29.36c.024.261-.164.915-.467 1.968z" fill="#FFB3A9"/><path fill-rule="evenodd" clip-rule="evenodd" d="M49.079 50.395a1.66 1.66 0 0 0-.953.31c-.268.181-.522.429-.79.69l-.008.008c-.219.213-.452.44-.723.667-.416.348-1.064.741-1.6 1.066 0 0-.84.315-.84.414 0 .1.443.288.443.288.125.066.267.156.414.261.295.21.604.475.84.713.112.111.22.255.34.421l.087.12c.094.131.194.272.303.41.286.364.65.74 1.182.962 1.008.421 1.722.505 2.813.505a.93.93 0 0 0 .122-.007.93.93 0 0 0 .122.008c1.09 0 1.804-.085 2.812-.506.533-.223.897-.598 1.183-.962.108-.138.209-.279.303-.41l.086-.12c.12-.166.228-.31.34-.421.236-.238.545-.502.84-.713.148-.105.29-.195.414-.26 0 0 .441-.108.441-.237 0-.128-.683-.464-.683-.464l-.004-.002c-.535-.325-1.184-.718-1.6-1.066a12.59 12.59 0 0 1-.722-.667l-.009-.008c-.268-.261-.522-.509-.79-.69a1.66 1.66 0 0 0-.953-.31c-.471 0-.787.177-1.046.323l-.01.005c-.233.132-.412.229-.649.24-.237-.011-.416-.108-.65-.24l-.009-.005c-.26-.146-.574-.324-1.046-.324zm.36 3.784a33.313 33.313 0 0 0-1.228-.364l.034-.006a9.26 9.26 0 0 0 1.123-.312l.008-.003c.526-.17 1-.32 1.408-.332.408.011.882.163 1.408.332l.008.003c.347.112.713.23 1.068.301a32.16 32.16 0 0 0-1.289.38l-.373.118s-.678.278-.897.278c-.22 0-.898-.278-.898-.278l-.373-.117z" fill="#FF6C73"/><path d="M52.607 43.51c-.35-.316-.728-.698-1.726-.733-.999-.034-1.727.734-1.727.734-.625.566-.773 1.856-.566 1.856.12 0 .338-.21.551-.416.154-.148.305-.294.416-.358.326-.187.755-.54 1.326-.546.57.006 1 .36 1.325.546.111.064.263.21.416.358.214.206.431.416.551.416.207 0 .06-1.29-.566-1.856z" fill="#FF6C73"/><circle cx="42.826" cy="37.343" r="1.734" fill="#451F21"/><path d="M40.011 34.942c.582-.33.995-.563 2.07-.563 1.04 0 1.368.122 2.083.457.362.17 1.172.8 1.432 1.258l.002.002c.241.423.52.912.52 1.213-.391-.188-.36-.393-.912-.803-.521-.386-1.823-.642-2.735-.642-.61 0-1.349.264-1.768.501-.075.042-.155.09-.241.14-.416.248-.596.502-1.637.73-.334.074-1.042.115-1.693 0-.651-.114-1.45-.391-1.561-.387.053-.002 1.757-.194 2.342-.483.782-.387 1.59-1.112 2.084-1.415l.014-.008z" fill="#451F21"/><ellipse rx="1.734" ry="1.734" transform="matrix(-1 0 0 1 58.97 37.343)" fill="#451F21"/><path d="M61.794 34.942c-.582-.33-.995-.563-2.07-.563-1.04 0-1.368.122-2.083.457-.362.17-1.172.8-1.432 1.258l-.002.003c-.241.422-.52.91-.52 1.212.391-.188.36-.393.912-.803.521-.386 1.823-.642 2.735-.642.61 0 1.349.264 1.768.501.075.042.155.09.241.14.416.248.595.502 1.637.73.334.074 1.042.115 1.693 0 .651-.114 1.45-.391 1.561-.387-.053-.002-1.757-.194-2.342-.483-.782-.387-1.59-1.112-2.084-1.415l-.014-.008z" fill="#451F21"/><path d="M40.745 29.362c.985-.189 1.567-.187 2.146-.127.956.101 1.585.257 2.176.382.29.062.779.185.954.23l.01.002a.87.87 0 0 1-.477 1.674h-.002c-.92-.203-1.5-.353-2.564-.547-.938-.17-1.258-.18-2.031-.05-.612.102-1.16.188-1.934.394-.618.165-1.235.397-1.645.527-.41.13-.87.29-1.644.58.387-.58.484-.677 1.354-1.502.484-.335.806-.598 1.548-.916a9.419 9.419 0 0 1 2.109-.647zM60.995 29.362c-.986-.189-1.567-.188-2.146-.127-.956.101-1.585.257-2.176.382-.29.062-.78.185-.954.23l-.01.002a.87.87 0 0 0 .477 1.674h.001c.92-.203 1.501-.353 2.565-.547.938-.17 1.257-.18 2.03-.05.612.102 1.161.188 1.935.394.618.165 1.235.397 1.644.527.41.13.87.29 1.644.58-.387-.58-.483-.677-1.354-1.502-.483-.335-.805-.598-1.547-.916a9.419 9.419 0 0 0-2.11-.647z" fill="#814654"/><path d="M36.362 42.655c-3.482 8.51-1.548 12.304 0 19.751.792 3.812-9.925 10.417-10.753 13.477C24.82 78.8 17.197 77.62 18 80.5c.434 1.557-1.846 5.508-1.473 6.5 1.042 2.767 19.498 3.1 18.287 8.653-1.644 7.544-18.181 4.932-21.373-3.385-2.954-7.7-4.172-11.775.157-22.635 1.619-4.062-.653-11.175 2.93-15.43 3.582-4.255 5.97-7.729 5.761-13.867 0 0-1.028-9.975 0-14.857 1.256-5.962 6.336-14.642 14.073-18.317 7.737-3.675 19.439-6.383 28.53 0 5.5 3.862 9.55 11.761 11.461 20.526 1.248 5.72 6.954 10.783 6.19 16.359-1.934 14.12-3.279 15.989.977 23.242 3.741 6.378 1.38 11.781-.888 18.581.208 4.266-2.128 7.02-.913 2.886.292-.992.602-1.952.913-2.886-.122-2.52-1.133-5.567-4.288-8.034-8.496-6.642-12.207-2.246-14.844-9.082-2.637-6.836 0-8.79 2.637-12.11 2.637-3.32 1.855-9.667 1.855-13.989 0-4.321 0-12.182-1.855-14.967-1.856-2.785-5.176-3.66-7.422-6.116-2.246-2.455-4.558-8.317-8.233-8.027-.304.024-.594.042-.873.059-3.108.19-4.933.302-9.475 7.968-3.487 5.883-3.138 9.128-2.79 12.36.27 2.507.538 5.006-.982 8.723z" fill="#985262"/></g></symbol><symbol id="women5" viewBox="0 0 100 92"><mask id="a" style="mask-type:alpha" maskUnits="userSpaceOnUse" x="0" y="0" width="100" height="92"><path d="M94.71 51.737C88.158 61.972 88 75 80.5 81.5 73 88 61 91.16 50 91c-11-.16-23-3-29.5-7.5S10.71 67 8 51.737C8 41.5-1.207 34.616.925 25.807 5.48 5.74 14.079 1.465 36.035 0H61.54c26.937 2.441 32.98 5.741 37.535 25.807 2.132 8.809.537 18.283-4.365 25.93z" fill="#C4C4C4"/></mask><g mask="url(#a)"><path d="M74.988 27.34c0-12.874-10.474-23.739-24.414-24.316-5.823-.24-10.37 1.319-14.062 3.907-5.146 3.607-7.563 5.468-10.157 10.351-3.32 6.25-4.59 16.992-4.59 21.875v24.317c-.538 9.23-3.24 17.565-3.265 24.526l65.375-4.41c.112-6.911-3.227-13.183-5.371-21.972-1.859-7.617-3.516-27.148-3.516-34.277z" fill="#451F21"/><path d="M43.334 59.259h14.12c-.064 1.709-.154 5.532 0 7.157.194 2.03 1.741 4.932 5.416 6.77 1.55.775 2.877 1.257 4.278 1.767 1.92.698 3.978 1.447 6.94 3.068 4.101 2.244 12.51 10.542 15.7 14.41L51 96.5l-39-4.069c3.191-3.868 10.6-12.166 14.7-14.41 2.963-1.621 5.021-2.37 6.94-3.068 1.401-.51 2.728-.992 4.279-1.767 3.675-1.838 5.222-4.74 5.416-6.77.154-1.625.064-5.448 0-7.157z" fill="#F7B1A8"/><mask id="b" style="mask-type:alpha" maskUnits="userSpaceOnUse" x="12" y="61" width="77" height="34"><path d="M43.334 61.212h14.12c-.064 1.709-.154 5.532 0 7.157.194 2.03 1.741 4.932 5.416 6.77 1.55.775 2.877 1.257 4.278 1.767 1.92.698 3.978 1.447 6.94 3.068 4.101 2.244 11.51 10.542 14.7 14.41H12c3.191-3.868 10.6-12.166 14.7-14.41 2.963-1.621 5.021-2.37 6.94-3.068 1.401-.51 2.728-.992 4.279-1.767 3.675-1.838 5.222-4.74 5.416-6.77.154-1.625.064-5.448 0-7.157z" fill="#FFA39C"/></mask><g mask="url(#b)"><path d="M35.034 14.172c-.97 3.372-3.12 10.844-3.297 22.684-.272 18.164 4.767 22.586 9.582 26.813.321.282.642.563.96.848 3.276 2.932 6.51 3.593 7.902 3.742 1.391-.149 4.625-.81 7.902-3.742.318-.285.638-.566.96-.848 4.815-4.227 9.854-8.65 9.581-26.813-.177-11.84-2.326-19.312-3.296-22.684-.303-1.053-.49-1.706-.468-1.968H35.501c.023.262-.165.915-.467 1.968z" fill="#E7ABA4"/></g><path d="M35.034 16.125c-.97 3.372-3.12 4.985-3.297 16.825-.272 18.163 4.767 22.586 9.582 26.812.321.282.642.564.96.848 3.276 2.933 6.51 3.594 7.902 3.743 1.391-.149 4.625-.81 7.902-3.743.318-.284.638-.566.96-.848 4.815-4.226 9.854-8.649 9.581-26.813-.177-11.84-2.326-13.452-3.296-16.824-.303-1.053-.49-1.706-.468-1.968H35.501c.023.262-.165.915-.467 1.968z" fill="#FFBBB2"/><path fill-rule="evenodd" clip-rule="evenodd" d="M48.555 49.9a1.66 1.66 0 0 0-.953.31c-.268.181-.521.429-.79.69l-.008.008c-.218.213-.452.44-.722.667-.417.348-1.065.741-1.6 1.065 0 0-.841.316-.841.415 0 .1.444.288.444.288.125.066.266.156.413.261.296.21.604.475.841.713.111.111.22.254.34.42l.086.12c.094.132.194.273.303.411.286.364.65.74 1.183.962 1.008.421 1.721.505 2.812.505a.93.93 0 0 0 .122-.007.93.93 0 0 0 .122.007c1.091 0 1.804-.084 2.812-.505.533-.223.897-.598 1.183-.962.109-.138.21-.279.303-.41l.086-.12c.12-.167.229-.31.34-.421.237-.238.546-.502.84-.713.148-.105.29-.195.414-.26 0 0 .442-.108.442-.237s-.684-.464-.684-.464l-.004-.003c-.535-.324-1.183-.717-1.6-1.065a12.59 12.59 0 0 1-.722-.667l-.008-.008c-.268-.261-.522-.509-.79-.69a1.66 1.66 0 0 0-.953-.31c-.472 0-.787.177-1.047.323l-.01.005c-.233.132-.411.229-.648.24-.237-.011-.416-.108-.65-.24l-.01-.005c-.259-.146-.574-.324-1.046-.324zm.36 3.784a33.313 33.313 0 0 0-1.228-.364l.035-.007a9.26 9.26 0 0 0 1.123-.311l.007-.003c.526-.17 1.001-.32 1.409-.332.407.011.882.162 1.408.332l.008.003c.347.112.712.23 1.068.301a32.16 32.16 0 0 0-1.29.38l-.372.118s-.678.278-.898.278c-.22 0-.898-.278-.898-.278l-.372-.117z" fill="#FF8389"/><path d="M47.687 53.32c.41.11.836.24 1.228.364l.373.117s.678.278.897.278c.22 0 .898-.278.898-.278l.372-.117c.412-.13.862-.267 1.29-.381a9.798 9.798 0 0 1-1.069-.301l-.007-.003c-.526-.17-1-.32-1.408-.332-.408.011-.883.162-1.409.332l-.007.003a9.26 9.26 0 0 1-1.158.318z" fill="#FF8389"/><path d="M48.63 43.016c.35-.317.729-.7 1.727-.734.999-.034 1.727.734 1.727.734.625.566.773 1.856.566 1.856-.12 0-.338-.21-.551-.416-.154-.148-.305-.294-.416-.358-.326-.187-.756-.54-1.326-.546-.57.006-1 .359-1.325.546-.111.064-.263.21-.416.358-.214.206-.431.416-.552.416-.206 0-.059-1.29.566-1.856z" fill="#E3A39B"/><circle cx="42.326" cy="36.677" r="1.563" fill="#451F21"/><path d="M39.567 34.26c.605-.147 1.033-.252 2.1-.12 1.033.126 1.348.247 2.03.556.346.156 1.099.672 1.32 1.007l.002.002c.204.309.44.666.416.865-.372-.172-.324-.304-.84-.642-.485-.32-1.757-.647-2.661-.758-.605-.074-1.36.01-1.796.116-.078.018-.161.04-.251.064-.432.112-.631.259-1.684.283a7.519 7.519 0 0 1-1.68-.207c-.637-.154-1.407-.435-1.519-.446.054.005 1.76.086 2.365-.034.807-.16 1.669-.542 2.183-.682l.015-.004z" fill="#451F21"/><circle r="1.563" transform="matrix(-1 0 0 1 58.422 36.677)" fill="#451F21"/><path d="M61.19 34.26c-.604-.147-1.032-.252-2.099-.12-1.033.126-1.348.247-2.03.556-.346.156-1.1.672-1.32 1.007l-.002.002c-.205.309-.441.666-.417.865.373-.172.325-.304.84-.642.485-.32 1.757-.647 2.662-.758.605-.074 1.36.01 1.796.116.077.018.16.04.25.064.433.112.632.259 1.685.283a7.518 7.518 0 0 0 1.68-.207c.637-.154 1.407-.435 1.518-.446-.053.005-1.76.086-2.364-.034-.807-.16-1.67-.542-2.183-.682l-.015-.004zM60.535 29.717c-1.108 0-1.63-.061-2.21 0-.956.1-1.496.135-2.087.26-.295.064-.888.117-1.053.158-.463.132-.73.81-.598 1.272.132.462.613.534 1.075.402h.002c.92-.203 1.252-.298 2.332-.351 1.037-.051 1.462-.051 2.246-.051.57 0 1.172 0 1.953.05.639.043 1.523.05 1.933.18.41.13.58.2 1.354.49-.387-.58-.484-.482-1.354-1.306-.484-.336-.56-.492-1.25-.722a7.356 7.356 0 0 0-2.343-.382zM40.163 29.717c1.109 0 1.631-.061 2.21 0 .956.1 1.497.135 2.087.26.296.064.889.117 1.054.158.462.132.73.81.598 1.272-.132.462-.614.534-1.076.402h-.001c-.92-.203-1.252-.298-2.332-.351-1.038-.051-1.462-.051-2.247-.051-.568 0-1.171 0-1.953.05-.638.042-1.522.05-1.932.18-.41.13-.58.2-1.354.49.387-.58.484-.482 1.354-1.306.484-.336.56-.492 1.249-.722a7.356 7.356 0 0 1 2.343-.382z" fill="#451F21"/><path d="M40.351 32.81c8.008-6.25 8.563-9.864 10.08-11.122 1.315 1.258 4.95 5.047 8.71 8.25 4.52 3.848 9.695 7.266 13.21 7.266-.554-5.993-3.032-23.66-6.947-27.145-4.893-4.356-14.973-5.584-25.053-2.457-8.064 2.502-13.439 23.65-14.972 30.872 4.59.39 7.58.106 14.972-5.664z" fill="#451F21"/></g></symbol><symbol id="women6" viewBox="0 0 100 92"><mask id="a" style="mask-type:alpha" maskUnits="userSpaceOnUse" x="0" y="0" width="100" height="92"><path d="M94.71 51.737C88.158 61.972 88 75 80.5 81.5 73 88 61 91.16 50 91c-11-.16-23-3-29.5-7.5S10.71 67 8 51.737C8 41.5-1.207 34.616.925 25.807 5.48 5.74 14.079 1.465 36.035 0H61.54c26.937 2.441 32.98 5.741 37.535 25.807 2.132 8.809.537 18.283-4.365 25.93z" fill="#C4C4C4"/></mask><g mask="url(#a)"><path d="M74.512 30.836c0-12.875-10.475-23.74-24.415-24.316-5.822-.241-10.37 1.318-14.062 3.906-5.145 3.607-7.562 5.469-10.156 10.351-3.32 6.25-4.59 16.992-4.59 21.875v8.692c-.539 9.23-2.832 17.09 2.344 20.996 5.175 3.906 47.851 6.738 52.05 0 4.2-6.738 0-15.43 0-23.535 0-7.84-1.171-10.84-1.171-17.969z" fill="#5F090D"/><path d="M42.858 62.754h14.12c-.065 1.709-.155 5.532 0 7.157.193 2.03 1.74 4.932 5.416 6.77 1.55.775 2.877 1.257 4.277 1.767 1.92.698 3.978 1.447 6.941 3.068 4.1 2.244 11.509 10.542 14.7 14.41H11.523c3.192-3.868 10.6-12.166 14.7-14.41 2.964-1.621 5.022-2.37 6.941-3.068 1.4-.51 2.728-.992 4.278-1.767 3.675-1.838 5.222-4.74 5.416-6.77.155-1.625.064-5.448 0-7.157z" fill="#F7B1A8"/><mask id="b" style="mask-type:alpha" maskUnits="userSpaceOnUse" x="11" y="64" width="78" height="34"><path d="M42.858 64.707h14.12c-.065 1.709-.155 5.532 0 7.157.193 2.03 1.74 4.932 5.416 6.77 1.55.775 2.877 1.257 4.277 1.767 1.92.698 3.978 1.447 6.941 3.068 4.1 2.244 11.509 10.542 14.7 14.41H11.523c3.192-3.868 10.6-12.166 14.7-14.41 2.964-1.621 5.022-2.37 6.941-3.068 1.4-.51 2.728-.992 4.278-1.767 3.675-1.838 5.222-4.74 5.416-6.77.155-1.625.064-5.448 0-7.157z" fill="#FFA39C"/></mask><g mask="url(#b)"><path d="M34.557 17.667c-.97 3.372-3.119 10.844-3.296 22.684-.273 18.164 4.766 22.587 9.581 26.813.322.282.642.563.96.848 3.277 2.932 6.51 3.593 7.902 3.742 1.392-.149 4.626-.81 7.902-3.742.318-.285.639-.566.96-.848 4.815-4.226 9.854-8.65 9.582-26.813-.178-11.84-2.327-19.312-3.297-22.684-.302-1.053-.49-1.706-.467-1.968h-29.36c.024.262-.164.915-.467 1.968z" fill="#E7ABA4"/></g><path d="M34.557 19.62c-.97 3.372-3.119 4.985-3.296 16.825-.273 18.164 4.766 22.586 9.581 26.812.322.283.642.564.96.849 3.277 2.932 6.51 3.593 7.902 3.742 1.392-.149 4.626-.81 7.902-3.742.318-.285.639-.566.96-.849 4.815-4.226 9.854-8.648 9.582-26.812-.178-11.84-2.327-13.453-3.297-16.825-.302-1.053-.49-1.706-.467-1.968h-29.36c.024.262-.164.915-.467 1.968z" fill="#FFBBB2"/><path fill-rule="evenodd" clip-rule="evenodd" d="M48.079 53.395a1.66 1.66 0 0 0-.953.31c-.268.181-.522.429-.79.69l-.008.008c-.22.213-.452.44-.723.667-.416.348-1.064.741-1.6 1.066 0 0-.84.315-.84.414 0 .1.443.288.443.288.125.066.266.156.414.261.295.21.604.475.84.713.112.111.22.255.34.421l.087.12c.093.131.194.272.303.41.285.364.65.74 1.182.962 1.008.421 1.721.505 2.813.505a.93.93 0 0 0 .121-.007c.04.005.08.008.123.008 1.09 0 1.804-.085 2.812-.506.533-.223.897-.598 1.183-.962.108-.138.209-.279.302-.41l.086-.12c.12-.166.23-.31.34-.421.237-.238.546-.502.841-.713.148-.105.29-.195.414-.26 0 0 .441-.108.441-.237 0-.128-.683-.464-.683-.464l-.004-.002c-.536-.325-1.184-.718-1.6-1.066a12.56 12.56 0 0 1-.723-.667l-.008-.008c-.268-.261-.522-.509-.79-.69a1.66 1.66 0 0 0-.953-.31c-.471 0-.787.177-1.046.323l-.01.005c-.233.132-.412.229-.649.24-.237-.011-.416-.108-.65-.24l-.009-.005c-.26-.146-.575-.324-1.046-.324zm.36 3.784a33.429 33.429 0 0 0-1.228-.364l.034-.006c.372-.07.758-.194 1.123-.312l.008-.003c.526-.17 1-.32 1.408-.332.408.011.882.163 1.408.332l.008.003c.347.112.713.23 1.068.301-.427.114-.877.252-1.29.38l-.372.119s-.678.277-.898.277c-.219 0-.897-.278-.897-.278l-.373-.117z" fill="#88090F"/><path d="M47.21 56.815c.41.11.836.241 1.228.364l.373.117s.678.278.898.278c.219 0 .897-.277.897-.277l.373-.118c.412-.13.862-.267 1.29-.38-.356-.072-.722-.19-1.07-.302l-.007-.003c-.526-.17-1-.32-1.408-.332-.408.011-.882.163-1.408.332l-.008.003c-.365.118-.75.242-1.123.312a1.974 1.974 0 0 1-.034.006z" fill="#88090F"/><path d="M48.154 46.51c.35-.316.728-.698 1.727-.733.998-.034 1.726.734 1.726.734.625.566.773 1.856.566 1.856-.12 0-.338-.21-.55-.416-.154-.148-.306-.294-.417-.358-.326-.187-.755-.54-1.325-.546-.57.006-1 .36-1.326.546-.111.064-.262.21-.416.358-.213.206-.43.416-.551.416-.207 0-.06-1.29.566-1.856z" fill="#E3A39B"/><circle cx="41.654" cy="40.367" r="1.758" fill="#451F21"/><path d="M39.1 37.865c.6-.097 1.023-.166 2.09-.035 1.033.127 1.35.229 2.04.487.348.131 1.112.552 1.342.818l.002.002c.212.245.458.528.439.682-.376-.143-.332-.244-.855-.521-.492-.261-1.769-.55-2.674-.661a7.166 7.166 0 0 0-2.034.083c-.428.075-.622.183-1.67.173a9.728 9.728 0 0 1-1.681-.206c-.64-.138-1.414-.377-1.525-.389.053.006 1.756.116 2.355.04.8-.103 1.648-.376 2.157-.47l.015-.003z" fill="#451F21"/><circle r="1.758" transform="matrix(-1 0 0 1 58.14 40.367)" fill="#451F21"/><path d="M60.704 37.867c-.599-.098-1.023-.168-2.09-.037-1.033.127-1.35.229-2.039.488-.348.132-1.113.554-1.342.82l-.002.002c-.212.246-.458.531-.439.685.376-.143.332-.245.855-.523.492-.261 1.769-.551 2.673-.662a7.134 7.134 0 0 1 1.787.041l.248.043c.428.076.623.185 1.671.175a9.678 9.678 0 0 0 1.68-.206c.64-.138 1.414-.378 1.525-.39-.053.006-1.756.116-2.355.038-.8-.103-1.649-.377-2.157-.472l-.015-.002z" fill="#451F21"/><path d="M60.059 33.212c-1.108 0-1.631-.06-2.21 0-.956.1-1.496.135-2.087.26-.296.064-.889.117-1.054.159-.462.132-.73.809-.598 1.27.132.463.614.535 1.076.403h.001c.92-.203 1.253-.298 2.333-.351 1.037-.051 1.461-.051 2.246-.051.569 0 1.172 0 1.953.05.638.043 1.523.05 1.932.18.41.131.58.2 1.354.49-.387-.58-.483-.481-1.354-1.306-.483-.336-.56-.492-1.249-.722a7.357 7.357 0 0 0-2.343-.382zM39.687 33.212c1.108 0 1.63-.06 2.21 0 .956.1 1.496.135 2.087.26.296.064.888.117 1.054.158.462.133.73.81.597 1.272-.132.462-.613.534-1.075.402h-.002c-.92-.203-1.252-.298-2.332-.351-1.037-.051-1.462-.051-2.246-.051-.569 0-1.172 0-1.953.05-.638.043-1.523.05-1.933.18-.41.131-.58.2-1.354.49.387-.58.484-.481 1.354-1.306.484-.336.56-.492 1.25-.722a7.357 7.357 0 0 1 2.343-.382z" fill="#4E0609"/><path d="M35.352 37.281C42.285 33.277 51.66 18.63 56.445 21.95c4.785 3.32 3.028 3.613 6.446 10.45 2.654 5.309 6.445 13.183 9.96 13.183-.554-5.993-4.009-28.544-7.923-32.028-4.894-4.356-14.973-5.584-25.053-2.457-8.064 2.502-13.44 23.65-14.973 30.872 4.59.39 3.516-.684 10.45-4.688z" fill="#5F090D"/></g></symbol></svg>